SplineFontDB: 3.2
FontName: GargouilleBold
FullName: GargouilleBold
FamilyName: GargouilleBold
Weight: Bold
Copyright: 
Version: Version 2;Fontself Maker 3.5.1
ItalicAngle: 0
UnderlinePosition: 0
UnderlineWidth: 0
Ascent: 800
Descent: 200
InvalidEm: 0
sfntRevision: 0x00010000
LayerCount: 2
Layer: 0 0 "Back" 1
Layer: 1 0 "Fore" 0
XUID: [1021 690 1522831698 14029]
StyleMap: 0x0040
FSType: 0
OS2Version: 4
OS2_WeightWidthSlopeOnly: 0
OS2_UseTypoMetrics: 0
CreationTime: 1587336329
ModificationTime: 1693980549
PfmFamily: 81
TTFWeight: 400
TTFWidth: 5
LineGap: 0
VLineGap: 0
Panose: 0 0 0 0 0 0 0 0 0 0
OS2TypoAscent: 749
OS2TypoAOffset: 0
OS2TypoDescent: -16
OS2TypoDOffset: 0
OS2TypoLinegap: 0
OS2WinAscent: 934
OS2WinAOffset: 0
OS2WinDescent: 233
OS2WinDOffset: 0
HheadAscent: 749
HheadAOffset: 0
HheadDescent: -16
HheadDOffset: 0
OS2SubXSize: 650
OS2SubYSize: 699
OS2SubXOff: 0
OS2SubYOff: 140
OS2SupXSize: 650
OS2SupYSize: 699
OS2SupXOff: 0
OS2SupYOff: 479
OS2StrikeYSize: 49
OS2StrikeYPos: 258
OS2CapHeight: 700
OS2XHeight: 507
OS2Vendor: 'XXXX'
OS2CodePages: 00000003.00000000
OS2UnicodeRanges: 80000027.00000008.00000000.00000000
Lookup: 258 0 0 "'kern' Horizontal Kerning in Latin lookup 0" { "'kern' Horizontal Kerning in Latin lookup 0 per glyph data 0"  "'kern' Horizontal Kerning in Latin lookup 0 kerning class 1"  } ['kern' ('DFLT' <'dflt' > 'latn' <'dflt' > ) ]
MarkAttachClasses: 1
DEI: 91125
KernClass2: 28 21 "'kern' Horizontal Kerning in Latin lookup 0 kerning class 1"
 21 parenright zero seven
 8 one four
 3 B R
 1 D
 1 F
 1 G
 3 H I
 1 K
 3 J O
 1 T
 26 A M N V Agrave Acircumflex
 1 Z
 1 b
 1 c
 1 e
 1 f
 1 h
 1 j
 1 l
 9 g m n u v
 5 o p w
 1 q
 1 s
 1 x
 1 y
 1 z
 13 Aacute Atilde
 10 parenright
 5 slash
 3 two
 5 seven
 8 question
 3 B E
 1 D
 5 F P R
 1 H
 1 T
 1 Z
 9 backslash
 12 bracketright
 5 c e r
 7 m n u w
 3 g o
 3 q y
 1 t
 9 braceleft
 10 braceright

StartChar: .notdef
Encoding: 65536 -1 0
Width: 527
GlyphClass: 1
Flags: W
HStem: -8.48528 37.9706<92.582 435.418> 671.515 36.9706<91.5655 435.407>
VStem: 41.5147 37.9706<77.3786 621.716> 448.515 36.9706<75.4093 623.684>
LayerCount: 2
Fore
SplineSet
50 708.485281374 m 1
 477 708.485281374 l 1
 485.485281374 700 l 1
 485.485281374 5.37764277553e-17 l 1
 477 -8.48528137424 l 1
 50 -8.48528137424 l 1
 41.5147186258 1.83013326716e-15 l 1
 41.5147186258 700 l 1
 50 708.485281374 l 1
448.514718626 623.684475414 m 1
 284.485281374 350 l 1
 448.514718626 75.409284601 l 1
 448.514718626 623.684475414 l 1
435.418039878 29.4852813742 m 1
 264 314.873153172 l 1
 92.5819601218 29.4852813742 l 1
 435.418039878 29.4852813742 l 1
79.4852813742 77.3785521516 m 1
 242.514718626 350 l 1
 79.4852813742 621.715728753 l 1
 79.4852813742 77.3785521516 l 1
435.407073527 671.514718626 m 1
 91.5654660158 671.514718626 l 1
 263.022871378 385.134511831 l 1
 435.407073527 671.514718626 l 1
EndSplineSet
EndChar

StartChar: exclam
Encoding: 33 33 5
Width: 123
GlyphClass: 1
Flags: W
VStem: 15.5567 100.625<38.4072 87.0107 215.153 689.761>
LayerCount: 2
Fore
SplineSet
15.5156951883 -10.072265625 m 1
 15.6817108133 87.0107421875 l 1
 24.1669921875 95.4960235617 l 1
 107.862304688 143.809500124 l 1
 116.347586062 135.32421875 l 1
 116.181570436 38.4072265625 l 1
 107.696289062 29.9219451883 l 1
 24.0009765625 -18.5575469992 l 1
 15.5156951883 -10.072265625 l 1
116.513601686 689.760742188 m 1
 116.181570436 215.153320312 l 1
 107.696289062 206.668038938 l 1
 24.0419921875 158.354562376 l 1
 15.5567108133 166.83984375 l 1
 15.8477264383 689.760742188 l 1
 24.3330078125 698.246023562 l 1
 108.028320312 698.246023562 l 1
 116.513601686 689.760742188 l 1
EndSplineSet
EndChar

StartChar: numbersign
Encoding: 35 35 6
Width: 611
GlyphClass: 1
Flags: W
HStem: -8.48528 21G<19.5694 120.152 263.796 364.379> 184.892 91.8104<15 82.5389 214.386 326.765 458.614 594.05> 423.838 91.8104<15 163.907 295.756 408.131 539.98 594.049> 688.319 20G<257.893 358.476 502.119 602.702>
LayerCount: 2
Fore
SplineSet
214.386323136 276.702078249 m 1
 358.0300182 276.702078249 l 1
 408.131254989 423.837960814 l 1
 264.487559924 423.837960814 l 1
 214.386323136 276.702078249 l 1
439.39929142 515.648367312 m 1
 502.119210814 699.833984375 l 1
 510.604492188 708.319265749 l 1
 594.216796875 708.319265749 l 1
 602.702078249 699.833984375 l 1
 539.980291747 515.648367312 l 1
 594.048828125 515.648367312 l 1
 602.534109499 507.163085938 l 1
 602.534109499 432.323242188 l 1
 594.048828125 423.837960814 l 1
 508.715098987 423.837960814 l 1
 458.613862198 276.702078249 l 1
 594.049804688 276.702078249 l 1
 602.535086062 268.216796875 l 1
 602.535086062 193.376953125 l 1
 594.049804688 184.891671751 l 1
 427.347401804 184.891671751 l 1
 364.378836062 5.37764277553e-17 l 1
 355.893554688 -8.48528137424 l 1
 272.28125 -8.48528137424 l 1
 263.795968626 1.83013326716e-15 l 1
 326.764534369 184.891671751 l 1
 183.120839304 184.891671751 l 1
 120.152273562 5.37764277553e-17 l 1
 111.666992188 -8.48528137424 l 1
 28.0546875 -8.48528137424 l 1
 19.5694061258 1.83013326716e-15 l 1
 82.5389055797 184.891671751 l 1
 15 184.891671751 l 1
 6.51471862576 193.376953125 l 1
 6.51471862576 268.216796875 l 1
 15 276.702078249 l 1
 113.805408826 276.702078249 l 1
 163.906645614 423.837960814 l 1
 15 423.837960814 l 1
 6.51471862576 432.323242188 l 1
 6.51471862576 507.163085938 l 1
 15 515.648367312 l 1
 195.17272892 515.648367312 l 1
 257.892648314 699.833984375 l 1
 266.377929688 708.319265749 l 1
 349.990234375 708.319265749 l 1
 358.475515749 699.833984375 l 1
 295.755596356 515.648367312 l 1
 439.39929142 515.648367312 l 1
EndSplineSet
EndChar

StartChar: dollar
Encoding: 36 36 7
Width: 291
GlyphClass: 1
Flags: W
HStem: -8.48626 21G<127.257 165.017>
VStem: 7.51374 103.868<513.806 547.534 549.322 748.937> 127.258 37.7596<-0.000976562 91.0919 143.672 365.911 504.602 754.023 807.107 870.51> 180.061 103.868<149.263 345.218 347.381 348.878 349.086 357.197>
LayerCount: 2
Fore
SplineSet
165.016531374 91.0918670633 m 1
 165.016531374 -0.0009765625 l 1
 156.53125 -8.48625793674 l 1
 135.7421875 -8.48625793674 l 1
 127.256906126 -0.000976562499998 l 1
 127.256906126 91.0918670633 l 1
 102.646484375 91.0918670633 l 1
 16.20703125 140.985421751 l 1
 7.72174987576 149.470703125 l 1
 16.20703125 157.955984499 l 1
 102.646484375 157.955984499 l 1
 127.256906126 143.671918526 l 1
 127.256906126 387.803919807 l 1
 16.9970703125 451.736398314 l 1
 8.51178893826 460.221679688 l 1
 8.51178893826 547.534179688 l 1
 7.51374206326 549.322265625 l 1
 7.51374206326 748.936523438 l 1
 15.9990234375 757.421804812 l 1
 102.896484375 807.107351686 l 1
 127.257882688 807.107351686 l 1
 127.257882688 870.509765625 l 1
 135.743164062 878.995046999 l 1
 156.532226562 878.995046999 l 1
 165.017507936 870.509765625 l 1
 165.017507936 807.107351686 l 1
 188.796875 807.107351686 l 1
 275.236328125 757.172781374 l 1
 283.721609499 748.6875 l 1
 275.236328125 740.202218626 l 1
 188.796875 740.202218626 l 1
 165.017507936 754.022594737 l 1
 165.017507936 482.704145798 l 1
 275.236328125 418.773367312 l 1
 283.721609499 410.288085938 l 1
 283.721609499 349.085937501 l 1
 283.929617312 348.877929688 l 1
 283.929617312 347.380859375 l 1
 284.719656374 346.008789062 l 1
 283.928640749 345.217773437 l 1
 283.928640749 149.262695312 l 1
 275.443359375 140.777413938 l 1
 188.545898438 91.0918670633 l 1
 165.016531374 91.0918670633 l 1
127.257882688 775.98276944 m 1
 111.381765749 785.206824062 l 1
 111.381765749 513.806146438 l 1
 127.257882688 504.601916311 l 1
 127.257882688 775.98276944 l 1
165.016531374 121.752426071 m 1
 180.060617064 112.999386677 l 1
 180.060617064 357.197252918 l 1
 165.016531374 365.911285897 l 1
 165.016531374 121.752426071 l 1
EndSplineSet
EndChar

StartChar: percent
Encoding: 37 37 8
Width: 754
GlyphClass: 1
Flags: W
HStem: -8.48528 21G<209.247 309.789> 688.319 20G<64.5312 183.056 183.056 274.614 447.569 548.111>
VStem: 6.5157 100.666<351.53 647.647> 173.948 100.666<390.052 686.199> 479.377 100.666<15.3803 311.513> 646.81 100.666<53.935 350.046>
LayerCount: 2
Fore
SplineSet
274.614187624 699.833984375 m 1
 274.614187624 386.462890625 l 1
 266.12890625 377.977609251 l 1
 182.43359375 329.664132688 l 1
 99.3501265362 329.664132736 99.3501265362 329.664132736 15.0009765625 329.790109251 c 1
 6.51569518826 338.275390625 l 1
 6.51569518826 651.520507812 l 1
 15.0009765625 660.005789186 l 1
 15.4580078125 660.005789186 l 1
 99.1953125 708.319265749 l 1
 182.890625 708.319265749 l 1
 183.055734071 708.154156678 l 1
 266.12890625 708.319265749 l 1
 274.614187624 699.833984375 l 1
456.0546875 708.319265749 m 1
 539.625976562 708.319265749 l 1
 548.111257936 699.833984375 l 1
 309.788992312 5.37764277553e-17 l 1
 301.303710938 -8.48528137424 l 1
 217.732421875 -8.48528137424 l 1
 209.247140501 1.83013326716e-15 l 1
 447.569406126 699.833984375 l 1
 456.0546875 708.319265749 l 1
580.042898562 311.513290474 m 1
 580.042898562 15.3802633646 l 1
 646.809640501 53.9350259464 l 1
 646.809640501 350.046326017 l 1
 580.042898562 311.513290474 l 1
571.557617188 -6.49016418674 m 1
 487.862304688 -6.32414856174 l 1
 479.377023314 2.1611328125 l 1
 479.377023314 315.365234375 l 1
 487.862304688 323.850515749 l 1
 488.319335938 323.850515749 l 1
 572.014648438 372.205007936 l 1
 655.751953125 372.205007936 l 1
 655.917062195 372.039898866 l 1
 738.990234375 372.205007936 l 1
 747.475515749 363.719726562 l 1
 747.475515749 50.349609375 l 1
 738.990234375 41.8643280008 l 1
 655.294921875 -6.49016418674 l 1
 571.557617188 -6.49016418674 l 1
107.181570437 647.646654202 m 1
 107.181570437 351.530404037 l 1
 173.948312376 390.052463398 l 1
 173.948312376 686.199128955 l 1
 107.181570437 647.646654202 l 1
EndSplineSet
EndChar

StartChar: quotesingle
Encoding: 39 39 9
AltUni2: 002018.ffffffff.0 002019.ffffffff.0 002018.ffffffff.0 002019.ffffffff.0
Width: 117
GlyphClass: 1
Flags: W
HStem: 218.611 244.192
VStem: 8.51472 100.209<275.16 454.318>
LayerCount: 2
Fore
SplineSet
17.125 462.803640749 m 1
 100.404296875 462.803640749 l 1
 108.889578249 454.318359375 l 1
 108.723562624 275.16015625 l 1
 100.23828125 266.674874876 l 1
 17 218.611398314 l 1
 8.51471862576 227.096679688 l 1
 8.63971862576 454.318359375 l 1
 17.125 462.803640749 l 1
EndSplineSet
EndChar

StartChar: parenleft
Encoding: 40 40 10
Width: 291
GlyphClass: 1
Flags: W
HStem: -8.48528 21G<110.361 268.782>
VStem: 20.5147 132.265<70.5599 863.438>
LayerCount: 2
Fore
SplineSet
152.780203249 863.438102218 m 1
 152.780203249 70.5599446575 l 1
 260.296875 8.48528137424 l 1
 268.782156374 5.37764277553e-17 l 1
 260.296875 -8.48528137424 l 1
 145.001953125 -8.48528137424 l 1
 29.70703125 58.0801483133 l 1
 29 58.0801483133 l 1
 20.5147186258 66.5654296875 l 1
 20.5147186258 867.432617188 l 1
 29 875.917898562 l 1
 29.70703125 875.917898562 l 1
 145.001953125 942.483328249 l 1
 260.296875 942.483328249 l 1
 268.782156374 933.998046875 l 1
 260.296875 925.512765501 l 1
 152.780203249 863.438102218 l 1
EndSplineSet
EndChar

StartChar: parenright
Encoding: 41 41 11
Width: 291
GlyphClass: 1
Flags: W
HStem: -8.48528 21G<21.5137 179.935>
VStem: 137.516 132.265<70.5599 863.438>
LayerCount: 2
Fore
SplineSet
260.588867188 875.917898562 m 1
 261.295898438 875.917898562 l 1
 269.781179812 867.432617188 l 1
 269.781179812 66.5654296875 l 1
 261.295898438 58.0801483133 l 1
 260.588867188 58.0801483133 l 1
 145.293945312 -8.48528137424 l 1
 29.9990234375 -8.48528137424 l 1
 21.5137420633 1.83013326716e-15 l 1
 29.9990234375 8.48528137424 l 1
 137.515695188 70.5599446575 l 1
 137.515695188 863.438102218 l 1
 29.9990234375 925.512765501 l 1
 21.5137420633 933.998046875 l 1
 29.9990234375 942.483328249 l 1
 145.293945312 942.483328249 l 1
 260.588867188 875.917898562 l 1
EndSplineSet
EndChar

StartChar: asterisk
Encoding: 42 42 12
Width: 257
GlyphClass: 1
Flags: W
VStem: 94.2083 68.4791<243.521 311.192 471.664 539.387>
LayerCount: 2
Fore
SplineSet
162.687429812 471.663922124 m 1
 224.176757812 533.153250124 l 1
 232.662039186 524.66796875 l 1
 250.376236122 469.450840898 l 1
 172.335221112 391.451818074 l 1
 250.373953249 313.413085938 l 1
 232.662039186 258.198242188 l 1
 224.17426953 249.71047399 l 1
 162.728445436 311.192335683 l 1
 162.728445436 243.520507812 l 1
 154.243164062 235.035226438 l 1
 102.645507812 205.514718626 l 1
 94.1602264378 214 l 1
 94.1960902616 313.321105698 l 1
 30.55078125 249.711984251 l 1
 22.0654998758 258.197265625 l 1
 6.51569518826 315.408203125 l 1
 82.4776092508 391.453125 l 1
 6.51569518826 467.45703125 l 1
 22.0654998758 524.66796875 l 1
 30.55078125 533.153250124 l 1
 94.2083421496 469.495689225 l 1
 94.2442108138 568.865234375 l 1
 102.729492188 577.350515749 l 1
 154.202148438 547.872000124 l 1
 162.687429812 539.38671875 l 1
 162.687429812 471.663922124 l 1
EndSplineSet
EndChar

StartChar: plus
Encoding: 43 43 13
Width: 590
GlyphClass: 1
Flags: W
HStem: -8.48528 21G<248.942 292.415> 249.212 100.791<78.0205 249.023 349.987 517.08>
VStem: 249.069 100.913<48.1055 249.126 350.087 530.363>
LayerCount: 2
Fore
SplineSet
568.765554812 341.642578125 m 1
 525.565359499 257.532226562 l 1
 517.080078125 249.046945188 l 1
 349.986691709 249.125939926 l 1
 350.066336062 48.10546875 l 1
 341.581054688 39.6201873758 l 1
 257.427734375 -8.48528137424 l 1
 248.942453001 1.83013326716e-15 l 1
 249.022727706 249.132073283 l 1
 29.998046875 249.211984251 l 1
 21.5127655008 257.697265625 l 1
 69.5352264383 341.517578125 l 1
 78.0205078125 350.002859499 l 1
 249.068957193 350.04286735 l 1
 249.109445188 578.385742188 l 1
 257.594726562 586.871023562 l 1
 341.45703125 538.848562624 l 1
 349.942312624 530.36328125 l 1
 349.982416813 350.087495588 l 1
 560.280273438 350.127859499 l 1
 568.765554812 341.642578125 l 1
EndSplineSet
EndChar

StartChar: comma
Encoding: 44 44 14
Width: 185
GlyphClass: 1
Flags: W
HStem: -134.091 120<57.6543 80.2305>
VStem: 4.51472 161.702
LayerCount: 2
Fore
SplineSet
57.654296875 -14.0908905008 m 1
 157.731445312 -14.0908905008 l 1
 166.216726686 -22.576171875 l 1
 88.7157501242 -125.60546875 l 1
 80.23046875 -134.090750124 l 1
 13 -134.090750124 l 1
 4.51471862576 -125.60546875 l 1
 49.1690155008 -22.576171875 l 1
 57.654296875 -14.0908905008 l 1
EndSplineSet
EndChar

StartChar: hyphen
Encoding: 45 45 15
Width: 384
GlyphClass: 1
Flags: W
HStem: -8.31927 100.791<53.0215 333.172>
LayerCount: 2
Fore
SplineSet
333.171875 -8.48528137424 m 1
 4.9990234375 -8.31926574924 l 1
 -3.48625793674 0.166015625 l 1
 44.5362030008 83.986328125 l 1
 53.021484375 92.4716094992 l 1
 376.329101562 92.5966094992 l 1
 384.814382936 84.111328125 l 1
 341.657156374 5.37764277553e-17 l 1
 333.171875 -8.48528137424 l 1
EndSplineSet
EndChar

StartChar: period
Encoding: 46 46 16
Width: 146
GlyphClass: 1
Flags: W
HStem: -8.06145 117.048<23 123.077>
VStem: 14.5147 117.048<0.423828 100.501>
LayerCount: 2
Fore
SplineSet
123.077148438 -8.06145324924 m 1
 23 -8.06145324924 l 1
 14.5147186258 0.423828125 l 1
 14.5147186258 100.500976562 l 1
 23 108.986257936 l 1
 123.077148438 108.986257936 l 1
 131.562429812 100.500976562 l 1
 131.562429812 0.423828125 l 1
 123.077148438 -8.06145324924 l 1
EndSplineSet
EndChar

StartChar: slash
Encoding: 47 47 17
Width: 382
GlyphClass: 1
Flags: W
HStem: -8.48528 21G<21.5147 122.098> 688.319 20G<259.837 360.42>
LayerCount: 2
Fore
SplineSet
113.612304688 -8.48528137424 m 1
 30 -8.48528137424 l 1
 21.5147186258 1.83013326716e-15 l 1
 259.836984251 699.833984375 l 1
 268.322265625 708.319265749 l 1
 351.934570312 708.319265749 l 1
 360.419851686 699.833984375 l 1
 122.097586062 5.37764277553e-17 l 1
 113.612304688 -8.48528137424 l 1
EndSplineSet
EndChar

StartChar: zero
Encoding: 48 48 18
Width: 318
GlyphClass: 1
Flags: W
HStem: -8.48528 21G<115.481 120.304> 688.319 20G<197.348 200.3 202.17 296.93>
VStem: 20.5147 103.452<172.825 645.979> 193.477 103.453<54.0184 526.941>
LayerCount: 2
Fore
SplineSet
130.447982173 17.6172866331 m 1
 193.476632688 54.018353082 l 1
 193.476632688 526.940954197 l 1
 130.447982173 17.6172866331 l 1
123.966726686 645.979190457 m 1
 123.966726686 172.82543778 l 1
 187.036430384 682.385707966 l 1
 123.966726686 645.979190457 l 1
197.347656249 707.986257936 m 1
 197.680664062 708.319265749 l 1
 200.299804688 707.986257936 l 1
 201.962890625 707.986257936 l 1
 202.170399331 707.778749231 l 1
 288.444335938 707.986257936 l 1
 296.929617312 699.500976562 l 1
 296.929617312 50.474609375 l 1
 288.444335938 41.9893280008 l 1
 201.962890625 -7.94524231174 l 1
 120.303710938 -7.94524231174 l 1
 119.763671875 -8.48528137424 l 1
 115.481445312 -7.94524231174 l 1
 29 -7.73723449924 l 1
 20.5147186258 0.748046875 l 1
 20.5147186258 649.56640625 l 1
 29 658.051687624 l 1
 115.481445312 707.986257936 l 1
 197.347656249 707.986257936 l 1
EndSplineSet
EndChar

StartChar: one
Encoding: 49 49 19
Width: 300
GlyphClass: 1
Flags: W
HStem: -8.48626 21G<195.595 238.489> 687.986 20G<108.868 178.16>
VStem: 135.037 103.452<50.2666 596.006>
LayerCount: 2
Fore
SplineSet
143.522460938 707.986257936 m 1
 230.00390625 658.050711062 l 1
 238.489187624 649.565429688 l 1
 238.489187624 -0.0009765625 l 1
 230.00390625 -8.48625793674 l 1
 143.522460938 41.7813201883 l 1
 135.037179564 50.2666015625 l 1
 135.037179564 596.005777509 l 1
 57 641.081124876 l 1
 48.5147186258 649.56640625 l 1
 57 658.051687624 l 1
 143.522460938 707.986257936 l 1
EndSplineSet
EndChar

StartChar: two
Encoding: 50 50 20
Width: 301
GlyphClass: 1
Flags: W
HStem: -8.48528 21G<106.042 228.223> 688.153 20G<71.976 193.337 193.337 223.304>
VStem: 22.7266 93.3869<48.4004 308.816> 184.523 92.8534<412.522 649>
LayerCount: 2
Fore
SplineSet
193.564453125 58.4608673117 m 1
 280.170898438 58.4608673117 l 1
 288.656179812 49.9765625 l 1
 280.170898438 41.4912811258 l 1
 193.564453125 -8.48528137424 l 1
 107 -8.48528137424 l 1
 106.04228629 -7.52756766415 l 1
 31.2119140625 39.9151092508 l 1
 22.7266326883 48.400390625 l 1
 22.5148427703 331.83386023 l 1
 22.2237030008 332.125 l 1
 30.708984375 340.610281374 l 1
 184.522515782 412.521851159 l 1
 184.994872569 686.458519453 l 1
 106.606445312 641.165109251 l 1
 20 641.165109251 l 1
 11.5147186258 649.650390625 l 1
 20 658.135671999 l 1
 106.606445312 708.153250124 l 1
 193.170898438 708.153250124 l 1
 193.337402344 707.986746218 l 1
 193.502929688 708.152273562 l 1
 269 657.485281374 l 1
 277.485281374 649 l 1
 277.375906374 387.350585938 l 1
 268.890625 378.865304564 l 1
 116.206490433 308.816152058 l 1
 116.113522279 13.7582420547 l 1
 193.564453125 58.4608673117 l 1
EndSplineSet
EndChar

StartChar: three
Encoding: 51 51 21
Width: 302
GlyphClass: 1
Flags: W
HStem: -8.15423 21G<64.8174 194.363 237.67 280.805> 688.277 20G<68.9471 281.261>
VStem: 4.51374 103.41<53.8491 150.094 550.07 646.313> 177.847 103.456<49.8936 420.303 525.374 684.287>
LayerCount: 2
Fore
SplineSet
107.923757937 53.8491067436 m 1
 185.877929688 8.81633606174 l 1
 194.363211062 0.3310546875 l 1
 185.877929688 -8.15422668674 l 1
 99.4384765625 -8.15422668674 l 1
 12.9990234375 41.7803436258 l 1
 4.51374206326 50.265625 l 1
 4.51374206326 150.09375 l 1
 12.9990234375 158.579031374 l 1
 99.4384765625 158.579031374 l 1
 107.923757937 150.09375 l 1
 107.923757937 53.8491067436 l 1
177.851632688 684.287313843 m 1
 112.082902545 646.313392216 l 1
 112.082902545 614.232365644 112.081961062 582.151339072 112.081961062 550.0703125 c 1
 103.596679688 541.585031126 l 1
 17.1572265625 541.585031126 l 1
 8.67194518826 550.0703125 l 1
 8.67194518826 649.8984375 l 1
 17.1572265625 658.383718874 l 1
 103.596679688 708.277273562 l 1
 272.775390625 708.277273562 l 1
 281.260671999 699.791992188 l 1
 281.260671999 699.791992188 281.260671999 525.416015625 281.302664186 525.374023438 c 1
 272.817382812 516.888742064 l 1
 199.089068903 474.940519444 l 1
 272.818359375 432.369070436 l 1
 281.303640749 423.883789062 l 1
 280.804617312 5.37764277553e-17 l 1
 272.319335938 -8.48528137424 l 1
 185.879882812 41.4082733133 l 1
 177.394601438 49.8935546875 l 1
 177.847256617 420.302835299 l 1
 99.8974609375 465.333078001 l 1
 91.4121795633 473.818359375 l 1
 99.8974609375 482.303640749 l 1
 177.814892692 482.303640749 l 1
 177.851632688 525.374023438 l 1
 177.851632688 684.287313843 l 1
EndSplineSet
EndChar

StartChar: four
Encoding: 52 52 22
Width: 315
GlyphClass: 1
Flags: W
HStem: -8.4843 21G<250.866 293.774>
VStem: 3.88874 103.196<402.471 647.53> 190.572 103.202<50.1016 346.087 351.255 647.488>
LayerCount: 2
Fore
SplineSet
199.057617188 705.783132936 m 1
 285.2890625 655.973562624 l 1
 293.774343874 647.48828125 l 1
 293.774343874 0.0009765625 l 1
 285.2890625 -8.48430481174 l 1
 199.057617188 41.6162811258 l 1
 190.572335814 50.1015625 l 1
 190.572335814 346.08705444 l 1
 184.670898438 340.185617064 l 1
 98.439453125 340.185617064 l 1
 12.3740234375 390.453195188 l 1
 3.88874206326 398.938476562 l 1
 3.51471862576 697.298828125 l 1
 12 705.784109499 l 1
 98.1904296875 656.015554812 l 1
 106.675711062 647.530273438 l 1
 107.084851913 402.471269381 l 1
 184.670898438 357.156179812 l 1
 190.572335814 351.254742436 l 1
 190.572335814 697.297851562 l 1
 199.057617188 705.783132936 l 1
EndSplineSet
EndChar

StartChar: five
Encoding: 53 53 23
Width: 302
GlyphClass: 1
Flags: W
HStem: -8.19427 21G<69.1556 199.239 242.759 285.846> 688.277 20G<11.0108 227.7>
VStem: 11.0108 103.815<53.9477 150.761 504.976 646.125> 182.269 103.577<50.1016 422.102>
LayerCount: 2
Fore
SplineSet
112.341726686 53.9476975656 m 1
 190.75390625 8.77629699924 l 1
 199.239187624 0.291015625 l 1
 190.75390625 -8.19426574924 l 1
 103.856445312 -8.19426574924 l 1
 17.0009765625 41.8653045633 l 1
 8.51569518826 50.3505859375 l 1
 8.51569518826 150.760742188 l 1
 17.0009765625 159.246023562 l 1
 103.856445312 159.246023562 l 1
 112.341726686 150.760742188 l 1
 112.341726686 53.9476975656 l 1
114.592794919 646.124665476 m 1
 114.825622277 504.97559035 l 1
 191.252929688 484.465750124 l 1
 277.859375 434.157156374 l 1
 286.344656374 425.671875 l 1
 285.845632936 0.0419921875 l 1
 277.360351562 -8.44328918674 l 1
 190.75390625 41.6162811258 l 1
 182.268624876 50.1015625 l 1
 182.76290476 422.101826021 l 1
 104.35546875 467.495187376 l 1
 19.49609375 490.279367064 l 1
 11.0108123758 498.764648438 l 1
 11.0108123758 699.791992188 l 1
 19.49609375 708.277273562 l 1
 192.999023438 708.277273562 l 1
 279.854492188 658.217703249 l 1
 288.339773562 649.732421875 l 1
 279.854492188 641.247140501 l 1
 192.999023438 641.247140501 l 1
 149.674804688 666.276437376 l 1
 114.592794919 646.124665476 l 1
EndSplineSet
EndChar

StartChar: six
Encoding: 54 54 24
Width: 312
GlyphClass: 1
Flags: W
HStem: -8.48626 21G<80.976 237.033> 688.526 20G<114.981 236.883>
VStem: 20.5147 103.535<110.42 386.613 413.331 650.396> 193.769 103.577<53.7103 277.375>
LayerCount: 2
Fore
SplineSet
288.859375 641.538156126 m 1
 202.252929688 641.538156126 l 1
 124.049734499 686.68124956 l 1
 124.049734499 413.331299915 l 1
 202.25390625 458.437429812 l 1
 288.860351562 408.460867312 l 1
 297.345632936 399.975585938 l 1
 297.345632936 49.767578125 l 1
 288.860430066 41.2821600745 l 1
 202.212890625 -8.48625793674 l 1
 115.606445312 -8.48625793674 l 1
 29 41.5313201883 l 1
 20.5147186258 50.0166015625 l 1
 20.5147186258 650.396484375 l 1
 29 658.881765749 l 1
 114.980617292 707.901445541 l 1
 115.60546875 708.526296999 l 1
 202.252929688 708.526296999 l 1
 288.859375 658.508718874 l 1
 297.344656374 650.0234375 l 1
 288.859375 641.538156126 l 1
132.941072749 48.5135411467 m 1
 158.888671875 33.5145782492 l 1
 193.768624876 53.7102707203 l 1
 193.768624876 277.375340601 l 1
 132.941072749 48.5135411467 l 1
187.703385023 349.844358973 m 1
 124.049734499 386.612640269 l 1
 124.049734499 110.420287962 l 1
 187.703385023 349.844358973 l 1
EndSplineSet
EndChar

StartChar: seven
Encoding: 55 55 25
Width: 353
GlyphClass: 1
Flags: W
HStem: -8.48528 21G<228.561 271.688> 688.485 20G<115.897 332.096>
VStem: 55.5147 103.493<550.112 646.439> 228.561 103.535<49.9766 686.614>
LayerCount: 2
Fore
SplineSet
150.522460938 708.485281374 m 1
 323.610351562 708.485281374 l 1
 332.095632936 700 l 1
 332.095632936 49.9765625 l 1
 323.610351562 41.4912811258 l 1
 237.045898438 -8.48528137424 l 1
 228.560617064 1.83013326716e-15 l 1
 228.560617064 686.614067568 l 1
 159.007742312 646.439371259 l 1
 159.007742312 550.112304688 l 1
 150.522460938 541.627023314 l 1
 64 541.627023314 l 1
 55.5147186258 550.112304688 l 1
 55.5147186258 650.0234375 l 1
 64 658.508718874 l 1
 150.522460938 708.485281374 l 1
EndSplineSet
EndChar

StartChar: eight
Encoding: 56 56 26
Width: 316
GlyphClass: 1
Flags: W
HStem: -8.48626 21G<79.9224 235.771> 688.277 20G<79.9508 235.808>
VStem: 19.5147 103.577<53.562 396.264 503.393 646.187> 192.686 103.493<53.562 396.264 503.548 646.187>
LayerCount: 2
Fore
SplineSet
201.211914062 708.277273562 m 1
 287.735351562 658.258718874 l 1
 296.220632936 649.7734375 l 1
 296.220632936 499.594726562 l 1
 287.735351562 491.109445188 l 1
 215.895473062 449.841348651 l 1
 287.693359375 408.335867312 l 1
 296.178640749 399.850585938 l 1
 296.178640749 49.9755859375 l 1
 287.693359375 41.4903045633 l 1
 201.12890625 -8.48625793674 l 1
 114.564453125 -8.48625793674 l 1
 28 41.4903045633 l 1
 19.5147186258 49.9755859375 l 1
 19.5147186258 399.850585938 l 1
 28 408.335867312 l 1
 99.8670889001 449.827148438 l 1
 28 491.318429564 l 1
 19.5147186258 499.803710938 l 1
 19.5147186258 649.774414062 l 1
 28 658.259695436 l 1
 114.564453125 708.277273562 l 1
 201.211914062 708.277273562 l 1
123.049734499 503.39266111 m 1
 157.8046875 483.341726686 l 1
 192.664243178 503.548373629 l 1
 192.643624876 507.12109375 l 1
 192.643624876 646.186993693 l 1
 157.846679688 666.276437376 l 1
 123.049734499 646.186993693 l 1
 123.049734499 503.39266111 l 1
123.091726686 53.5620297449 m 1
 157.888671875 33.4725860617 l 1
 192.685617064 53.5620297449 l 1
 192.685617064 396.264142131 l 1
 157.888671875 416.353585814 l 1
 123.091726686 396.264142131 l 1
 123.091726686 53.5620297449 l 1
EndSplineSet
EndChar

StartChar: nine
Encoding: 57 57 27
Width: 315
GlyphClass: 1
Flags: W
HStem: -8.48723 21G<77.9476 199.891> 688.277 20G<98.1705 233.825>
VStem: 17.5147 103.577<53.5634 149.969 353.542 646.085> 190.728 103.535<49.6006 286.558 313.325 646.187>
LayerCount: 2
Fore
SplineSet
199.211914062 708.277273562 m 1
 285.77734375 658.257742312 l 1
 294.262625124 649.772460938 l 1
 294.262625124 49.6005859375 l 1
 285.77734375 41.1153045633 l 1
 199.891373677 -7.8087514468 l 1
 199.212890625 -8.48723449924 l 1
 112.606445312 -8.48723449924 l 1
 26 41.4893280008 l 1
 17.5147186258 49.974609375 l 1
 17.5147186258 149.96875 l 1
 26 158.454031374 l 1
 112.606445312 158.454031374 l 1
 121.091726686 149.96875 l 1
 121.091726686 53.5634284433 l 1
 190.727609251 13.3797905552 l 1
 190.727609251 286.557709445 l 1
 112.606445312 241.477609251 l 1
 26 291.454171751 l 1
 17.5147186258 299.939453125 l 1
 17.5147186258 650.064453125 l 1
 26 658.549734499 l 1
 54.8792215809 675.114848856 83.7355765895 691.702829785 112.60546875 708.277273562 c 1
 199.211914062 708.277273562 l 1
121.091726686 353.541831805 m 1
 190.727609251 313.325215318 l 1
 190.727609251 646.186993693 l 1
 155.930664062 666.276437376 l 1
 121.091726686 646.085304002 l 1
 121.091726686 353.541831805 l 1
EndSplineSet
EndChar

StartChar: colon
Encoding: 58 58 28
Width: 206
GlyphClass: 1
Flags: W
HStem: -4.72259 119.376<92 194.405> 401.199 119.376<92 194.405>
VStem: 83.5147 119.376<3.7627 106.168 409.685 512.09>
LayerCount: 2
Fore
SplineSet
194.405273438 -4.72258606174 m 1
 92 -4.72258606174 l 1
 83.5147186258 3.7626953125 l 1
 83.5147186258 106.16796875 l 1
 92 114.653250124 l 1
 194.405273438 114.653250124 l 1
 202.890554812 106.16796875 l 1
 202.890554812 3.7626953125 l 1
 194.405273438 -4.72258606174 l 1
194.405273438 401.199288938 m 1
 92 401.199288938 l 1
 83.5147186258 409.684570312 l 1
 83.5147186258 512.08984375 l 1
 92 520.575125124 l 1
 194.405273438 520.575125124 l 1
 202.890554812 512.08984375 l 1
 202.890554812 409.684570312 l 1
 194.405273438 401.199288938 l 1
EndSplineSet
EndChar

StartChar: semicolon
Encoding: 59 59 29
Width: 184
GlyphClass: 1
Flags: W
HStem: 401.199 119.376<70.3682 172.773>
VStem: 61.8829 119.376<5.21777 105.295 409.685 512.09>
LayerCount: 2
Fore
SplineSet
172.7734375 401.199288938 m 1
 70.3681640625 401.199288938 l 1
 61.8828826883 409.684570312 l 1
 61.8828826883 512.08984375 l 1
 70.3681640625 520.575125124 l 1
 172.7734375 520.575125124 l 1
 181.258718874 512.08984375 l 1
 181.258718874 409.684570312 l 1
 172.7734375 401.199288938 l 1
64.2110076883 5.2177734375 m 1
 64.2110076883 105.294921875 l 1
 72.6962890625 113.780203249 l 1
 172.7734375 113.780203249 l 1
 181.258718874 105.294921875 l 1
 181.258718874 5.2177734375 l 1
 103.757742312 -97.8115234375 l 1
 95.2724609375 -106.296804812 l 1
 28 -106.296804812 l 1
 19.5147186258 -97.8115234375 l 1
 64.2110076883 5.2177734375 l 1
EndSplineSet
EndChar

StartChar: less
Encoding: 60 60 30
Width: 598
GlyphClass: 1
Flags: W
HStem: -8.48528 21G<534.925 590.594>
LayerCount: 2
Fore
SplineSet
21.5147186258 310.16796875 m 2
 22.0077051531 310.437352014 22.167576238 311.039850721 22.0967498758 311.873046875 c 2
 30.58203125 320.358328249 l 1
 32.328125 319.610281374 l 1
 582.108398438 552.694265749 l 1
 590.593679812 544.208984375 l 1
 596.705984499 460.845703125 l 1
 588.220703125 452.360421751 l 1
 148.292001025 272.084906349 l 1
 588.220703125 91.8485626242 l 1
 596.705984499 83.36328125 l 1
 590.593679812 5.37764277553e-17 l 1
 582.108398438 -8.48528137424 l 1
 32.328125 224.556710814 l 1
 30.58203125 223.849679564 l 1
 22.0967498758 232.334960938 l 2
 22.1624017658 233.162657099 22.0116043381 233.773903942 21.5147186258 234.0390625 c 2
 21.8057342508 272.083007812 l 1
 21.5147186258 310.16796875 l 2
EndSplineSet
EndChar

StartChar: equal
Encoding: 61 61 31
Width: 519
GlyphClass: 1
Flags: W
HStem: 133.64 100.791<56.0205 456.995> 341.028 100.791<65.876 466.85>
LayerCount: 2
Fore
SplineSet
-0.486257936739 142.125 m 1
 47.5352264383 225.9453125 l 1
 56.0205078125 234.430593874 l 1
 500.15234375 234.555593874 l 1
 508.637625124 226.0703125 l 1
 465.480398562 142 l 1
 456.995117188 133.514718626 l 1
 7.9990234375 133.639718626 l 1
 -0.486257936739 142.125 l 1
518.493093874 433.458984375 m 1
 475.334890749 349.34765625 l 1
 466.849609375 340.862374876 l 1
 17.853515625 341.028390501 l 1
 9.36823425076 349.513671875 l 1
 57.3906951883 433.333984375 l 1
 65.8759765625 441.819265749 l 1
 510.0078125 441.944265749 l 1
 518.493093874 433.458984375 l 1
EndSplineSet
EndChar

StartChar: greater
Encoding: 62 62 32
Width: 598
GlyphClass: 1
Flags: W
HStem: -8.48528 21G<6.62702 62.2952>
LayerCount: 2
Fore
SplineSet
575.414968874 272.083984375 m 1
 575.705984499 234.0390625 l 2
 575.21304337 233.769959359 575.054303169 233.166655289 575.123953249 232.334960938 c 2
 566.638671875 223.849679564 l 1
 564.892578125 224.556710814 l 1
 15.1123046875 -8.48528137424 l 1
 6.62702331326 1.83013326716e-15 l 1
 0.514718625761 83.36328125 l 1
 9 91.8485626242 l 1
 448.928755674 272.084928299 l 1
 9 452.361398314 l 1
 0.514718625761 460.846679688 l 1
 6.62702331326 544.209960938 l 1
 15.1123046875 552.695242312 l 1
 564.892578125 319.611257936 l 1
 566.638671875 320.359304812 l 1
 575.123953249 311.874023438 l 2
 575.069346035 311.043374558 575.187338467 310.385325323 575.705984499 310.127929688 c 2
 575.414968874 272.083984375 l 1
EndSplineSet
EndChar

StartChar: question
Encoding: 63 63 33
Width: 337
GlyphClass: 1
Flags: W
VStem: 146.704 100.085<9.49121 57.8877 196.341 371.768> 229.068 100.292<426.437 607.241>
LayerCount: 2
Fore
SplineSet
146.538156126 -38.697265625 m 1x80
 146.704171751 57.8876953125 l 1
 155.189453125 66.3729766867 l 1
 238.469726562 114.436453249 l 1
 246.955007936 105.951171875 l 1
 246.788992312 9.4912109375 l 1
 238.303710938 1.00592956326 l 1
 155.0234375 -47.1825469992 l 1
 146.538156126 -38.697265625 l 1x80
154.814453125 666.877859499 m 1
 154.939453125 667.002859499 l 1
 238.219726562 667.002859499 l 1
 321.5 618.939382936 l 1
 329.985281374 610.454101562 l 1
 329.278401027 609.747221215 l 1
 329.278401027 609.747221215 329.31828022 422.939462092 329.360281374 422.897460938 c 2
 320.875 414.412179564 l 1
 247.032707056 371.767737006 l 1
 246.829031374 196.340820312 l 1
 238.34375 187.855538938 l 1
 155.147460938 139.792062376 l 1
 146.662179564 148.27734375 l 1
 146.787179564 375.499023438 l 1
 155.272460938 383.984304812 l 1
 155.521484375 383.984304812 l 1
 229.068429564 426.43696675 l 1
 229.068429564 607.241010589 l 1x40
 217.597777582 613.862496208 l 1
 182.911533521 593.761875527 148.12645093 573.760093375 113.40234375 553.697335814 c 1
 29.998046875 601.843820188 l 1
 21.5127655008 610.329101562 l 1
 29.998046875 618.814382936 l 1
 113.485351562 666.877859499 l 1
 154.814453125 666.877859499 l 1
EndSplineSet
EndChar

StartChar: at
Encoding: 64 64 34
Width: 644
GlyphClass: 1
Flags: W
HStem: 586.389 20.1297<190.898 454.667>
VStem: 18.5147 101.414<-33.3947 545.429> 186.986 101.415<69.4618 252.196 377.174 471.084> 356.332 101.415<70.2509 291.395 313.022 474.965> 525.138 101.373<110.827 545.717>
LayerCount: 2
Fore
SplineSet
186.986398314 255.684570312 m 1
 186.986398314 255.684570312 187.069406126 255.767578125 187.028390501 255.80859375 c 2
 195.513671875 264.293875124 l 1
 279.958007812 313.022390749 l 1
 356.332101438 313.022390749 l 1
 356.332101438 510.019099558 l 1
 288.859304812 471.083992919 l 1
 288.859304812 377.173828125 l 1
 280.374023438 368.688546751 l 1
 195.9296875 368.688546751 l 1
 187.444406126 377.173828125 l 1
 187.444406126 474.672851562 l 1
 195.9296875 483.158132936 l 1
 280.374023438 531.886648562 l 1
 280.374023438 531.886648562 364.81640625 531.886648562 364.817382812 531.887625124 c 2
 449.26171875 483.450125124 l 1
 457.747000124 474.96484375 l 1
 457.747000124 70.2509063742 l 1
 525.137765501 70.2509063742 l 1
 525.137765501 545.716670041 l 1
 454.666992188 586.388742064 l 1
 190.8984375 586.388742064 l 1
 119.928640749 545.428659618 l 1
 119.928640749 -33.3946647804 l 1
 196.38671875 -77.5147186258 l 1
 204.872000124 -86 l 1
 196.38671875 -94.4852813742 l 1
 111.942382812 -94.4852813742 l 1
 27.5400390625 -45.7567657492 l 1
 27 -45.7567657492 l 1
 18.5147186258 -37.271484375 l 1
 18.5147186258 549.3046875 l 1
 27 557.789968874 l 1
 27.5400390625 557.789968874 l 1
 111.942382812 606.518484499 l 1
 533.622070312 606.518484499 l 1
 618.025390625 557.789968874 l 1
 626.510671999 549.3046875 l 1
 626.510671999 110.827148438 l 1
 618.025390625 102.341867064 l 1
 533.623046875 53.2803436258 l 1
 532.999023438 53.9043670633 l 1
 507.194912462 38.3870048978 480.655575957 23.6048682629 454.57296607 8.36600500852 c 1
 449.26171875 3.05475768826 l 1
 364.817382812 3.05475768826 l 1
 356.332101438 11.5400390625 l 1
 356.332101438 11.7060546875 l 1
 355.043038938 12.9951171875 l 1
 356.332101438 14.2841796875 l 1
 356.332101438 47.3433156916 l 1
 280.831054688 3.76178893826 l 1
 280.6640625 3.76178893826 l 1
 279.916015625 3.01374206326 l 1
 195.471679688 3.01374206326 l 1
 186.986398314 11.4990234375 l 1
 186.986398314 255.684570312 l 1
356.332101438 291.394903125 m 1
 288.401296999 252.19550356 l 1
 288.401296999 69.4618438742 l 1
 356.332101438 69.4618438742 l 1
 356.332101438 291.394903125 l 1
EndSplineSet
EndChar

StartChar: A
Encoding: 65 65 35
Width: 330
GlyphClass: 1
Flags: W
HStem: -8.17871 21G<27.5146 130.717 199.979 303.181>
VStem: 27.5146 103.202<0.306641 290.515 352.394 683.848> 199.979 103.202<0.305664 290.515 312.386 643.873>
LayerCount: 2
Fore
SplineSet
208.463867188 705.71484375 m 1
 208.463867188 705.71484375 294.612304688 655.98828125 294.6953125 655.987304688 c 2
 303.180664062 647.501953125 l 1
 303.180664062 0.3056640625 l 1
 294.6953125 -8.1796875 l 1
 208.463867188 -8.1796875 l 1
 199.978515625 0.3056640625 l 1
 199.978515625 290.514648438 l 1
 130.716796875 290.514648438 l 1
 130.716796875 0.306640625 l 1
 122.231445312 -8.1787109375 l 1
 36 -8.1787109375 l 1
 27.5146484375 0.306640625 l 1
 27.5146484375 697.23046875 l 1
 36 705.716796875 l 1
 208.463867188 705.71484375 l 1
199.978515625 643.873046875 m 1
 130.716796875 683.84765625 l 1
 130.716796875 352.393554688 l 1
 199.978515625 312.385742188 l 1
 199.978515625 643.873046875 l 1
EndSplineSet
EndChar

StartChar: B
Encoding: 66 66 36
Width: 352
GlyphClass: 1
Flags: W
VStem: 50.5146 103.971<51.6084 331.638 353.485 657.638> 224.515 102.971<11.3623 291.392 394 617.392>
LayerCount: 2
Fore
SplineSet
319 -10.4853515625 m 1
 146 -10.4853515625 l 1
 60 39.5146484375 l 1
 59 39.5146484375 l 1
 50.5146484375 48 l 1
 50.5146484375 667.448242188 l 1
 16 687.514648438 l 1
 7.5146484375 696 l 1
 16 704.485351562 l 1
 103 704.485351562 l 1
 146 679.485351562 l 1
 233 679.485351562 l 1
 319 629.485351562 l 1
 327.485351562 621 l 1
 327.485351562 394 l 1
 319 385.514648438 l 1
 247.7421875 344.9140625 l 1
 319 303.485351562 l 1
 327.485351562 295 l 1
 327.485351562 -2 l 1
 319 -10.4853515625 l 1
224.514648438 291.391601562 m 1
 154.485351562 331.637695312 l 1
 154.485351562 51.6083984375 l 1
 224.514648438 11.3623046875 l 1
 224.514648438 291.391601562 l 1
154.485351562 353.485351562 m 1
 224.514648438 353.485351562 l 1
 224.514648438 617.391601562 l 1
 154.485351562 657.637695312 l 1
 154.485351562 353.485351562 l 1
EndSplineSet
EndChar

StartChar: C
Encoding: 67 67 37
Width: 293
GlyphClass: 1
Flags: W
HStem: -8.17871 21G<104.014 235.965> 688.584 20G<104.222 236.168>
VStem: 25.5137 100.792<48.3711 652.035>
LayerCount: 2
Fore
SplineSet
284.877929688 643.466796875 m 1
 201.556640625 643.466796875 l 1
 126.666992188 686.719726562 l 1
 126.305664062 298.41796875 l 1
 126.462890625 13.6865234375 l 1
 201.306640625 56.8974609375 l 1
 284.669921875 56.8974609375 l 1
 293.155273438 48.412109375 l 1
 284.669921875 39.9267578125 l 1
 201.306640625 -8.1787109375 l 1
 117.985351562 -8.1787109375 l 1
 90.04296875 7.896484375 61.9853515625 23.85546875 33.9990234375 39.8857421875 c 1
 25.513671875 48.37109375 l 1
 25.697265625 456.749023438 25.697265625 456.749023438 25.72265625 652.03515625 c 1
 34.2080078125 660.520507812 l 1
 62.1943359375 676.549804688 90.2509765625 692.509765625 118.193359375 708.583984375 c 1
 201.556640625 708.583984375 l 1
 284.877929688 660.4375 l 1
 293.36328125 651.952148438 l 1
 284.877929688 643.466796875 l 1
EndSplineSet
EndChar

StartChar: D
Encoding: 68 68 38
Width: 356
GlyphClass: 1
Flags: W
HStem: -7.48535 21G<198.045 324.651> 688.488 20G<15.5156 141.784>
VStem: 57.2598 100.458<57.6738 662.252> 224.193 100.458<57.6738 623.864>
LayerCount: 2
Fore
SplineSet
324.651367188 627.44921875 m 1
 324.651367188 1.2080078125 l 1
 324.546875 1.103515625 l 1
 324.651367188 1 l 1
 316.166015625 -7.4853515625 l 1
 232.678710938 -7.4853515625 l 1
 149.232421875 40.703125 l 1
 65.7451171875 40.703125 l 1
 57.259765625 49.1884765625 l 1
 57.259765625 672.138671875 l 1
 24.0009765625 691.517578125 l 1
 15.515625 700.002929688 l 1
 24.0009765625 708.48828125 l 1
 107.48828125 708.48828125 l 1
 145.989257812 686.036132812 l 1
 145.989257812 686.036132812 149.232421875 684.165039062 149.274414062 684.123046875 c 2
 232.678710938 684.123046875 l 1
 316.166015625 635.934570312 l 1
 324.651367188 627.44921875 l 1
157.717773438 662.251953125 m 1
 157.717773438 57.673828125 l 1
 224.193359375 57.673828125 l 1
 224.193359375 623.864257812 l 1
 157.717773438 662.251953125 l 1
EndSplineSet
EndChar

StartChar: E
Encoding: 69 69 39
Width: 276
GlyphClass: 1
Flags: W
HStem: -8.48438 41.958<181.506 225.037>
VStem: 43.6738 103.16<53.6152 338.979 405.718 658.891>
LayerCount: 2
Fore
SplineSet
146.833984375 405.717773438 m 1
 165.125 405.717773438 l 1
 251.356445312 355.94921875 l 1
 259.841796875 347.463867188 l 1
 251.356445312 338.978515625 l 1
 146.833984375 338.978515625 l 1
 146.833984375 53.615234375 l 1
 181.505859375 33.4736328125 l 1
 225.037109375 33.4736328125 l 1
 268.154296875 8.486328125 l 1
 276.639648438 0.0009765625 l 1
 268.154296875 -8.484375 l 1
 138.390625 -8.484375 l 2
 137.528320312 -7.9833984375 177.951171875 -31.5703125 52.1591796875 41.5751953125 c 1
 43.673828125 50.060546875 l 1
 43.673828125 668.354492188 l 1
 9.0009765625 688.688476562 l 1
 0.515625 697.173828125 l 1
 9.0009765625 705.659179688 l 1
 181.46484375 705.659179688 l 1
 267.696289062 655.890625 l 1
 276.181640625 647.405273438 l 1
 267.696289062 638.919921875 l 1
 181.46484375 638.919921875 l 1
 146.833984375 658.890625 l 1
 146.833984375 405.717773438 l 1
EndSplineSet
EndChar

StartChar: F
Encoding: 70 70 40
Width: 303
GlyphClass: 1
Flags: W
HStem: 341.263 67.0303<144.415 192.184> 666.441 42.084<144.374 178.255>
VStem: 40.7959 103.66<49.5166 341.263 408.293 666.441>
LayerCount: 2
Fore
SplineSet
144.374023438 666.44140625 m 1
 144.4140625 408.29296875 l 1
 192.18359375 408.29296875 l 1
 278.873046875 358.233398438 l 1
 287.358398438 349.748046875 l 1
 278.873046875 341.262695312 l 1
 144.415039062 341.262695312 l 1
 144.456054688 49.5166015625 l 1
 135.970703125 41.03125 l 1
 49.28125 -9.4853515625 l 1
 40.7958984375 -1 l 1
 40.7958984375 671.344726562 l 1
 5.9990234375 691.5546875 l 1
 -2.486328125 700.040039062 l 1
 5.9990234375 708.525390625 l 1
 180.125976562 708.525390625 l 1
 188.611328125 700.040039062 l 1
 180.208984375 708.442382812 l 1
 222.327148438 708.400390625 l 1
 308.849609375 658.423828125 l 1
 317.334960938 649.938476562 l 1
 308.849609375 641.453125 l 1
 222.327148438 641.453125 l 1
 178.254882812 666.44140625 l 1
 144.374023438 666.44140625 l 1
EndSplineSet
EndChar

StartChar: G
Encoding: 71 71 41
Width: 333
GlyphClass: 1
Flags: W
HStem: -8.48535 21G<85.9486 242.063> 688.277 20G<85.5103 241.861>
VStem: 25.5156 103.577<53.5723 386.678 413.446 650.44> 198.728 103.619<53.6885 346.494 550.237 646.189>
LayerCount: 2
Fore
SplineSet
301.930664062 649.358398438 m 1
 301.930664062 550.237304688 l 1
 293.4453125 541.751953125 l 1
 207.213867188 541.751953125 l 1
 198.728515625 550.237304688 l 1
 198.728515625 646.189453125 l 1
 129.092773438 686.40625 l 1
 129.092773438 413.446289062 l 1
 207.213867188 458.5625 l 1
 293.861328125 408.544921875 l 1
 302.346679688 400.059570312 l 1
 302.346679688 49.7265625 l 1
 293.861328125 41.2412109375 l 1
 207.213867188 -8.4853515625 l 1
 120.607421875 -8.4853515625 l 1
 34.0009765625 41.4912109375 l 1
 25.515625 49.9765625 l 1
 25.515625 650.440429688 l 1
 34.0009765625 658.92578125 l 1
 120.608398438 708.27734375 l 1
 207.213867188 708.27734375 l 1
 293.861328125 658.259765625 l 1
 302.346679688 649.774414062 l 1
 301.930664062 649.358398438 l 1
198.727539062 346.494140625 m 1
 129.092773438 386.677734375 l 1
 129.092773438 53.572265625 l 1
 163.84765625 33.5146484375 l 1
 198.727539062 53.6884765625 l 1
 198.727539062 346.494140625 l 1
EndSplineSet
EndChar

StartChar: H
Encoding: 72 72 42
Width: 349
GlyphClass: 1
Flags: W
HStem: -9.25879 21G<43.7549 86.9579 225.785 320.96> 688.171 20G<277.937 321.168>
VStem: 43.9629 103.66<49.2861 289.394 351.483 646.011> 217.3 103.66<0.516602 289.394 311.263 649.667>
LayerCount: 2
Fore
SplineSet
217.299804688 289.393554688 m 1
 147.623046875 289.393554688 l 1
 147.623046875 49.2861328125 l 1
 139.137695312 40.80078125 l 1
 52.240234375 -9.2587890625 l 1
 43.7548828125 -0.7734375 l 1
 43.962890625 49.2861328125 l 1
 43.962890625 646.010742188 l 1
 9 666.251953125 l 1
 0.5146484375 674.737304688 l 1
 9 683.22265625 l 1
 95.7724609375 683.22265625 l 1
 139.137695312 658.068359375 l 1
 147.623046875 649.583007812 l 1
 147.623046875 351.483398438 l 1
 217.299804688 311.262695312 l 1
 217.299804688 649.666992188 l 1
 225.78515625 658.15234375 l 1
 312.682617188 708.170898438 l 1
 321.16796875 699.685546875 l 1
 320.959960938 649.66796875 l 1
 320.959960938 0.267578125 l 1
 312.474609375 -8.2177734375 l 1
 225.78515625 -7.96875 l 1
 217.299804688 0.5166015625 l 1
 217.299804688 289.393554688 l 1
EndSplineSet
EndChar

StartChar: I
Encoding: 73 73 43
Width: 170
GlyphClass: 1
Flags: W
HStem: -8.48438 21G<26.5146 131.048> 688.278 20G<87.5918 130.799>
VStem: 26.8477 103.743<0.000976562 649.691>
LayerCount: 2
Fore
SplineSet
35.3330078125 658.176757812 m 1
 122.313476562 708.278320312 l 1
 130.798828125 699.79296875 l 1
 130.590820312 649.692382812 l 1
 131.047851562 0.0009765625 l 1
 122.5625 -8.484375 l 1
 35 -8.484375 l 1
 26.5146484375 0.0009765625 l 1
 26.666015625 16.7021484375 26.4892578125 33.7314453125 26.84765625 50.2265625 c 2
 26.84765625 649.69140625 l 1
 35.3330078125 658.176757812 l 1
EndSplineSet
EndChar

StartChar: J
Encoding: 74 74 44
Width: 326
GlyphClass: 1
Flags: W
HStem: -8.48535 21G<82.6573 218.062> 688.277 20G<147.621 277.53>
VStem: 22.5146 103.286<53.3984 225.101> 195.353 103.287<53.541 668.891>
LayerCount: 2
Fore
SplineSet
242.421875 708.27734375 m 1
 290.154296875 681.0859375 l 1
 298.639648438 672.600585938 l 1
 298.639648438 49.8095703125 l 1
 290.154296875 41.32421875 l 1
 261.142578125 24.8916015625 232.493164062 8.0966796875 203.630859375 -8.4853515625 c 1
 117.315429688 -8.4853515625 l 1
 31 41.32421875 l 1
 22.5146484375 49.8095703125 l 1
 22.5146484375 225.100585938 l 1
 31 233.5859375 l 1
 117.315429688 233.5859375 l 1
 125.80078125 225.100585938 l 1
 125.80078125 53.3984375 l 1
 160.47265625 33.3896484375 l 1
 195.352539062 53.541015625 l 1
 195.352539062 668.890625 l 1
 156.106445312 691.306640625 l 1
 147.62109375 699.791992188 l 1
 156.106445312 708.27734375 l 1
 242.421875 708.27734375 l 1
EndSplineSet
EndChar

StartChar: K
Encoding: 75 75 45
Width: 384
GlyphClass: 1
Flags: W
HStem: -8.29785 21G<34.999 130.091> 688.74 19.9102G<28.4033 123.495 202.658 332.392>
VStem: 28.4033 102.787<0.420898 386.871 407.628 700.021> 202.657 103.577<52.5635 345.54 448.454 641.703>
LayerCount: 2
Fore
SplineSet
306.235351562 641.703125 m 1
 306.235351562 448.454101562 l 1
 297.75 439.96875 l 1
 225.95703125 399.092773438 l 1
 297.749023438 357.610351562 l 1
 306.234375 349.125 l 1
 306.234375 52.5634765625 l 1
 384.313476562 7.4853515625 l 1
 392.798828125 -1 l 1
 384.313476562 -9.4853515625 l 1
 297.749023438 -9.4853515625 l 1
 268.809570312 7.1025390625 239.939453125 23.759765625 211.142578125 40.4912109375 c 1
 202.657226562 48.9765625 l 1
 202.69921875 345.540039062 l 1
 131.134765625 386.87109375 l 1
 130.090820312 0.1875 l 1
 121.60546875 -8.2978515625 l 1
 34.9990234375 -8.064453125 l 1
 26.513671875 0.4208984375 l 1
 28.4033203125 700.254882812 l 1
 36.888671875 708.740234375 l 1
 123.495117188 708.506835938 l 1
 131.98046875 700.021484375 l 1
 131.190429688 407.627929688 l 1
 202.665039062 407.627929688 l 1
 202.700195312 448.454101562 l 1
 202.658203125 700.165039062 l 1
 211.143554688 708.650390625 l 1
 297.75 708.650390625 l 1
 384.314453125 658.673828125 l 1
 392.799804688 650.188476562 l 1
 384.314453125 641.703125 l 1
 306.235351562 641.703125 l 1
EndSplineSet
EndChar

StartChar: L
Encoding: 76 76 46
Width: 316
GlyphClass: 1
Flags: W
HStem: -7.48438 21G<172.004 250.07> 689.403 20G<35.667 165.017>
VStem: 78.9492 103.535<90.4756 672.143>
LayerCount: 2
Fore
SplineSet
215.452148438 109.521484375 m 1
 302.142578125 59.462890625 l 1
 310.627929688 50.9775390625 l 1
 302.142578125 42.4921875 l 1
 215.328125 -7.484375 l 1
 172.294921875 -7.484375 l 1
 172.00390625 -7.318359375 l 1
 87.5595703125 -7.318359375 l 1
 18 42.658203125 l 1
 9.5146484375 51.1435546875 l 1
 18 59.62890625 l 1
 78.94921875 59.62890625 l 1
 78.94921875 672.142578125 l 1
 44.15234375 692.432617188 l 1
 35.6669921875 700.91796875 l 1
 44.15234375 709.403320312 l 1
 130.716796875 709.403320312 l 1
 173.999023438 684.166015625 l 1
 182.484375 675.680664062 l 1
 182.484375 90.4755859375 l 1
 215.452148438 109.521484375 l 1
EndSplineSet
EndChar

StartChar: M
Encoding: 77 77 47
Width: 541
GlyphClass: 1
Flags: W
HStem: -8.44336 20.958G<27.7217 130.048 215.902 318.229 403.043 505.369> 688.818 20G<27.5137 70.6278 96.2511 258.812 283.419 445.963>
VStem: 27.7217 110.812<0.208008 642.545> 215.902 110.812<0.208008 642.6> 403.043 110.812<0.208008 646.157>
LayerCount: 2
Fore
SplineSet
83.439453125 681.418945312 m 1
 130.879882812 708.818359375 l 1
 224.1796875 708.818359375 l 1
 271.12109375 681.709960938 l 1
 318.020507812 708.818359375 l 1
 411.3203125 708.818359375 l 1
 505.161132812 654.642578125 l 1
 513.646484375 646.157226562 l 1
 513.854492188 0.2080078125 l 1
 505.369140625 -8.27734375 l 1
 411.528320312 -8.4853515625 l 1
 403.04296875 0 l 1
 402.838867188 686.922851562 l 1
 326.506835938 642.599609375 l 1
 326.713867188 0.2080078125 l 1
 318.228515625 -8.27734375 l 1
 224.387695312 -8.4853515625 l 1
 215.90234375 0 l 1
 215.698242188 686.977539062 l 1
 138.326171875 642.544921875 l 1
 138.533203125 0.2080078125 l 1
 130.047851562 -8.27734375 l 1
 36.20703125 -8.443359375 l 1
 27.7216796875 0.0419921875 l 1
 27.513671875 700.333007812 l 1
 35.9990234375 708.818359375 l 1
 83.439453125 681.418945312 l 1
EndSplineSet
EndChar

StartChar: N
Encoding: 78 78 48
Width: 334
GlyphClass: 1
Flags: W
VStem: 27.5977 104.117<-1.79297 656.508> 202.39 104.117<-1.79297 648.106>
LayerCount: 2
Fore
SplineSet
306.423828125 648.106445312 m 1
 306.506835938 -1.79296875 l 1
 298.021484375 -10.2783203125 l 1
 210.875 -10.486328125 l 1
 202.389648438 -2.0009765625 l 1
 202.30859375 685.055664062 l 1
 178.748046875 671.525390625 155.19921875 657.983398438 131.631835938 644.459960938 c 1
 131.71484375 -1.79296875 l 1
 123.229492188 -10.2783203125 l 1
 36.0830078125 -10.4443359375 l 1
 27.59765625 -1.958984375 l 1
 27.5146484375 698.415039062 l 1
 36 706.900390625 l 1
 80.4052734375 681.2890625 l 1
 124.14453125 706.900390625 l 1
 210.791992188 706.900390625 l 1
 297.938476562 656.591796875 l 1
 306.423828125 648.106445312 l 1
EndSplineSet
EndChar

StartChar: O
Encoding: 79 79 49
Width: 330
GlyphClass: 1
Flags: W
HStem: -8.21973 21G<35 242.629> 687.92 20G<86.8681 208.21 208.21 303.012>
VStem: 26.5146 103.493<13.6543 645.914> 199.519 103.493<53.8242 686.049>
LayerCount: 2
Fore
SplineSet
199.518554688 53.82421875 m 1
 199.518554688 686.048828125 l 1
 130.0078125 645.9140625 l 1
 130.0078125 13.654296875 l 1
 199.518554688 53.82421875 l 1
208.209960938 707.711914062 m 1
 294.526367188 707.919921875 l 1
 303.01171875 699.434570312 l 1
 303.01171875 50.2421875 l 1
 294.526367188 41.7568359375 l 1
 208.00390625 -8.2197265625 l 1
 121.522460938 -8.2197265625 l 1
 35 -7.970703125 l 1
 26.5146484375 0.5146484375 l 1
 26.5146484375 649.499023438 l 1
 35 657.984375 l 1
 121.522460938 707.918945312 l 1
 208.00390625 707.918945312 l 1
 208.209960938 707.711914062 l 1
EndSplineSet
EndChar

StartChar: P
Encoding: 80 80 50
Width: 346
GlyphClass: 1
Flags: W
HStem: -8.48438 21G<40.9629 144.581> 688.278 20G<-2.48535 127.218>
VStem: 40.9629 103.618<0.000976562 336.779 358.527 661.68> 214.466 103.619<358.527 621.328>
LayerCount: 2
Fore
SplineSet
6 708.278320312 m 1
 92.771484375 708.278320312 l 1
 135.991210938 683.184570312 l 1
 136.262695312 683.456054688 l 1
 222.91015625 683.456054688 l 1
 251.783203125 666.760742188 280.731445312 650.139648438 309.557617188 633.396484375 c 1
 318.04296875 624.911132812 l 1
 318.084960938 300.024414062 l 1
 309.599609375 291.5390625 l 1
 222.952148438 291.5390625 l 1
 144.581054688 336.779296875 l 1
 144.581054688 0.0009765625 l 1
 136.095703125 -8.484375 l 1
 49.4482421875 -8.484375 l 1
 40.962890625 0.0009765625 l 1
 40.962890625 671.06640625 l 1
 6 691.307617188 l 1
 -2.4853515625 699.79296875 l 1
 6 708.278320312 l 1
144.581054688 358.52734375 m 1
 214.465820312 358.52734375 l 1
 214.42578125 621.328125 l 1
 144.581054688 661.6796875 l 1
 144.581054688 358.52734375 l 1
EndSplineSet
EndChar

StartChar: Q
Encoding: 81 81 51
Width: 334
GlyphClass: 1
Flags: W
HStem: 688.407 20G<88.0027 210.497 210.497 306.422>
VStem: 26.5146 104.616<54.7734 649.321> 201.806 104.616<-161.399 -7.89844 13.9707 686.533>
LayerCount: 2
Fore
SplineSet
201.805664062 686.533203125 m 1
 178.24609375 672.926757812 154.697265625 659.30859375 131.130859375 645.708984375 c 1
 131.130859375 54.7734375 l 1
 201.805664062 13.970703125 l 1
 201.805664062 686.533203125 l 1
210.497070312 708.19921875 m 1
 297.936523438 708.407226562 l 1
 306.421875 699.921875 l 1
 306.421875 -211.999023438 l 1
 297.936523438 -220.484375 l 1
 210.291015625 -169.884765625 l 1
 201.805664062 -161.399414062 l 1
 201.805664062 -7.8984375 l 1
 122.645507812 -7.8984375 l 1
 35 -7.6494140625 l 1
 26.5146484375 0.8359375 l 1
 26.5146484375 649.321289062 l 1
 35 657.806640625 l 1
 122.645507812 708.40625 l 1
 210.291015625 708.40625 l 1
 210.497070312 708.19921875 l 1
EndSplineSet
EndChar

StartChar: R
Encoding: 82 82 52
Width: 359
GlyphClass: 1
Flags: W
HStem: -8.30273 21G<59.0869 102.201 303.773 326.354> 688.585 20G<14.5156 140.638>
VStem: 59.2949 100.334<48.3291 48.3711 48.5791 323.698 345.57 660.554> 225.688 100.001<49.0361 285.364 384.94 622.36>
LayerCount: 2
Fore
SplineSet
106.48828125 708.584960938 m 1
 151.14453125 682.431640625 l 1
 233.83984375 682.72265625 l 1
 317.203125 634.6171875 l 1
 325.688476562 626.131835938 l 1
 325.688476562 384.940429688 l 1
 317.203125 376.455078125 l 1
 249.28515625 337.025390625 l 1
 317.869140625 297.423828125 l 1
 326.354492188 288.938476562 l 1
 326.354492188 0.1826171875 l 1
 317.869140625 -8.302734375 l 1
 289.677734375 7.994140625 261.474609375 24.2783203125 233.258789062 40.55078125 c 1
 224.7734375 49.0361328125 l 1
 226.001953125 285.364257812 l 1
 159.62890625 323.698242188 l 1
 159.62890625 48.3291015625 l 1
 151.143554688 39.84375 l 1
 150.935546875 39.84375 l 1
 67.572265625 -8.302734375 l 1
 59.0869140625 0.1826171875 l 1
 59.0869140625 48.37109375 l 1
 59.294921875 48.5791015625 l 1
 59.294921875 670.41796875 l 1
 23.0009765625 691.614257812 l 1
 14.515625 700.099609375 l 1
 23.0009765625 708.584960938 l 1
 106.48828125 708.584960938 l 1
159.62890625 345.5703125 m 1
 225.6875 345.5703125 l 1
 225.6875 622.360351562 l 1
 159.62890625 660.553710938 l 1
 159.62890625 345.5703125 l 1
EndSplineSet
EndChar

StartChar: S
Encoding: 83 83 53
Width: 339
GlyphClass: 1
Flags: W
HStem: -8.2207 21G<89.1053 244.709> 688.585 20G<88.9977 244.617>
VStem: 28.5146 103.951<415.188 650.372> 201.27 103.951<50.0332 258.317>
LayerCount: 2
Fore
SplineSet
37.2080078125 58.7265625 m 1
 123.73046875 58.7265625 l 1
 201.26953125 13.6796875 l 1
 201.26953125 258.317382812 l 1
 37 353.795898438 l 1
 28.5146484375 362.28125 l 1
 28.5146484375 650.372070312 l 1
 37 658.857421875 l 1
 123.98046875 708.584960938 l 1
 209.962890625 708.584960938 l 1
 296.485351562 658.650390625 l 1
 304.970703125 650.165039062 l 1
 296.485351562 641.6796875 l 1
 209.962890625 641.6796875 l 1
 132.465820312 686.686523438 l 1
 132.465820312 415.1875 l 1
 296.52734375 319.833984375 l 1
 305.012695312 311.348632812 l 1
 305.012695312 249.98046875 l 1
 305.220703125 50.033203125 l 1
 296.735351562 41.5478515625 l 1
 209.754882812 -8.220703125 l 1
 123.73046875 -8.220703125 l 1
 37.2080078125 41.755859375 l 1
 28.72265625 50.2412109375 l 1
 37.2080078125 58.7265625 l 1
EndSplineSet
EndChar

StartChar: T
Encoding: 84 84 54
Width: 434
GlyphClass: 1
Flags: W
VStem: 166.562 102.288<-1 646.796>
LayerCount: 2
Fore
SplineSet
368.215820312 706.737304688 m 1
 451.206054688 658.963867188 l 1
 459.69140625 650.478515625 l 1
 451.206054688 641.993164062 l 1
 365.763671875 592.682617188 l 1
 270.384765625 647.731445312 l 1
 268.849609375 646.845703125 l 1
 268.849609375 -1 l 1
 260.364257812 -9.4853515625 l 1
 175.046875 -9.4853515625 l 1
 166.561523438 -1 l 1
 166.561523438 646.795898438 l 1
 164.361328125 648.064453125 l 1
 68.400390625 592.68359375 l 1
 -17 641.994140625 l 1
 -25.4853515625 650.479492188 l 1
 -17 658.96484375 l 1
 65.947265625 706.737304688 l 1
 368.215820312 706.737304688 l 1
EndSplineSet
EndChar

StartChar: U
Encoding: 85 85 55
Width: 324
GlyphClass: 1
Flags: W
HStem: -8.48535 21G<27.5146 154.664> 688.651 19.876G<27.5146 128.514 195.571 296.57>
VStem: 27.5146 100.999<57.0068 700.166> 195.571 100.999<57.0068 700.042>
LayerCount: 2
Fore
SplineSet
27.6396484375 0.125 m 1
 27.5146484375 0.2490234375 l 1
 27.5146484375 700.166015625 l 1
 36 708.651367188 l 1
 120.028320312 708.651367188 l 1
 128.513671875 700.166015625 l 1
 128.513671875 57.0068359375 l 1
 195.571289062 57.0068359375 l 1
 195.571289062 700.041992188 l 1
 204.056640625 708.52734375 l 1
 288.084960938 708.52734375 l 1
 296.5703125 700.041992188 l 1
 296.5703125 48.521484375 l 1
 288.084960938 40.0361328125 l 1
 204.056640625 40.0361328125 l 1
 120.028320312 -8.4853515625 l 1
 36 -8.4853515625 l 1
 27.5146484375 0 l 1
 27.6396484375 0.125 l 1
EndSplineSet
EndChar

StartChar: V
Encoding: 86 86 56
Width: 322
GlyphClass: 1
Flags: W
VStem: 26.5137 100.875<365.72 652.979> 194.324 100.87<211.051 653.062>
LayerCount: 2
Fore
SplineSet
202.848632812 709.986328125 m 1
 286.708984375 661.547851562 l 1
 295.194335938 653.0625 l 1
 295.194335938 1.9990234375 l 1
 286.708984375 -6.486328125 l 1
 202.805664062 42.201171875 l 1
 194.3203125 50.6865234375 l 1
 26.513671875 365.719726562 l 1
 26.5556640625 701.416992188 l 1
 35.041015625 709.90234375 l 1
 118.903320312 661.46484375 l 1
 127.388671875 652.979492188 l 1
 127.388671875 365.719726562 l 1
 194.32421875 211.05078125 l 1
 194.36328125 701.500976562 l 1
 202.848632812 709.986328125 l 1
EndSplineSet
EndChar

StartChar: W
Encoding: 87 87 57
Width: 551
GlyphClass: 1
Flags: W
HStem: -8.44336 21G<94.4057 257.002 281.494 444.139 469.71 512.854> 688.818 20G<35 137.326 222.141 324.467 410.32 512.646>
VStem: 26.7227 110.808<54.2178 700.125> 213.862 110.768<57.7754 700.125> 402.042 110.812<57.832 700.125>
LayerCount: 2
Fore
SplineSet
129.048828125 -8.443359375 m 1
 35.2080078125 45.732421875 l 1
 26.72265625 54.2177734375 l 1
 26.5146484375 700.125 l 1
 35 708.610351562 l 1
 128.840820312 708.818359375 l 1
 137.326171875 700.333007812 l 1
 137.530273438 13.4521484375 l 1
 213.862304688 57.775390625 l 1
 213.655273438 700.125 l 1
 222.140625 708.610351562 l 1
 315.981445312 708.818359375 l 1
 324.466796875 700.333007812 l 1
 324.629882812 13.396484375 l 1
 402.041992188 57.83203125 l 1
 401.834960938 700.125 l 1
 410.3203125 708.610351562 l 1
 504.161132812 708.818359375 l 1
 512.646484375 700.333007812 l 1
 512.854492188 0.0009765625 l 1
 504.369140625 -8.484375 l 1
 456.887695312 18.9150390625 l 1
 409.489257812 -8.443359375 l 1
 316.147460938 -8.443359375 l 1
 269.248046875 18.6240234375 l 1
 222.348632812 -8.443359375 l 1
 129.048828125 -8.443359375 l 1
EndSplineSet
EndChar

StartChar: X
Encoding: 88 88 58
Width: 329
GlyphClass: 1
Flags: W
VStem: 26.1797 103.161<46.3899 292.17 358.97 644.885> 198.526 103.154<46.084 331.999 398.843 645.758>
LayerCount: 2
Fore
SplineSet
301.430664062 345.484375 m 1
 302.302734375 -3.642578125 l 1
 293.817382812 -12.1279296875 l 1
 207.668945312 37.5986328125 l 1
 199.18359375 46.083984375 l 1
 198.349609375 331.999023438 l 1
 129.340820312 292.169921875 l 1
 129.340820312 -3.517578125 l 1
 120.85546875 -12.0029296875 l 1
 34.748046875 37.7236328125 l 1
 26.2626953125 46.208984375 l 1
 26.2626953125 46.208984375 26.1796875 295.7578125 26.1796875 295.840820312 c 2
 34.6650390625 304.326171875 l 1
 34.873046875 304.326171875 l 1
 91.462890625 336.999023438 l 1
 34.873046875 336.999023438 l 1
 26.3876953125 345.484375 l 1
 25.5146484375 694.653320312 l 1
 34 703.138671875 l 1
 120.107421875 653.370117188 l 1
 128.592773438 644.884765625 l 1
 129.466796875 358.969726562 l 1
 198.526367188 398.842773438 l 1
 198.9765625 645.7578125 l 1
 207.461914062 654.243164062 l 1
 293.569335938 703.969726562 l 1
 302.0546875 695.484375 l 1
 301.680664062 395.252929688 l 1
 293.1953125 386.767578125 l 1
 236.39453125 353.969726562 l 1
 292.9453125 353.969726562 l 1
 301.430664062 345.484375 l 1
EndSplineSet
EndChar

StartChar: Y
Encoding: 89 89 59
Width: 313
GlyphClass: 1
Flags: W
HStem: 688.377 20G<251.285 294.384>
VStem: 16.8887 103.611<403.494 651.62> 103.328 103.535<48.9941 340.491> 189.976 103.535<363.341 649.874>
LayerCount: 2
Fore
SplineSet
199.334960938 658.359375 m 1xd0
 285.8984375 708.376953125 l 1
 294.383789062 699.891601562 l 1
 293.510742188 348.9765625 l 1xd0
 285.025390625 340.491210938 l 1
 207.711914062 340.491210938 l 1
 206.86328125 48.994140625 l 1
 198.377929688 40.5087890625 l 1
 111.813476562 -9.5087890625 l 1
 103.328125 -1.0234375 l 1xa0
 104.19140625 345.926757812 l 1
 25.3740234375 391.423828125 l 1
 16.888671875 399.909179688 l 1
 16.5146484375 701.637695312 l 1
 25 710.123046875 l 1
 111.564453125 660.10546875 l 1
 120.049804688 651.620117188 l 1
 120.5 403.494140625 l 1
 189.975585938 363.340820312 l 1
 190.849609375 649.874023438 l 1
 199.334960938 658.359375 l 1xd0
EndSplineSet
EndChar

StartChar: Z
Encoding: 90 90 60
Width: 355
GlyphClass: 1
Flags: W
HStem: -8.48535 21G<94.6489 216.629> 688.277 20G<87.8213 247.344>
VStem: 37.8418 100.583<51.4717 286.755> 203.861 100.583<389.751 648.309>
LayerCount: 2
Fore
SplineSet
338.284179688 39.9111328125 m 1
 254.46484375 -8.3603515625 l 1
 216.62890625 -8.3603515625 l 1
 216.50390625 -8.4853515625 l 1
 129.274414062 -8.4853515625 l 1
 45.703125 39.7861328125 l 1
 37.2177734375 48.271484375 l 1
 37.9248046875 48.978515625 l 1
 37.9248046875 48.978515625 37.841796875 290.3359375 37.841796875 290.418945312 c 2
 46.3271484375 298.904296875 l 1
 46.53515625 298.904296875 l 1
 114.594726562 338.2265625 l 1
 88.154296875 353.780273438 l 1
 79.6689453125 362.265625 l 1
 88.154296875 370.750976562 l 1
 129.939453125 395.323242188 l 1
 171.392578125 371 l 1
 203.861328125 389.750976562 l 1
 203.861328125 648.30859375 l 1
 192.47265625 654.884765625 l 1
 157.29296875 635.04296875 122.66796875 614.646484375 87.6962890625 594.596679688 c 1
 4.0009765625 642.91015625 l 1
 -4.484375 651.395507812 l 1
 4.0009765625 659.880859375 l 1
 87.8212890625 708.15234375 l 1
 213.01171875 708.27734375 l 1
 295.875976562 660.005859375 l 1
 304.361328125 651.520507812 l 1
 304.444335938 388.001953125 l 1
 305.608398438 386.837890625 l 1
 297.123046875 378.352539062 l 1
 227.423828125 338.11328125 l 1
 254.672851562 322.10546875 l 1
 263.158203125 313.620117188 l 1
 254.672851562 305.134765625 l 1
 212.346679688 280.6875 l 1
 170.51953125 305.301757812 l 1
 138.424804688 286.754882812 l 1
 138.424804688 51.4716796875 l 1
 149.979492188 44.783203125 l 2
 150.318359375 45.0576171875 150.751953125 45.23828125 151.12890625 45.4755859375 c 2
 151.12890625 45.4755859375 151.2265625 45.5732421875 151.268554688 45.5732421875 c 2
 254.588867188 105.1953125 l 1
 338.284179688 56.8818359375 l 1
 346.76953125 48.396484375 l 1
 338.284179688 39.9111328125 l 1
EndSplineSet
EndChar

StartChar: bracketleft
Encoding: 91 91 61
Width: 289
GlyphClass: 1
Flags: W
HStem: -8.4843 100.244<153.78 209.199> 806.233 100.203<153.78 210.862>
VStem: 21.5147 132.265<91.76 806.233>
LayerCount: 2
Fore
SplineSet
217.684500124 83.23828125 m 1
 265.706961062 0.0009765625 l 1
 257.221679688 -8.48430481174 l 1
 30 -8.48430481174 l 1
 21.5147186258 0.000976562500002 l 1
 21.5147186258 897.993164062 l 1
 30 906.478445436 l 1
 30 906.478445436 145.294921875 906.478445436 145.336898544 906.436468767 c 2
 258.884765625 906.478445436 l 1
 267.370046999 897.993164062 l 1
 219.347586062 814.754882812 l 1
 210.862304688 806.269601438 l 1
 153.780203249 806.233043592 l 1
 153.780203249 91.7599790438 l 1
 209.19921875 91.7235626242 l 1
 217.684500124 83.23828125 l 1
EndSplineSet
EndChar

StartChar: backslash
Encoding: 92 92 62
Width: 382
GlyphClass: 1
Flags: W
HStem: -8.48528 21G<259.838 360.421> 688.319 20G<21.5157 122.099>
LayerCount: 2
Fore
SplineSet
351.935546875 -8.48528137424 m 1
 268.323242188 -8.48528137424 l 1
 259.837960814 1.83013326716e-15 l 1
 21.5156951883 699.833984375 l 1
 30.0009765625 708.319265749 l 1
 113.61328125 708.319265749 l 1
 122.098562624 699.833984375 l 1
 360.420828249 5.37764277553e-17 l 1
 351.935546875 -8.48528137424 l 1
EndSplineSet
EndChar

StartChar: bracketright
Encoding: 93 93 63
Width: 289
GlyphClass: 1
Flags: W
HStem: -8.48626 100.209<78.0635 135.146> 806.269 100.209<79.7266 135.146>
VStem: 135.146 132.224<91.7591 806.232>
LayerCount: 2
Fore
SplineSet
258.884765625 906.476492312 m 1
 267.370046999 897.991210938 l 1
 267.370046999 -0.0009765625 l 1
 258.884765625 -8.48625793674 l 1
 143.631835938 -8.48625793674 l 1
 143.548888718 -8.403310717 l 1
 30 -8.48625793674 l 1
 21.5147186258 -0.000976562499998 l 1
 69.5781951883 83.2373046875 l 1
 78.0634765625 91.7225860617 l 1
 135.145578001 91.7591439081 l 1
 135.145578001 806.232208456 l 1
 79.7265625 806.268624876 l 1
 71.2412811258 814.75390625 l 1
 23.1778045633 897.9921875 l 1
 31.6630859375 906.477468874 l 1
 143.589859493 906.435492429 l 2
 143.631835938 906.477468874 258.884765625 906.476492312 258.884765625 906.476492312 c 1
EndSplineSet
EndChar

StartChar: underscore
Encoding: 95 95 64
Width: 600
GlyphClass: 1
Flags: W
HStem: -8.48528 91.8104<10 589.01>
LayerCount: 2
Fore
SplineSet
589.009765625 -8.48528137424 m 1
 10 -8.48528137424 l 1
 1.51471862576 1.83013326716e-15 l 1
 1.51471862576 74.83984375 l 1
 10 83.3251251242 l 1
 589.009765625 83.3251251242 l 1
 597.495046999 74.83984375 l 1
 597.495046999 5.37764277553e-17 l 1
 589.009765625 -8.48528137424 l 1
EndSplineSet
EndChar

StartChar: grave
Encoding: 96 96 65
Width: 311
GlyphClass: 1
Flags: W
HStem: 677.515 89.4823
VStem: 21.5147 268.182
LayerCount: 2
Fore
SplineSet
30 766.997000124 m 1
 155.60546875 766.997000124 l 1
 281.2109375 694.485281374 l 1
 289.696218874 686 l 1
 281.2109375 677.514718626 l 1
 155.60546875 677.514718626 l 1
 30 750.026437376 l 1
 21.5147186258 758.51171875 l 1
 30 766.997000124 l 1
EndSplineSet
EndChar

StartChar: a
Encoding: 97 97 66
Width: 362
GlyphClass: 1
Flags: W
HStem: -8.40234 21G<18.5146 111.402 186.238 292.155> 495.565 20G<194.723 229.594>
VStem: 18.5566 100.583<57.5049 238.382 362.223 455.219> 186.238 100.625<57.5049 277.146 298.779 459.1>
LayerCount: 2
Fore
SplineSet
286.86328125 57.08984375 m 1
 311.905273438 57.08984375 336.948242188 57.0888671875 361.990234375 57.0888671875 c 1
 370.475585938 48.603515625 l 1
 361.990234375 40.1181640625 l 1
 334.171875 23.892578125 305.932617188 8.0869140625 278.377929688 -8.40234375 c 1
 194.723632812 -8.40234375 l 1
 186.23828125 0.0830078125 l 1
 186.23828125 35.3876953125 l 1
 111.52734375 -7.7373046875 l 1
 111.40234375 -7.7373046875 l 1
 110.654296875 -8.4853515625 l 1
 27 -8.4853515625 l 1
 18.5146484375 0 l 1
 18.5146484375 0 18.5146484375 241.856445312 18.556640625 241.8984375 c 2
 18.556640625 242.022460938 l 1
 27.0419921875 250.5078125 l 1
 110.654296875 298.779296875 l 1
 186.23828125 298.779296875 l 1
 186.23828125 493.697265625 l 1
 119.5546875 455.21875 l 1
 119.5546875 362.22265625 l 1
 111.069335938 353.737304688 l 1
 27.45703125 353.737304688 l 1
 18.9716796875 362.22265625 l 1
 18.9716796875 458.807617188 l 1
 27.45703125 467.29296875 l 1
 111.069335938 515.564453125 l 1
 111.069335938 515.564453125 194.72265625 515.564453125 194.723632812 515.565429688 c 6
 278.377929688 467.584960938 l 1
 286.86328125 459.099609375 l 1
 286.86328125 57.08984375 l 1
186.23828125 57.5048828125 m 1
 186.23828125 277.146484375 l 1
 119.139648438 238.381835938 l 1
 119.139648438 57.5048828125 l 1
 186.23828125 57.5048828125 l 1
EndSplineSet
EndChar

StartChar: b
Encoding: 98 98 67
Width: 317
GlyphClass: 1
Flags: W
HStem: -7.48535 21G<24.5156 124.974> 688.695 20G<81.6274 124.974>
VStem: 24.5156 100.458<1 36.2178 58.1729 494.088 516.024 652.312> 192.156 100.458<58.1729 454.788>
LayerCount: 2
Fore
SplineSet
124.973632812 516.024414062 m 1
 199.975585938 516.024414062 l 1
 228.028320312 499.616210938 256.051757812 483.1796875 284.12890625 466.796875 c 1
 292.614257812 458.311523438 l 1
 292.614257812 1.4990234375 l 1
 284.129882812 -6.986328125 l 1
 199.768554688 -6.986328125 l 1
 124.973632812 36.2177734375 l 1
 124.973632812 1 l 1
 116.48828125 -7.4853515625 l 1
 33.0009765625 -7.4853515625 l 1
 24.515625 1 l 1
 24.515625 652.3125 l 1
 33.0009765625 660.797851562 l 1
 116.48828125 708.6953125 l 1
 124.973632812 700.209960938 l 1
 124.973632812 516.024414062 l 1
192.120117188 454.788085938 m 1
 124.973632812 494.087890625 l 1
 124.973632812 58.1728515625 l 1
 192.15625 58.1728515625 l 1
 192.15625 432.159179688 l 1
 192.120117188 454.788085938 l 1
EndSplineSet
EndChar

StartChar: c
Encoding: 99 99 68
Width: 297
GlyphClass: 1
Flags: W
HStem: -8.18555 21G<79.2458 231.654> 495.99 20G<79.0995 114.152>
VStem: 21.5146 100.5<49.0283 458.983>
LayerCount: 2
Fore
SplineSet
280.545898438 450.166015625 m 1
 197.016601562 450.166015625 l 1
 122.014648438 493.494140625 l 1
 122.014648438 13.6875 l 1
 197.016601562 57.015625 l 1
 280.545898438 57.015625 l 1
 289.03125 48.5302734375 l 1
 280.545898438 40.044921875 l 1
 197.016601562 -8.185546875 l 1
 113.529296875 -8.185546875 l 1
 30 40.54296875 l 1
 21.5146484375 49.0283203125 l 1
 21.5146484375 458.983398438 l 1
 30 467.46875 l 1
 113.529296875 515.990234375 l 1
 114.15234375 515.3671875 l 1
 197.016601562 515.3671875 l 1
 280.545898438 467.13671875 l 1
 289.03125 458.651367188 l 1
 280.545898438 450.166015625 l 1
EndSplineSet
EndChar

StartChar: d
Encoding: 100 100 69
Width: 368
GlyphClass: 1
Flags: W
HStem: -8.0293 20.543G<23.5156 151.219 191.571 297.543> 689.358 20G<191.571 234.913>
VStem: 23.5576 100.624<57.2559 454.785> 191.571 100.666<57.2559 493.68 515.19 652.851>
LayerCount: 2
Fore
SplineSet
191.571289062 57.255859375 m 1
 191.571289062 493.6796875 l 1
 124.223632812 454.786132812 l 1
 124.223632812 454.786132812 124.223632812 453.154296875 124.181640625 453.112304688 c 2
 124.181640625 57.255859375 l 1
 191.571289062 57.255859375 l 1
191.571289062 515.190429688 m 1
 191.571289062 700.873046875 l 1
 200.056640625 709.358398438 l 1
 283.751953125 661.3359375 l 1
 292.237304688 652.850585938 l 1
 292.237304688 57.0478515625 l 1
 317.307617188 57.0478515625 342.376953125 57.046875 367.447265625 57.046875 c 1
 375.932617188 48.5615234375 l 1
 367.447265625 40.076171875 l 1
 339.6015625 23.8359375 311.334960938 8.0166015625 283.751953125 -8.486328125 c 1
 200.056640625 -8.486328125 l 1
 191.571289062 -0.0009765625 l 1
 191.571289062 35.26171875 l 1
 116.569335938 -8.029296875 l 1
 32.0009765625 -8.029296875 l 1
 23.515625 0.4560546875 l 1
 23.515625 0.4560546875 23.515625 458.266601562 23.5576171875 458.391601562 c 2
 32.04296875 466.876953125 l 1
 115.73828125 515.190429688 l 1
 191.571289062 515.190429688 l 1
EndSplineSet
EndChar

StartChar: e
Encoding: 101 101 70
AltUni2: 0000eb.ffffffff.0 0000eb.ffffffff.0
Width: 320
GlyphClass: 1
Flags: W
HStem: -8.48535 21G<79.1847 231.956> 495.649 19.875G<79.0646 114.611 114.611 212.828>
VStem: 21.5576 101.067<48.1055 252.532 274.125 459.142> 190.444 100.625<274.125 455.121>
LayerCount: 2
Fore
SplineSet
291.02734375 458.725585938 m 1
 291.069335938 216.578125 l 1
 282.583984375 208.092773438 l 1
 198.9296875 208.092773438 l 1
 198.181640625 208.840820312 l 1
 198.014648438 208.840820312 l 1
 122.36328125 252.532226562 l 1
 122.625 13.40625 l 1
 197.309570312 56.798828125 l 1
 281.004882812 56.798828125 l 1
 289.490234375 48.3134765625 l 1
 281.004882812 39.828125 l 1
 197.309570312 -8.4853515625 l 1
 114.154296875 -8.4853515625 l 1
 30.04296875 39.6201171875 l 1
 21.5576171875 48.10546875 l 1
 21.515625 265.639648438 l 1
 21.7646484375 459.141601562 l 1
 30.25 467.626953125 l 1
 113.904296875 515.649414062 l 1
 114.611328125 514.942382812 l 1
 115.192382812 515.524414062 l 1
 198.887695312 515.524414062 l 1
 226.767578125 499.415039062 254.694335938 483.352539062 282.541992188 467.2109375 c 1
 291.02734375 458.725585938 l 1
122.37890625 494.405273438 m 1
 122.188476562 274.125 l 1
 190.444335938 274.125 l 1
 190.444335938 453.778320312 l 1
 190.432617188 455.12109375 l 1
 122.37890625 494.405273438 l 1
EndSplineSet
EndChar

StartChar: f
Encoding: 102 102 71
Width: 288
GlyphClass: 1
Flags: W
HStem: -8.14355 21G<142.611 185.586> 688.619 20G<142.253 295.326>
VStem: 85.0859 100.5<48.7793 402.103 467.344 652.194>
LayerCount: 2
Fore
SplineSet
185.5859375 402.102539062 m 1
 185.5859375 0.341796875 l 1
 177.100585938 -8.1435546875 l 1
 93.5712890625 40.2939453125 l 1
 85.0859375 48.779296875 l 1
 85.0859375 407.002929688 l 1
 10 450.373046875 l 1
 1.5146484375 458.858398438 l 1
 10 467.34375 l 1
 85.0859375 467.34375 l 1
 85.0859375 652.194335938 l 1
 93.5712890625 660.6796875 l 1
 177.100585938 708.619140625 l 1
 260.670898438 708.619140625 l 1
 344.2421875 660.388671875 l 1
 352.727539062 651.903320312 l 1
 344.2421875 643.41796875 l 1
 260.670898438 643.41796875 l 1
 185.5859375 686.750976562 l 1
 185.5859375 462.443359375 l 1
 260.671875 419.073242188 l 1
 269.157226562 410.587890625 l 1
 260.671875 402.102539062 l 1
 185.5859375 402.102539062 l 1
EndSplineSet
EndChar

StartChar: g
Encoding: 103 103 72
Width: 315
GlyphClass: 1
Flags: W
HStem: -236.485 21G<81.0274 198.979> -7.60059 21G<23.7656 150.532> 496.409 20G<198.769 199.143>
VStem: 23.7656 100.626<57.6416 455.887> 190.491 100.668<-179.729 35.4805 57.6416 459.901>
LayerCount: 2
Fore
SplineSet
23.765625 459.360351562 m 1
 23.765625 459.360351562 23.8486328125 459.443359375 23.806640625 459.485351562 c 2
 32.2919921875 467.970703125 l 1
 115.946289062 516.284179688 l 1
 198.768554688 516.284179688 l 1
 198.893554688 516.409179688 l 1
 199.142578125 516.284179688 l 1
 199.599609375 516.284179688 l 1
 200.229492188 515.654296875 l 1
 282.546875 468.38671875 l 1
 291.032226562 459.901367188 l 1
 291.159179688 -179.728515625 l 1
 282.673828125 -188.213867188 l 1
 282.673828125 -188.213867188 199.01953125 -236.360351562 198.978515625 -236.319335938 c 1
 198.8125 -236.485351562 l 1
 115.657226562 -236.485351562 l 1
 32.0029296875 -188.171875 l 1
 23.517578125 -179.686523438 l 1
 32.0029296875 -171.201171875 l 1
 115.657226562 -171.201171875 l 1
 190.532226562 -214.704101562 l 1
 190.494140625 35.48046875 l 1
 115.905273438 -7.6005859375 l 1
 32.2509765625 -7.6005859375 l 1
 23.765625 0.884765625 l 1
 23.765625 459.360351562 l 1
190.413085938 494 m 1
 124.391601562 455.88671875 l 1
 124.391601562 57.6416015625 l 1
 190.491210938 57.6416015625 l 1
 190.413085938 494 l 1
EndSplineSet
EndChar

StartChar: h
Encoding: 104 104 73
Width: 370
GlyphClass: 1
Flags: W
HStem: -8.48438 21G<271.737 377.805> 689.612 20G<25.4043 69.1605>
VStem: 23.5146 100.583<1.41797 496.09 516.74 654> 193.608 100.583<51.8594 456.4>
LayerCount: 2
Fore
SplineSet
193.608398438 456.4 m 1
 124.890625 496.09 l 1
 124.09765625 1.1923828125 l 1
 115.612304688 -7.29296875 l 1
 32 -7.0673828125 l 1
 23.5146484375 1.41796875 l 1
 25.404296875 701.126953125 l 1
 33.8896484375 709.612304688 l 1
 117 662.485351562 l 1
 125.485351562 654 l 1
 124.934570312 516.74 l 1
 202.09375 516.74 l 1
 285.706054688 468.47 l 5
 294.19140625 459.99 l 1
 294.19140625 51.859375 l 1
 369.319335938 8.486328125 l 1
 377.8046875 0.0009765625 l 1
 369.319335938 -8.484375 l 1
 285.70703125 -8.484375 l 1
 257.767578125 7.5380859375 229.89453125 23.626953125 202.09375 39.787109375 c 1
 193.608398438 48.2724609375 l 1
 193.608398438 456.4 l 1
EndSplineSet
EndChar

StartChar: i
Encoding: 105 105 74
AltUni2: 0000ef.ffffffff.0 0000ef.ffffffff.0
Width: 156
GlyphClass: 1
Flags: W
HStem: 495.604 20G<84.4511 122.28> 688.275 20G<84.473 122.28>
VStem: 22.5977 99.5123<-0.875 450.823 586.782 643.452>
LayerCount: 2
Fore
SplineSet
122.28 699.790039062 m 1
 122.07 586.782226562 l 1
 113.58 578.296875 l 1
 30.9990234375 521.79296875 l 1
 22.513671875 530.278320312 l 1
 22.7216796875 643.452148438 l 1
 31.20703125 651.9375 l 1
 113.79 708.275390625 l 1
 122.28 699.790039062 l 1
22.59765625 -0.875 m 1
 22.7216796875 450.823242188 l 1
 31.20703125 459.30859375 l 1
 113.79 515.604492188 l 1
 122.28 507.12 l 1
 122.11 -1 l 1
 113.62 -9.4853515625 l 1
 31.0830078125 -9.3603515625 l 1
 22.59765625 -0.875 l 1
EndSplineSet
EndChar

StartChar: j
Encoding: 106 106 75
Width: 231
GlyphClass: 1
Flags: W
VStem: -124.486 115.109<-143.739 -70.49> 87.6865 123.74<-147.923 407.471>
LayerCount: 2
Fore
SplineSet
211.260742188 407.470703125 m 1
 211.426757812 -147.922851562 l 1
 202.94140625 -156.408203125 l 1
 96.1689453125 -217.486328125 l 1
 -9.396484375 -217.486328125 l 1
 -115.626953125 -156.159179688 l 1
 -116.000976562 -156.159179688 l 1
 -124.486328125 -147.673828125 l 1
 -124.486328125 -70.49 l 5
 -116.000976562 -62 l 1
 -18.6259765625 -62 l 1
 -10.140625 -70.49 l 1
 -9.376953125 -143.739257812 l 1
 87.6865234375 -195.953125 l 1
 87.8095703125 492.206054688 l 1
 96.294921875 500.69140625 l 1
 202.775390625 415.956054688 l 1
 211.260742188 407.470703125 l 1
EndSplineSet
EndChar

StartChar: k
Encoding: 107 107 76
Width: 369
GlyphClass: 1
Flags: W
HStem: 495.992 20G<192.32 319.37> 688.619 20G<82.283 125.43>
VStem: 24.5137 100.916<-0.780273 277.084 298.997 651.696> 192.404 100.874<47.4082 238.448 340.573 450.504>
LayerCount: 2
Fore
SplineSet
125.4296875 298.997070312 m 1
 192.284179688 298.997070312 l 1
 192.3203125 340.573242188 l 1
 192.3203125 507.506835938 l 1
 200.805664062 515.9921875 l 1
 284.708984375 515.9921875 l 1
 368.654296875 467.5546875 l 1
 377.139648438 459.069335938 l 1
 368.654296875 450.583984375 l 1
 293.194335938 450.583984375 l 1
 293.194335938 450.583984375 293.194335938 340.615234375 293.236328125 340.573242188 c 2
 284.750976562 332.087890625 l 1
 213.624023438 291.594726562 l 1
 284.750976562 250.51953125 l 1
 293.236328125 242.034179688 l 1
 293.278320312 -1.0703125 l 1
 284.79296875 -9.5556640625 l 1
 256.762695312 6.541015625 228.79296875 22.69921875 200.889648438 38.9228515625 c 1
 192.404296875 47.408203125 l 1
 192.323242188 238.448242188 l 1
 125.4296875 277.083984375 l 1
 125.4296875 -1.029296875 l 1
 116.944335938 -9.5146484375 l 1
 32.9990234375 -9.265625 l 1
 24.513671875 -0.7802734375 l 1
 24.513671875 651.696289062 l 1
 32.9990234375 660.181640625 l 1
 116.944335938 708.619140625 l 1
 125.4296875 700.133789062 l 1
 125.4296875 298.997070312 l 1
EndSplineSet
EndChar

StartChar: l
Encoding: 108 108 77
Width: 162
GlyphClass: 1
Flags: W
HStem: -8.48535 21G<26.5146 70> 688.66 20G<26.5146 69.873>
VStem: 26.5146 100.971<48 652>
LayerCount: 2
Fore
SplineSet
127.485351562 652 m 1
 127.485351562 48 l 1
 119 39.5146484375 l 1
 35 -8.4853515625 l 1
 26.5146484375 0 l 1
 26.5146484375 700.174804688 l 1
 35 708.66015625 l 1
 119 660.485351562 l 1
 127.485351562 652 l 1
EndSplineSet
EndChar

StartChar: m
Encoding: 109 109 78
Width: 481
GlyphClass: 1
Flags: W
HStem: 496.365 20G<24.5156 67.6583 95.6597 117.112 365.621 400.253>
VStem: 24.5156 100.126<4.16699 456.246> 191.283 100.126<4.16602 456.758> 357.136 100.126<4.16602 459.856>
LayerCount: 2
Fore
SplineSet
75.0771484375 492.083007812 m 6
 75.115234375 492.103515625 74.20703125 491.608398438 117.112304688 516.365234375 c 5
 117.112304688 516.365234375 199.768554688 516.365234375 199.770507812 516.36328125 c 6
 241.345703125 492.33203125 l 5
 282.923828125 516.36328125 l 5
 282.923828125 516.36328125 365.620117188 516.36328125 365.62109375 516.364257812 c 6
 448.776367188 468.341796875 l 5
 457.26171875 459.856445312 l 5
 457.26171875 4.166015625 l 5
 448.776367188 -4.3193359375 l 5
 365.62109375 -4.4853515625 l 5
 357.135742188 4 l 5
 357.135742188 494.517578125 l 5
 291.409179688 456.7578125 l 5
 291.409179688 4.166015625 l 5
 282.923828125 -4.3193359375 l 5
 199.768554688 -4.4853515625 l 5
 191.283203125 4 l 5
 191.283203125 494.521484375 l 5
 124.641601562 456.24609375 l 5
 124.641601562 4.1669921875 l 5
 116.15625 -4.318359375 l 5
 33.0009765625 -4.443359375 l 5
 24.515625 4.0419921875 l 5
 24.515625 507.87890625 l 5
 33.0009765625 516.364257812 l 5
 75.0771484375 492.083007812 l 6
EndSplineSet
EndChar

StartChar: n
Encoding: 110 110 79
Width: 318
GlyphClass: 1
Flags: W
HStem: 495.604 20G<24.5146 67.6614 83.5942 236.149>
VStem: 24.5146 100.999<-1.79102 454.985> 193.028 100.999<-1.83203 458.598>
LayerCount: 2
Fore
SplineSet
75.658203125 490.989257812 m 1
 117.984375 515.604492188 l 1
 201.513671875 515.604492188 l 1
 285.541992188 467.083007812 l 1
 294.02734375 458.59765625 l 1
 294.02734375 -1.83203125 l 1
 285.541992188 -10.3173828125 l 1
 201.513671875 -10.4833984375 l 1
 193.028320312 -1.998046875 l 1
 193.028320312 493.760742188 l 1
 125.513671875 454.985351562 l 1
 125.513671875 -1.791015625 l 1
 117.028320312 -10.2763671875 l 1
 33 -10.484375 l 1
 24.5146484375 -1.9990234375 l 1
 24.5146484375 507.118164062 l 1
 33 515.603515625 l 1
 75.658203125 490.989257812 l 1
EndSplineSet
EndChar

StartChar: o
Encoding: 111 111 80
AltUni2: 0000f6.ffffffff.0 0000f6.ffffffff.0
Width: 325
GlyphClass: 1
Flags: W
HStem: -8.22656 21G<32.001 234.051> 495.99 20G<81.5359 200.056 200.056 291.614>
VStem: 23.5156 100.666<13.6436 455.299> 190.948 100.666<52.1982 493.831>
LayerCount: 2
Fore
SplineSet
124.181640625 455.298828125 m 1
 124.181640625 13.6435546875 l 1
 190.948242188 52.1982421875 l 1
 190.948242188 493.831054688 l 1
 124.181640625 455.298828125 l 1
115.696289062 -8.2265625 m 1
 32.0009765625 -8.060546875 l 1
 23.515625 0.4248046875 l 1
 23.515625 459.150390625 l 1
 32.0009765625 467.635742188 l 1
 32.4580078125 467.635742188 l 1
 116.153320312 515.990234375 l 1
 199.890625 515.990234375 l 1
 200.055664062 515.825195312 l 1
 283.12890625 515.94921875 l 1
 291.614257812 507.463867188 l 1
 291.614257812 48.61328125 l 1
 283.12890625 40.1279296875 l 1
 199.43359375 -8.2265625 l 1
 115.696289062 -8.2265625 l 1
EndSplineSet
EndChar

StartChar: p
Encoding: 112 112 81
Width: 323
GlyphClass: 1
Flags: W
HStem: -237.485 21G<78.3301 121.803> 496.032 20G<182.615 289.818>
VStem: 19.5146 102.024<-180.229 -8.06055 13.4668 410.754> 189.027 100.749<52.4326 450.665>
LayerCount: 2
Fore
SplineSet
196.59765625 516.032226562 m 1
 281.333007812 516.032226562 l 1
 289.818359375 507.546875 l 2
 289.818359375 507.546875 289.818359375 48.9462890625 289.776367188 48.8212890625 c 2
 281.291015625 40.3359375 l 1
 197.470703125 -8.060546875 l 1
 121.5625 -8.060546875 l 1
 121.802734375 -229 l 1
 113.317382812 -237.485351562 l 1
 28 -188.71484375 l 1
 19.5146484375 -180.229492188 l 1
 20.2626953125 410.75390625 l 1
 28.748046875 419.239257812 l 1
 112.569335938 467.635742188 l 1
 112.673828125 467.53125 l 1
 140.592773438 483.75390625 168.6328125 499.85546875 196.59765625 516.032226562 c 1
189.02734375 450.665039062 m 1
 121.063476562 450.665039062 l 1
 121.5390625 13.466796875 l 1
 189.002929688 52.4326171875 l 1
 189.02734375 57.26171875 l 1
 189.02734375 450.665039062 l 1
EndSplineSet
EndChar

StartChar: q
Encoding: 113 113 82
Width: 315
GlyphClass: 1
Flags: W
HStem: 496.361 20G<23.5146 131.016>
VStem: 23.5146 101.082<51.4395 450.828> 192.33 101.53<-182.062 -7.77246 13.6094 410.751>
LayerCount: 2
Fore
SplineSet
293.860351562 410.750976562 m 1
 294.751953125 -277.91796875 294.598632812 -176.134765625 294.607421875 -182.0625 c 1
 286.122070312 -190.547851562 l 1
 200.555664062 -239.484375 l 1
 192.0703125 -230.999023438 l 1
 192.306640625 -7.7724609375 l 1
 116.153320312 -7.7724609375 l 1
 32.0419921875 39.2099609375 l 1
 32.0419921875 39.2099609375 23.556640625 47.6953125 23.5146484375 47.8203125 c 2
 23.5146484375 507.875976562 l 1
 32 516.361328125 l 1
 116.984375 516.361328125 l 1
 145.046875 500.129882812 173.18359375 483.97265625 201.200195312 467.694335938 c 1
 201.3046875 467.798828125 l 1
 285.375 419.236328125 l 1
 293.860351562 410.750976562 l 1
124.6328125 51.439453125 m 1
 192.330078125 13.609375 l 1
 192.810546875 450.828125 l 1
 124.596679688 450.828125 l 1
 124.596679688 75.302734375 l 1
 124.6328125 51.439453125 l 1
EndSplineSet
EndChar

StartChar: r
Encoding: 114 114 83
Width: 298
GlyphClass: 1
Flags: W
HStem: 495.99 20G<79.1039 122.43>
VStem: 22.0537 100.916<47.4492 445.592>
LayerCount: 2
Fore
SplineSet
281.834960938 402.060546875 m 1
 197.888671875 402.060546875 l 1
 122.485351562 445.591796875 l 1
 122.969726562 -1.23828125 l 1
 114.484375 -9.7236328125 l 1
 30.5390625 38.9638671875 l 1
 22.0537109375 47.44921875 l 1
 21.513671875 459.31640625 l 1
 29.9990234375 467.801757812 l 1
 113.944335938 515.990234375 l 1
 122.4296875 507.504882812 l 1
 122.463867188 467.510742188 l 1
 197.889648438 467.510742188 l 1
 281.834960938 419.03125 l 1
 290.3203125 410.545898438 l 1
 281.834960938 402.060546875 l 1
EndSplineSet
EndChar

StartChar: s
Encoding: 115 115 84
Width: 295
GlyphClass: 1
Flags: W
HStem: -8.48535 21G<56.4513 201.47> 495.648 20G<90.5562 235.903>
VStem: 33.0518 100.38<317.729 458.891> 158.344 100.606<48.2715 189.572>
LayerCount: 2
Fore
SplineSet
166.809570312 -8.4853515625 m 1
 83.654296875 -8.4853515625 l 1
 17.6669921875 40.029296875 l 1
 12 50 l 1
 17.6669921875 57 l 1
 83.654296875 56.7568359375 l 1
 158.34375 13.3994140625 l 1
 158.57421875 176.330078125 l 1
 158.346679688 189.572265625 l 1
 41.537109375 257.194335938 l 1
 33.0517578125 265.6796875 l 1
 33.0517578125 458.890625 l 1
 41.537109375 467.375976562 l 1
 125.232421875 515.6484375 l 1
 208.345703125 515.6484375 l 1
 274 468 l 1
 280 459 l 1
 274 450 l 1
 208.345703125 450.364257812 l 1
 133.697265625 493.756835938 l 1
 133.431640625 317.728515625 l 1
 250.46484375 249.966796875 l 1
 258.950195312 241.482421875 l 1
 258.950195312 48.271484375 l 1
 250.46484375 39.7861328125 l 1
 166.809570312 -8.4853515625 l 1
EndSplineSet
EndChar

StartChar: t
Encoding: 116 116 85
Width: 251
GlyphClass: 1
Flags: W
HStem: -8.14355 21G<75.627 119.082> 688.62 20G<75.752 119.164>
VStem: 75.627 101.082<48.4473 450.707 515.991 652.112>
LayerCount: 2
Fore
SplineSet
176.625976562 511.0078125 m 1
 251.670898438 467.676757812 l 1
 260.15625 459.19140625 l 1
 251.670898438 450.706054688 l 1
 226.65625 450.706054688 201.641601562 450.70703125 176.627929688 450.70703125 c 1
 176.708984375 48.447265625 l 1
 168.223632812 39.9619140625 l 1
 84.1123046875 -8.1435546875 l 1
 75.626953125 0.341796875 l 1
 75.708984375 455.690429688 l 1
 0.666015625 499.020507812 l 1
 -7.8193359375 507.505859375 l 1
 0.666015625 515.991210938 l 1
 75.7119140625 515.991210938 l 1
 75.751953125 700.134765625 l 1
 84.2373046875 708.620117188 l 1
 168.099609375 660.59765625 l 1
 176.584960938 652.112304688 l 1
 176.625976562 511.0078125 l 1
EndSplineSet
EndChar

StartChar: u
Encoding: 117 117 86
AltUni2: 0000fc.ffffffff.0 0000fc.ffffffff.0
Width: 363
GlyphClass: 1
Flags: W
HStem: -8.48535 21G<24.1816 148.456 189.182 316.701> 494.485 21G<24.1816 58.6045 189.182 225.074>
VStem: 24.1816 100.635<57.7451 443> 189.182 104.282<57.5098 443>
LayerCount: 2
Fore
SplineSet
197.666992188 514.485351562 m 1
 284 451.485351562 l 1
 292.485351562 443 l 1
 293.463867188 57.4853515625 l 1
 363 57.4853515625 l 1
 371.485351562 49 l 1
 363 40.5146484375 l 1
 284.771484375 -8.4853515625 l 1
 197.666992188 -8.4853515625 l 1
 189.181640625 0 l 1
 189.181640625 36.35546875 l 1
 115.666992188 -8.4853515625 l 1
 32.6669921875 -8.4853515625 l 1
 24.181640625 0 l 1
 24.181640625 507 l 1
 32.6669921875 515.485351562 l 1
 115.666992188 451.485351562 l 1
 124.15234375 443 l 1
 124.81640625 57.7451171875 l 1
 189.181640625 57.509765625 l 1
 189.181640625 506 l 1
 197.666992188 514.485351562 l 1
EndSplineSet
EndChar

StartChar: v
Encoding: 118 118 87
Width: 308
GlyphClass: 1
Flags: W
HStem: -8.18555 21G<237.108 280.038> 489.421 19.917G<15.5557 58.6663 180.619 223.711>
VStem: 15.5137 99.5029<358.075 453.205> 180.582 99.4561<206.563 453.287>
LayerCount: 2
Fore
SplineSet
189.104492188 509.420898438 m 1
 271.552734375 461.772460938 l 1
 280.038085938 453.287109375 l 1
 280.038085938 0.2998046875 l 1
 271.552734375 -8.185546875 l 1
 189.0625 39.7119140625 l 1
 180.577148438 48.197265625 l 1
 15.513671875 358.075195312 l 1
 15.5556640625 500.852539062 l 1
 24.041015625 509.337890625 l 1
 106.53125 461.690429688 l 1
 115.016601562 453.205078125 l 1
 115.016601562 358.075195312 l 1
 180.58203125 206.563476562 l 1
 180.619140625 500.935546875 l 1
 189.104492188 509.420898438 l 1
EndSplineSet
EndChar

StartChar: w
Encoding: 119 119 88
Width: 483
GlyphClass: 1
Flags: W
HStem: -7.48633 21G<24.5146 67.6167 110.545 235.437 249.831 402.288> 496.44 20G<24.5146 116.654 192.322 284.462 359.173 451.312>
VStem: 24.5146 100.625<52.9102 507.788> 192.322 100.625<52.4102 507.789> 359.173 100.625<49.3135 507.789>
LayerCount: 2
Fore
SplineSet
367.658203125 516.440429688 m 1
 451.3125 516.274414062 l 1
 459.797851562 507.7890625 l 1
 459.797851562 49.3134765625 l 1
 451.3125 40.828125 l 1
 367.658203125 -7.4853515625 l 1
 284.461914062 -7.4853515625 l 1
 242.634765625 16.6708984375 l 1
 200.807617188 -7.486328125 l 1
 117.611328125 -7.486328125 l 1
 103.479492188 0.640625 89.4599609375 8.87890625 75.2431640625 16.919921875 c 1
 33 -7.486328125 l 1
 24.5146484375 0.9990234375 l 1
 24.5146484375 507.954101562 l 1
 33 516.439453125 l 1
 116.654296875 516.2734375 l 1
 125.139648438 507.788085938 l 1
 125.139648438 52.91015625 l 1
 192.322265625 14.3544921875 l 1
 192.322265625 507.955078125 l 1
 200.807617188 516.440429688 l 1
 284.461914062 516.274414062 l 1
 292.947265625 507.7890625 l 1
 292.947265625 52.41015625 l 1
 359.172851562 14.3603515625 l 1
 359.172851562 507.955078125 l 1
 367.658203125 516.440429688 l 1
EndSplineSet
EndChar

StartChar: x
Encoding: 120 120 89
Width: 317
GlyphClass: 1
Flags: W
HStem: 494.142 20G<21.5156 64.6288 249.898 292.982>
VStem: 22.5977 101.165<43.6055 220.883 286.246 457.052> 191.121 101.112<44.2705 259.781 325.459 458.133>
LayerCount: 2
Fore
SplineSet
292.233398438 273.77734375 m 1
 293.067382812 -4.333984375 l 1
 284.58203125 -12.8193359375 l 1
 200.428710938 35.78515625 l 1
 191.943359375 44.2705078125 l 1
 191.12109375 259.78125 l 1
 123.762695312 220.8828125 l 1
 123.762695312 -4.9990234375 l 1
 115.27734375 -13.484375 l 1
 31.0830078125 35.1201171875 l 1
 22.59765625 43.60546875 l 1
 22.5546875 224.467773438 l 1
 26.87109375 228.524414062 30.3876953125 233.380859375 36.1962890625 235.946289062 c 2
 85.1416015625 264.211914062 l 1
 30.7080078125 264.211914062 l 1
 22.22265625 272.697265625 l 1
 21.515625 505.65625 l 1
 30.0009765625 514.141601562 l 1
 114.154296875 465.537109375 l 1
 122.639648438 457.051757812 l 1
 123.333007812 286.24609375 l 1
 191.291992188 325.458984375 l 1
 191.858398438 458.1328125 l 1
 200.34375 466.618164062 l 1
 284.497070312 515.263671875 l 1
 292.982421875 506.778320312 l 1
 292.483398438 321.591796875 l 1
 283.998046875 313.106445312 l 1
 283.499023438 313.106445312 l 1
 230.044921875 282.262695312 l 1
 283.748046875 282.262695312 l 1
 292.233398438 273.77734375 l 1
EndSplineSet
EndChar

StartChar: y
Encoding: 121 121 90
Width: 318
GlyphClass: 1
Flags: W
HStem: 496.406 20G<22.5146 65.6182 249.362 292.567>
VStem: 22.8887 100.995<52.4082 461.104> 106.917 100.375<-185.219 -8.14355> 190.764 100.973<13.793 459.565>
LayerCount: 2
Fore
SplineSet
200.137695312 468.05078125 m 1xd0
 284.08203125 516.40625 l 1
 292.567382812 507.920898438 l 1
 291.736328125 0.341796875 l 1xd0
 283.250976562 -8.1435546875 l 1
 207.688476562 -8.1435546875 l 1
 207.291992188 -185.21875 l 1
 198.806640625 -193.704101562 l 1
 115.40234375 -242.349609375 l 1
 106.916992188 -233.864257812 l 1xa0
 107.28515625 -3.458984375 l 1
 32.62109375 39.62890625 l 1
 31.3740234375 39.62890625 l 1
 22.888671875 48.1142578125 l 1
 22.5146484375 509.625 l 1
 31 518.110351562 l 1
 114.986328125 469.588867188 l 1
 123.471679688 461.103515625 l 1
 123.883789062 52.408203125 l 1
 190.763671875 13.79296875 l 1
 191.65234375 459.565429688 l 1
 200.137695312 468.05078125 l 1xd0
EndSplineSet
EndChar

StartChar: z
Encoding: 122 122 91
Width: 326
GlyphClass: 1
Flags: W
HStem: -8.64258 21G<90.5591 279.797> 495.742 20G<50.5012 239.785>
VStem: 36.6357 97.7627<49.2812 203.909> 195.716 97.0527<302.331 457.87>
LayerCount: 2
Fore
SplineSet
245.193359375 100.879882812 m 1
 325.353515625 54.5625 l 1
 333.838867188 46.0771484375 l 1
 325.353515625 37.591796875 l 1
 245.067382812 -8.642578125 l 1
 125.19921875 -8.642578125 l 1
 45.12109375 37.591796875 l 1
 45.12109375 37.591796875 36.6357421875 46.0771484375 36.6357421875 46.119140625 c 0
 37.591796875 207.689453125 37.591796875 207.689453125 37.591796875 207.689453125 c 1
 46.0771484375 216.174804688 l 1
 46.41015625 216.174804688 l 1
 111.178710938 253.548828125 l 1
 86.44921875 268.098632812 l 1
 77.9638671875 276.583984375 l 1
 86.44921875 285.069335938 l 1
 126.48828125 308.602539062 l 1
 166.1953125 285.319335938 l 1
 195.715820312 302.331054688 l 1
 195.915039062 457.870117188 l 1
 185.23828125 464.0546875 l 1
 85.1611328125 406.26171875 l 1
 5 452.579101562 l 1
 -3.4853515625 461.064453125 l 1
 5 469.549804688 l 1
 85.2451171875 515.7421875 l 1
 205.11328125 515.7421875 l 1
 285.19140625 469.549804688 l 1
 293.676757812 461.064453125 l 1
 292.768554688 300.609375 l 1
 293.92578125 299.452148438 l 1
 285.440429688 290.966796875 l 1
 220.479492188 253.435546875 l 1
 245.983398438 238.4609375 l 1
 254.46875 229.975585938 l 1
 245.983398438 221.490234375 l 1
 205.403320312 198.08203125 l 1
 165.364257812 221.65625 l 1
 134.635742188 203.909179688 l 1
 134.3984375 49.28125 l 1
 145.116210938 43.0869140625 l 1
 245.193359375 100.879882812 l 1
EndSplineSet
EndChar

StartChar: braceleft
Encoding: 123 123 92
Width: 493
GlyphClass: 1
Flags: W
HStem: -8.15227 21G<210.886 246.267 246.267 389.406>
VStem: 128.543 125.067<62.3672 380.978 511.591 830.181>
LayerCount: 2
Fore
SplineSet
244.790039062 393.245046999 m 1
 245.124023438 393.245046999 l 1
 253.609304812 384.759765625 l 1
 254.011198842 13.061561931 l 1
 354.762695312 71.2264923117 l 1
 462.864257812 71.2264923117 l 1
 471.349539186 62.7412109375 l 1
 462.864257812 54.2559295633 l 1
 354.762695312 -8.15227356174 l 1
 246.661132812 -8.15227356174 l 1
 246.266601562 -7.75774231174 l 1
 245.540039062 -8.48430481174 l 1
 137.479492188 53.8819061258 l 1
 128.994210814 62.3671875 l 1
 128.542541296 380.977567282 l 1
 30.16796875 437.767648314 l 1
 30.001953125 437.767648314 l 1
 21.5166717508 446.252929688 l 1
 30.001953125 454.738211062 l 1
 128.417570356 511.590783286 l 1
 128.869210814 830.180664062 l 1
 137.354492188 838.665945436 l 1
 245.373046875 901.032156374 l 1
 246.100585938 900.304617312 l 1
 246.495117188 900.699148562 l 1
 354.596679688 900.699148562 l 1
 462.698242188 838.290945436 l 1
 471.183523562 829.805664062 l 1
 462.698242188 821.320382688 l 1
 354.596679688 821.320382688 l 1
 253.844206209 879.485877107 l 1
 253.442312624 507.788085938 l 1
 244.95703125 499.302804564 l 1
 244.624023438 499.302804564 l 1
 152.825238212 446.293529954 l 1
 244.790039062 393.245046999 l 1
EndSplineSet
EndChar

StartChar: verticalbar
Encoding: 124 124 93
Width: 134
GlyphClass: 1
Flags: W
HStem: -8.48528 21G<21.5147 112.369>
VStem: 21.5147 90.8544<1.83013e-15 916.578>
LayerCount: 2
Fore
SplineSet
103.883789062 -8.48528137424 m 1
 30 -8.48528137424 l 1
 21.5147186258 1.83013326716e-15 l 1
 21.5147186258 916.578125 l 1
 30 925.063406374 l 1
 103.883789062 925.063406374 l 1
 112.369070436 916.578125 l 1
 112.369070436 5.37764277553e-17 l 1
 103.883789062 -8.48528137424 l 1
EndSplineSet
EndChar

StartChar: braceright
Encoding: 125 125 94
Width: 493
GlyphClass: 1
Flags: W
HStem: -8.15325 20.668G<103.624 246.765 246.765 282.133>
VStem: 239.021 124.976<62.3662 380.953 511.566 830.18>
LayerCount: 2
Fore
SplineSet
30.166015625 71.2255157492 m 1
 138.267578125 71.2255157492 l 1
 239.020578019 13.0597174255 l 1
 239.381906126 384.758789062 l 1
 247.8671875 393.244070436 l 1
 248.241210938 393.244070436 l 1
 340.039951567 446.217145268 l 1
 248.075195312 499.301828001 l 1
 247.7421875 499.301828001 l 1
 239.256906126 507.787109375 l 1
 238.855011932 879.485463973 l 1
 138.1015625 821.319406126 l 1
 30 821.319406126 l 1
 21.5147186258 829.8046875 l 1
 30 838.289968874 l 1
 138.1015625 900.698171999 l 1
 246.203125 900.698171999 l 1
 246.598144531 900.303152468 l 1
 247.326171875 901.031179812 l 1
 355.38671875 838.664968874 l 1
 363.872000124 830.1796875 l 1
 364.323674198 511.566093464 l 1
 462.698242188 454.737234499 l 1
 462.864257812 454.737234499 l 1
 471.349539186 446.251953125 l 1
 462.864257812 437.766671751 l 1
 364.448636048 380.952893657 l 1
 363.997000124 62.3662109375 l 1
 355.51171875 53.8809295633 l 1
 247.493164062 -8.48528137424 l 1
 246.765136719 -7.75725403074 l 1
 246.369140625 -8.15325012424 l 1
 138.267578125 -8.15325012424 l 1
 30.166015625 54.2549530008 l 1
 21.6807342508 62.740234375 l 1
 30.166015625 71.2255157492 l 1
EndSplineSet
EndChar

StartChar: asciitilde
Encoding: 126 126 95
Width: 534
GlyphClass: 1
Flags: W
HStem: 280.515 157.878
LayerCount: 2
Fore
SplineSet
528.631835938 345.875070188 m 1
 416.74609375 303.506906126 l 1
 368.006254928 311.436989179 l 1
 367.892578125 311.323312376 l 1
 362.32675081 312.241133438 238.314950632 332.441469247 237.005859375 332.653390501 c 2
 99.6337890625 280.514718626 l 1
 6.9990234375 356.061593626 l 1
 -1.48625793674 364.546875 l 1
 6.9990234375 373.032156374 l 1
 118.884765625 415.358328249 l 1
 214.156947202 399.908781989 214.156947202 399.908781989 218.130859375 399.267507936 c 1
 226.616140749 390.782226562 l 1
 218.296875 399.101492312 l 1
 296.670898438 386.378836062 l 1
 297.418945312 385.754812624 l 1
 435.997070312 438.392507936 l 1
 528.631835938 362.845632936 l 1
 537.117117312 354.360351562 l 1
 528.631835938 345.875070188 l 1
EndSplineSet
EndChar

StartChar: cent
Encoding: 162 162 97
Width: 389
GlyphClass: 1
Flags: W
HStem: -8.48528 21G<21.5147 77.4814>
VStem: 99.8467 100.458<218.162 388.5 546.934 624.329>
LayerCount: 2
Fore
SplineSet
298.457737574 667.343861755 m 1
 358.836914062 632.482351686 l 1
 367.322195436 623.997070312 l 1
 358.836914062 615.511788938 l 1
 281.517961516 615.511788938 l 1
 200.304617312 367.087890625 l 1
 200.304617312 179.025427821 l 1
 275.349609375 222.319265749 l 1
 358.836914062 222.319265749 l 1
 367.322195436 213.833984375 l 1
 358.836914062 205.348703001 l 1
 275.349609375 157.160226438 l 1
 275.349609375 157.160226438 191.8203125 157.160226438 191.819335938 157.159249876 c 2
 141.319599263 186.624341267 l 1
 85.9667266867 17.212890625 l 1
 77.4814453125 8.72760925076 l 1
 30 -8.48528137424 l 1
 21.5147186258 1.83013326716e-15 l 1
 99.8467498758 239.5703125 l 1
 99.8467498758 624.329101562 l 1
 108.33203125 632.814382936 l 1
 191.819335938 681.293875124 l 1
 192.443359376 680.669851686 l 1
 244.026622407 680.669851686 l 1
 297.713937376 844.856445312 l 1
 306.19921875 853.341726686 l 1
 353.639648438 870.596609499 l 1
 362.124929812 862.111328125 l 1
 298.457737574 667.343861755 l 1
231.07486424 641.056831122 m 1
 200.304617312 658.805006938 l 1
 200.304617312 546.933717983 l 1
 231.07486424 641.056831122 l 1
EndSplineSet
EndChar

StartChar: yen
Encoding: 165 165 98
Width: 461
GlyphClass: 1
Flags: W
HStem: -8.48626 21G<178.554 221.681> 92.755 91.8104<30 178.782 282.485 431.35> 218.485 91.8104<30 179.073 282.859 431.349> 689.4 20G<326.51 369.609>
VStem: 92.1134 103.571<404.483 652.644> 178.782 103.307<49.9756 92.755 184.566 218.485 310.297 341.515> 265.2 103.536<364.358 650.897>
LayerCount: 2
Fore
SplineSet
282.858854534 310.296804812 m 1xfa
 431.348632812 310.296804812 l 1
 439.833914186 301.811523438 l 1
 439.833914186 226.971679688 l 1
 431.348632812 218.486398314 l 1
 282.567955043 218.486398314 l 1
 282.484638955 184.566336062 l 1
 431.349609375 184.566336062 l 1
 439.834890749 176.081054688 l 1
 439.834890749 101.241210938 l 1
 431.349609375 92.7559295638 l 1
 282.193107499 92.7559295638 l 1
 282.088796999 49.9755859375 l 1
 273.603515625 41.4903045633 l 1
 187.0390625 -8.48625793674 l 1
 178.553781126 -0.000976562499998 l 1
 178.781933281 92.7549530008 l 1xf4
 30 92.7549530008 l 1
 21.5147186258 101.240234375 l 1
 21.5147186258 176.080078125 l 1
 30 184.565359499 l 1
 178.989662144 184.565359499 l 1
 179.072978232 218.485421751 l 1
 30 218.485421751 l 1
 21.5147186258 226.970703125 l 1
 21.5147186258 301.810546875 l 1
 30 310.295828249 l 1
 179.323428494 310.295828249 l 1
 179.416668465 346.923111089 l 1
 100.598632812 392.405343626 l 1
 92.1133514378 400.890625 l 1
 91.7393280008 702.661132812 l 1
 100.224609375 711.146414186 l 1
 186.7890625 661.128836062 l 1
 195.274343874 652.643554688 l 1
 195.684425546 404.482534708 l 1
 265.200011838 364.357573468 l 1
 266.074288938 650.897460938 l 1
 274.559570312 659.382742312 l 1
 361.124023438 709.400320436 l 1
 369.609304812 700.915039062 l 1
 368.736257936 350 l 1
 360.250976562 341.514718626 l 1
 282.939833214 341.514718626 l 1
 282.858854534 310.296804812 l 1xfa
EndSplineSet
EndChar

StartChar: copyright
Encoding: 169 169 99
Width: 651
GlyphClass: 1
Flags: W
HStem: -8.4843 20.1297<193.401 457.128> 603.496 20.1297<193.941 457.71>
VStem: 21.5157 101.415<52.3175 562.512> 241.794 68.9842<117.124 491.655> 528.181 101.373<52.6534 562.824>
LayerCount: 2
Fore
SplineSet
536.623046875 623.625906374 m 1
 621.068359375 574.897390749 l 1
 629.553640749 566.412109375 l 1
 629.553640749 48.7294921875 l 1
 621.068359375 40.2442108133 l 1
 620.528320312 40.2442108133 l 1
 536.083984375 -8.48430481174 l 1
 114.4453125 -8.48430481174 l 1
 30.0009765625 40.2442108133 l 1
 21.5156951883 48.7294921875 l 1
 21.5156951883 566.412109375 l 1
 30.0009765625 574.897390749 l 1
 30.541015625 574.897390749 l 1
 114.943359375 623.625906374 l 1
 536.623046875 623.625906374 l 1
310.975090806 508.08957152 m 1
 310.778250124 272.291992188 l 1
 310.855271613 100.691738976 l 1
 354.098632812 125.650320436 l 1
 405.821289062 125.650320436 l 1
 414.306570436 117.165039062 l 1
 405.821289062 108.679757688 l 1
 354.098632812 78.8272186258 l 1
 302.375976562 78.8272186258 l 1
 285.063898181 88.8178746201 267.635748261 98.6924590747 250.279296875 108.638742064 c 1
 241.794015501 117.124023438 l 1
 241.866450559 241.937005046 241.899786476 366.789085796 241.919015501 491.655273438 c 1
 250.404296875 500.140554812 l 1
 302.501953125 529.951101686 l 1
 354.223632812 529.951101686 l 1
 405.946289062 500.098562624 l 1
 414.431570436 491.61328125 l 1
 405.946289062 483.127999876 l 1
 354.223632812 483.127999876 l 1
 310.975090806 508.08957152 l 1
122.930593874 52.3175096471 m 1
 193.401367188 11.6454376242 l 1
 457.127929688 11.6454376242 l 1
 528.180734251 52.6534278697 l 1
 528.180734251 562.824091915 l 1
 457.709960938 603.496163938 l 1
 193.94140625 603.496163938 l 1
 122.930593874 562.512409404 l 1
 122.930593874 52.3175096471 l 1
EndSplineSet
EndChar

StartChar: guillemotleft
Encoding: 171 171 100
Width: 418
GlyphClass: 1
Flags: W
HStem: -8.48528 21G<157.175 187.416 365.937 396.178>
LayerCount: 2
Fore
SplineSet
396.177664186 410.745117188 m 1
 396.177664186 273.830078125 l 1
 387.692382812 265.344796751 l 1
 322.456570283 205.390952231 l 1
 387.692382812 145.400320436 l 1
 396.177664186 136.915039062 l 1
 396.177664186 5.37764277553e-17 l 1
 387.692382812 -8.48528137424 l 1
 238.76171875 128.429757688 l 1
 230.276437376 136.915039062 l 1
 230.276437376 273.830078125 l 1
 238.76171875 282.315359499 l 1
 387.692382812 419.230398562 l 1
 396.177664186 410.745117188 l 1
21.5147186258 136.915039062 m 1
 21.5147186258 273.830078125 l 1
 30 282.315359499 l 1
 178.930664062 419.230398562 l 1
 187.415945436 410.745117188 l 1
 187.415945436 273.830078125 l 1
 178.930664062 265.344796751 l 1
 113.694851533 205.390952231 l 1
 178.930664062 145.400320436 l 1
 187.415945436 136.915039062 l 1
 187.415945436 5.37764277553e-17 l 1
 178.930664062 -8.48528137424 l 1
 30 128.429757688 l 1
 21.5147186258 136.915039062 l 1
EndSplineSet
EndChar

StartChar: registered
Encoding: 174 174 102
Width: 651
GlyphClass: 1
Flags: W
HStem: -8.4843 20.1297<193.401 457.128> 603.496 20.1297<193.941 457.71>
VStem: 21.5157 101.415<52.3175 562.512> 233.73 68.6932<131.304 131.345 131.47 297.036 318.904 506.04> 336.384 69.4833<131.719 276.989 340.146 486.081> 528.181 101.373<52.6534 562.824>
LayerCount: 2
Fore
SplineSet
266.205078125 544.129812624 m 1
 266.205078125 544.129812624 293.9375 527.915945436 293.939441294 527.914004142 c 2
 345.243164062 528.122000124 l 1
 396.965820312 498.269461062 l 1
 405.451101686 489.784179688 l 1
 405.451101686 340.146484375 l 1
 396.965820312 331.661203001 l 1
 360.362332299 310.435433334 l 1
 397.381835938 289.051687624 l 1
 405.867117312 280.56640625 l 1
 405.867117312 101.408203125 l 1
 397.381835938 92.9229217508 l 1
 379.877260703 103.026093911 362.373041831 113.129622436 344.869140625 123.233468626 c 1
 336.383859251 131.71875 l 1
 337.154913134 276.98949517 l 1
 302.422781374 297.035687598 l 1
 302.422781374 131.303710938 l 1
 293.9375 122.818429564 l 1
 293.8125 122.818429564 l 1
 242.08984375 92.9238983138 l 1
 233.604562376 101.409179688 l 1
 233.604562376 131.344726562 l 1
 233.729562376 131.469726562 l 1
 233.729562376 515.898330596 l 1
 214.44140625 527.159249876 l 1
 205.956124876 535.64453125 l 1
 214.44140625 544.129812624 l 1
 266.205078125 544.129812624 l 1
536.623046875 623.625906374 m 1
 621.068359375 574.897390749 l 1
 629.553640749 566.412109375 l 1
 629.553640749 48.7294921875 l 1
 621.068359375 40.2442108133 l 1
 620.528320312 40.2442108133 l 1
 536.083984375 -8.48430481174 l 1
 114.4453125 -8.48430481174 l 1
 30.0009765625 40.2442108133 l 1
 21.5156951883 48.7294921875 l 1
 21.5156951883 566.412109375 l 1
 30.0009765625 574.897390749 l 1
 30.541015625 574.897390749 l 1
 114.943359375 623.625906374 l 1
 536.623046875 623.625906374 l 1
302.422781374 506.040143449 m 1
 302.422781374 318.904226686 l 1
 336.965890501 318.904226686 l 1
 336.965890501 486.081435072 l 1
 302.422781374 506.040143449 l 1
122.930593874 52.3175096471 m 1
 193.401367188 11.6454376242 l 1
 457.127929688 11.6454376242 l 1
 528.180734251 52.6534278697 l 1
 528.180734251 562.824091915 l 1
 457.709960938 603.496163938 l 1
 193.94140625 603.496163938 l 1
 122.930593874 562.512409404 l 1
 122.930593874 52.3175096471 l 1
EndSplineSet
EndChar

StartChar: degree
Encoding: 176 176 103
Width: 223
GlyphClass: 1
Flags: W
HStem: 419.515 300.654<77.0664 85.3027 115.148 123.633>
VStem: 21.5157 63.787<441.384 680.924> 115.148 63.787<458.612 698.138>
LayerCount: 2
Fore
SplineSet
85.3026641867 680.923572667 m 1
 85.3026641867 441.384086175 l 1
 115.147531126 458.612430932 l 1
 115.147531126 698.138009801 l 1
 85.3026641867 680.923572667 l 1
76.81640625 419.514718626 m 1
 76.81640625 419.51472036 l 1
 30.0009765625 419.597726438 l 1
 21.5156951883 428.083007812 l 1
 21.5156951883 684.658203125 l 1
 30.0009765625 693.143484499 l 1
 30.25 693.143484499 l 1
 77.06640625 720.168875124 l 1
 123.8828125 720.168875124 l 1
 123.965451173 720.086236452 l 1
 170.44921875 720.168875124 l 1
 178.934500124 711.68359375 l 1
 178.934500124 455.025390625 l 1
 170.44921875 446.540109251 l 1
 123.6328125 419.514718626 l 1
 76.81640625 419.514718626 l 1
EndSplineSet
EndChar

StartChar: acute
Encoding: 180 180 104
Width: 264
GlyphClass: 1
Flags: W
HStem: 352.515 89.4823
VStem: -3.48528 268.182
LayerCount: 2
Fore
SplineSet
130.60546875 441.997000124 m 1
 256.2109375 441.997000124 l 1
 264.696218874 433.51171875 l 1
 256.2109375 425.026437376 l 1
 130.60546875 352.514718626 l 1
 5 352.514718626 l 1
 -3.48528137424 361 l 1
 5 369.485281374 l 1
 130.60546875 441.997000124 l 1
EndSplineSet
EndChar

StartChar: cedilla
Encoding: 184 184 105
Width: 129
GlyphClass: 1
Flags: W
HStem: -8.4843 113.638<51.2461 62.0146>
VStem: 42.7608 64.618<49.0205 96.668>
LayerCount: 2
Fore
SplineSet
51.24609375 105.153250124 m 1
 98.8935546875 105.153250124 l 1
 107.378836062 96.66796875 l 1
 107.378836062 49.0205078125 l 1
 70.4999298117 0.0009765625 l 1
 62.0146484375 -8.48430481174 l 1
 30 -8.48430481174 l 1
 21.5147186258 0.000976562500002 l 1
 42.7608123758 49.0205078125 l 1
 42.7608123758 96.66796875 l 1
 51.24609375 105.153250124 l 1
EndSplineSet
EndChar

StartChar: guillemotright
Encoding: 187 187 106
Width: 418
GlyphClass: 1
Flags: W
HStem: -8.48528 21G<21.5137 51.7542 230.275 260.516>
LayerCount: 2
Fore
SplineSet
21.5137420633 273.830078125 m 1
 21.5137420633 410.745117188 l 1
 29.9990234375 419.230398562 l 1
 178.9296875 282.315359499 l 1
 187.414968874 273.830078125 l 1
 187.414968874 136.915039062 l 1
 178.9296875 128.429757688 l 1
 29.9990234375 -8.48528137424 l 1
 21.5137420633 1.83013326716e-15 l 1
 21.5137420633 136.915039062 l 1
 29.9990234375 145.400320436 l 1
 95.2348359665 205.390952231 l 1
 29.9990234375 265.344796751 l 1
 21.5137420633 273.830078125 l 1
238.760742188 419.230398562 m 1
 387.69140625 282.315359499 l 1
 396.176687624 273.830078125 l 1
 396.176687624 136.915039062 l 1
 387.69140625 128.429757688 l 1
 238.760742188 -8.48528137424 l 1
 230.275460814 1.83013326716e-15 l 1
 230.275460814 136.915039062 l 1
 238.760742188 145.400320436 l 1
 303.996554717 205.390952231 l 1
 238.760742188 265.344796751 l 1
 230.275460814 273.830078125 l 1
 230.275460814 410.745117188 l 1
 238.760742188 419.230398562 l 1
EndSplineSet
EndChar

StartChar: Agrave
Encoding: 192 192 107
Width: 318
GlyphClass: 1
Flags: W
HStem: -8.4843 21G<21.2862 124.488 193.75 296.994>
VStem: 21.2862 103.202<0 290.208 352.05 683.538> 193.75 103.244<0.000976562 290.208 312.075 643.53>
LayerCount: 2
Fore
SplineSet
271.212890625 735.961984251 m 1
 145.607421875 735.961984251 l 1
 20.001953125 808.473703001 l 1
 11.5166717508 816.958984375 l 1
 20.001953125 825.444265749 l 1
 145.607421875 825.444265749 l 1
 271.212890625 752.932546999 l 1
 279.698171999 744.447265625 l 1
 271.212890625 735.961984251 l 1
193.750070188 290.208078001 m 1
 124.488211062 290.208078001 l 1
 124.488211062 5.37764277553e-17 l 1
 116.002929688 -8.48528137424 l 1
 29.771484375 -8.48528137424 l 1
 21.2862030008 1.83013326716e-15 l 1
 21.2862030008 696.923828125 l 1
 29.771484375 705.409109499 l 1
 202.235351562 705.409109499 l 1
 288.383789062 655.682546999 l 1
 288.508789062 655.682546999 l 1
 296.994070436 647.197265625 l 1
 296.994070436 0.0009765625 l 1
 288.508789062 -8.48430481174 l 1
 202.235351562 -8.48430481174 l 1
 193.750070188 0.000976562500002 l 1
 193.750070188 290.208078001 l 1
193.750070188 643.530300052 m 1
 124.488211062 683.537787224 l 1
 124.488211062 352.04990781 l 1
 193.750070188 312.075364752 l 1
 193.750070188 643.530300052 l 1
EndSplineSet
EndChar

StartChar: Aacute
Encoding: 193 193 108
Width: 318
GlyphClass: 1
Flags: W
HStem: -8.4843 21G<21.5147 124.717 193.978 297.222>
VStem: 21.5147 103.202<0 290.208 352.05 683.537> 193.978 103.244<0.000976562 290.208 312.076 643.53>
LayerCount: 2
Fore
SplineSet
315.470703125 808.473703001 m 1
 189.823242188 735.961984251 l 1
 64.2177734375 735.961984251 l 1
 55.7324920633 744.447265625 l 1
 64.2177734375 752.932546999 l 1
 189.823242188 825.444265749 l 1
 315.470703125 825.444265749 l 1
 323.955984499 816.958984375 l 1
 315.470703125 808.473703001 l 1
193.977609251 290.208078001 m 1
 124.716726686 290.208078001 l 1
 124.716726686 5.37764277553e-17 l 1
 116.231445312 -8.48528137424 l 1
 30 -8.48528137424 l 1
 21.5147186258 1.83013326716e-15 l 1
 21.5147186258 696.923828125 l 1
 30 705.409109499 l 1
 202.462890625 705.409109499 l 1
 288.611328125 655.682546999 l 1
 288.736328125 655.682546999 l 1
 297.221609499 647.197265625 l 1
 297.221609499 0.0009765625 l 1
 288.736328125 -8.48430481174 l 1
 202.462890625 -8.48430481174 l 1
 193.977609251 0.000976562500002 l 1
 193.977609251 290.208078001 l 1
193.977609251 643.530300052 m 1
 124.716726686 683.537223136 l 1
 124.716726686 352.04990781 l 1
 193.977609251 312.075928375 l 1
 193.977609251 643.530300052 l 1
EndSplineSet
EndChar

StartChar: Acircumflex
Encoding: 194 194 109
Width: 318
GlyphClass: 1
Flags: W
HStem: -8.44329 21G<21.1622 124.364 193.625 296.869>
VStem: 21.1622 103.202<0.0419922 290.25 352.092 683.541> 193.625 103.244<0.0419922 290.25 312.118 643.567>
LayerCount: 2
Fore
SplineSet
193.625070188 290.250070188 m 1
 124.364187624 290.250070188 l 1
 124.364187624 0.0419921875 l 1
 115.87890625 -8.44328918674 l 1
 29.6474609375 -8.44328918674 l 1
 21.1621795633 0.0419921875 l 1
 21.1621795633 696.923828125 l 1
 29.6474609375 705.409109499 l 1
 202.110351562 705.409109499 l 1
 288.258789062 655.682546999 l 1
 288.383789062 655.682546999 l 1
 296.869070436 647.197265625 l 1
 296.869070436 0.0419921875 l 1
 288.383789062 -8.44328918674 l 1
 202.110351562 -8.44328918674 l 1
 193.625070188 0.0419921875 l 1
 193.625070188 290.250070188 l 1
147.144446225 788.227945083 m 1
 130.858408003 770.84886064 115.265042809 752.777103169 98.4150390625 735.961984251 c 1
 0.9990234375 735.961984251 l 1
 -7.48625793674 744.447265625 l 1
 89.9297576883 850.428710938 l 1
 98.4150390625 858.913992312 l 1
 195.873046875 858.913992312 l 1
 204.358328249 850.428710938 l 1
 301.774343874 744.447265625 l 1
 293.2890625 735.961984251 l 1
 195.873046875 735.961984251 l 1
 179.019112546 752.772903749 163.43470472 770.853349751 147.144446225 788.227945083 c 1
193.625070188 643.56727969 m 1
 124.364187624 683.541259125 l 1
 124.364187624 352.091899998 l 1
 193.625070188 312.117920562 l 1
 193.625070188 643.56727969 l 1
EndSplineSet
EndChar

StartChar: Atilde
Encoding: 195 195 110
Width: 318
GlyphClass: 1
Flags: W
HStem: -8.4843 21G<21.6065 124.809 194.069 297.313>
VStem: 21.6065 103.202<0 290.208 352.05 683.537> 194.069 103.244<0.000976562 290.208 312.076 643.53>
LayerCount: 2
Fore
SplineSet
146.96484375 778.288156126 m 1
 52.9990234375 750.183663938 l 1
 30.8871417826 771.328571429 8.23470039713 791.932919189 -13.4872344992 813.467773438 c 1
 -5.001953125 821.953054812 l 1
 71.5009765625 844.737234499 l 1
 104.887695312 836.795828249 l 2
 105.003550993 836.679972576 187.62298346 817.03619058 188.458984375 816.837820436 c 2
 188.958007812 816.380789186 l 1
 283.754882812 844.695242312 l 1
 305.866764467 823.550334821 328.519205853 802.945987061 350.241140749 781.411132812 c 1
 341.755859375 772.925851438 l 1
 265.252929688 750.141671751 l 1
 233.149190815 757.785003191 l 1
 233.072265625 757.708078001 l 1
 218.873007351 761.118226783 218.873007351 761.118226783 146.96484375 778.288156126 c 1
194.069406126 290.208078001 m 1
 124.808523562 290.208078001 l 1
 124.808523562 5.37764277553e-17 l 1
 116.323242188 -8.48528137424 l 1
 30.091796875 -8.48528137424 l 1
 21.6065155008 1.83013326716e-15 l 1
 21.6065155008 696.923828125 l 1
 30.091796875 705.409109499 l 1
 202.5546875 705.409109499 l 1
 288.703125 655.682546999 l 1
 288.828125 655.682546999 l 1
 297.313406374 647.197265625 l 1
 297.313406374 0.0009765625 l 1
 288.828125 -8.48430481174 l 1
 202.5546875 -8.48430481174 l 1
 194.069406126 0.000976562500002 l 1
 194.069406126 290.208078001 l 1
194.069406126 643.530300052 m 1
 124.808523562 683.537223136 l 1
 124.808523562 352.04990781 l 1
 194.069406126 312.075928375 l 1
 194.069406126 643.530300052 l 1
EndSplineSet
EndChar

StartChar: Adieresis
Encoding: 196 196 111
Width: 340
GlyphClass: 1
Flags: W
HStem: -8.48528 21G<43.2598 146.462 215.723 318.925> 732.593 119.376<29.999 132.404 208.034 310.439>
VStem: 21.5137 119.376<741.078 843.483> 43.2598 103.202<0 290.208 352.087 683.536> 199.549 119.376<741.078 843.483> 215.723 103.202<0 290.208 312.08 643.529>
LayerCount: 2
Fore
SplineSet
310.439453125 732.592843626 m 1xc8
 208.034179688 732.592843626 l 1
 199.548898314 741.078125 l 1
 199.548898314 843.483398438 l 1
 208.034179688 851.968679812 l 1
 310.439453125 851.968679812 l 1
 318.924734499 843.483398438 l 1
 318.924734499 741.078125 l 1
 310.439453125 732.592843626 l 1xc8
132.404296875 732.592843626 m 1
 29.9990234375 732.592843626 l 1
 21.5137420633 741.078125 l 1
 21.5137420633 843.483398438 l 1
 29.9990234375 851.968679812 l 1
 132.404296875 851.968679812 l 1
 140.889578249 843.483398438 l 1
 140.889578249 741.078125 l 1xe0
 132.404296875 732.592843626 l 1
215.722726438 290.208078001 m 1xd4
 146.461843874 290.208078001 l 1
 146.461843874 5.37764277553e-17 l 1
 137.9765625 -8.48528137424 l 1
 51.7451171875 -8.48528137424 l 1
 43.2598358133 1.83013326716e-15 l 1
 43.2598358133 696.923828125 l 1
 51.7451171875 705.409109499 l 1
 51.7451171875 705.409109499 137.9765625 705.409109499 137.977539063 705.408132936 c 2
 224.208007812 705.408132936 l 1
 224.208007812 705.408132936 310.356445312 655.681570436 310.439453125 655.681570436 c 2
 318.924734499 647.196289062 l 1
 318.924734499 5.37764277553e-17 l 1
 310.439453125 -8.48528137424 l 1
 224.208007812 -8.48528137424 l 1
 215.722726438 1.83013326716e-15 l 1
 215.722726438 290.208078001 l 1xd4
215.722726438 643.52932349 m 1
 146.461843874 683.536246573 l 1
 146.461843874 352.086887448 l 1
 215.722726438 312.079964364 l 1
 215.722726438 643.52932349 l 1
EndSplineSet
EndChar

StartChar: Aring
Encoding: 197 197 112
Width: 319
GlyphClass: 1
Flags: W
HStem: -8.48528 21G<21.5157 124.718 193.979 297.181>
VStem: 21.5157 103.202<0 293.118 354.96 686.447> 77.7696 46.7821<713.212 807.785> 137.434 46.7811<720.64 815.218> 193.979 103.202<0.000976562 293.118 314.986 646.44>
LayerCount: 2
Fore
SplineSet
193.978585814 293.118234251 m 1xb8
 124.717703249 293.118234251 l 1
 124.717703249 5.37764277553e-17 l 1
 116.232421875 -8.48528137424 l 1
 30.0009765625 -8.48528137424 l 1
 21.5156951883 1.83013326716e-15 l 1
 21.5156951883 699.833984375 l 1xd8
 30.0009765625 708.319265749 l 1
 77.7696014383 708.319265749 l 1
 77.7696014383 811.469726562 l 1
 86.2548828125 819.955007936 l 1
 86.4208984375 819.955007936 l 1
 116.232421875 837.167898562 l 1
 146.084960938 837.167898562 l 1
 146.126717903 837.126141598 l 1
 175.729492188 837.167898562 l 1
 184.214773562 828.682617188 l 1
 184.214773562 717.046875 l 1
 175.729492188 708.561593626 l 1
 202.463867188 708.319265749 l 1
 202.463867188 708.319265749 288.612304688 658.550711062 288.6953125 658.551687624 c 2
 297.180593874 650.06640625 l 1
 297.180593874 0.0009765625 l 1
 288.6953125 -8.48430481174 l 1
 202.463867188 -8.48430481174 l 1
 193.978585814 0.000976562500002 l 1
 193.978585814 293.118234251 l 1xb8
124.551687624 807.784874166 m 1xb8
 124.551687624 713.211855285 l 1
 137.433663938 720.639566839 l 1
 137.433663938 815.218103763 l 1
 124.551687624 807.784874166 l 1xb8
124.717703249 354.96006406 m 1xd8
 193.978585814 314.986084625 l 1
 193.978585814 646.440456302 l 1
 124.717703249 686.447379386 l 1
 124.717703249 354.96006406 l 1xd8
EndSplineSet
EndChar

StartChar: AE
Encoding: 198 198 113
Width: 448
GlyphClass: 1
Flags: W
HStem: -7.1552 42.0008<331.646 375.177> 688.32 20G<21.5157 204.751>
VStem: 21.5157 103.202<0.000976562 293.119 354.999 686.449> 193.772 103.41<54.8305 293.119 315.116 340.351 407.09 646.565>
LayerCount: 2
Fore
SplineSet
193.771554564 293.119210814 m 1
 124.717703249 293.119210814 l 1
 124.717703249 0.0009765625 l 1
 116.232421875 -8.48430481174 l 1
 30.0009765625 -8.48430481174 l 1
 21.5156951883 0.000976562500002 l 1
 21.5156951883 699.834960938 l 1
 30.0009765625 708.320242312 l 1
 202.463867188 708.320242312 l 1
 204.750976562 706.990164186 l 1
 331.604492188 706.990164186 l 1
 417.8359375 657.221609499 l 1
 426.321218874 648.736328125 l 1
 417.8359375 640.251046751 l 1
 331.604492188 640.251046751 l 1
 296.973562624 660.254955986 l 1
 296.973562624 650.315429687 l 1
 297.181570436 650.107421875 l 1
 297.181570436 407.089773562 l 1
 315.264648438 407.089773562 l 1
 401.49609375 357.321218874 l 1
 409.981375124 348.8359375 l 1
 401.49609375 340.350656126 l 1
 297.181570436 340.350656126 l 1
 297.181570436 54.8304850262 l 1
 331.645507812 34.8456329367 l 1
 375.176757812 34.8456329367 l 1
 418.293945312 9.81535949924 l 1
 426.779226686 1.330078125 l 1
 418.293945312 -7.15520324924 l 1
 290.026367187 -7.15520324924 l 1
 288.696289062 -8.48528137424 l 1
 202.46484375 -8.48528137424 l 1
 193.979562376 1.83013326716e-15 l 1
 193.979562376 51.182617188 l 1
 193.771554564 51.390625 l 1
 193.771554564 293.119210814 l 1
193.771554564 646.565018675 m 1
 124.717703249 686.448793576 l 1
 124.717703249 354.999434449 l 1
 193.771554564 315.11565955 l 1
 193.771554564 646.565018675 l 1
EndSplineSet
EndChar

StartChar: Ccedilla
Encoding: 199 199 114
Width: 262
GlyphClass: 1
Flags: W
VStem: 15.5577 100.906<46.7324 650.355> 120.749 64.618<-48.9375 -9.81634>
LayerCount: 2
Fore
SplineSet
185.367117312 -9.81633606174 m 1
 185.367117312 -48.9375 l 1
 148.488211062 -97.9990234375 l 1
 140.002929688 -106.484304812 l 1
 107.98828125 -106.484304812 l 1
 99.5029998758 -97.9990234375 l 1
 120.749093626 -48.9375 l 1
 120.749093626 -9.81633606174 l 1
 107.98828125 -9.81633606174 l 1
 80.1123058769 6.31061825269 52.0066714349 22.2079134982 24.04296875 38.2471405008 c 1
 15.5576873758 46.732421875 l 1
 15.5156951883 457.26953125 l 1
 15.7647186258 650.35546875 l 1
 24.25 658.840750124 l 1
 107.739257812 706.780203249 l 1
 191.060546875 706.780203249 l 1
 274.381835938 658.674734499 l 1
 282.867117312 650.189453125 l 1
 274.381835938 641.704171751 l 1
 191.060546875 641.704171751 l 1
 116.208758574 684.919782112 l 1
 115.97373409 457.600414471 l 2
 116.467692133 309.414778573 116.244697956 160.512190455 116.463878513 12.0517770703 c 1
 191.309570312 55.3007110617 l 1
 274.630859375 55.3007110617 l 1
 283.116140749 46.8154296875 l 1
 274.630859375 38.3301483133 l 1
 191.309570312 -9.81633606174 l 1
 185.367117312 -9.81633606174 l 1
EndSplineSet
EndChar

StartChar: Egrave
Encoding: 200 200 115
Width: 360
GlyphClass: 1
Flags: W
HStem: -8.4843 41.9579<243.128 286.659>
VStem: 105.295 103.202<53.6108 338.979 405.718 658.885>
LayerCount: 2
Fore
SplineSet
208.497000124 405.717703249 m 1
 226.74609375 405.717703249 l 1
 312.977539062 355.949148562 l 1
 321.462820436 347.463867188 l 1
 312.977539062 338.978585814 l 1
 208.497000124 338.978585814 l 1
 208.497000124 53.6108155671 l 1
 243.127929688 33.4735626242 l 1
 286.659179688 33.4735626242 l 1
 329.775390625 8.48625793674 l 1
 338.260671999 0.0009765625 l 1
 329.775390625 -8.48430481174 l 1
 200.01171875 -8.48430481174 l 2
 199.149676289 -7.98324087341 239.572219599 -31.570453369 113.780273438 41.5752655008 c 1
 105.294992064 50.060546875 l 1
 105.294992064 668.354222855 l 1
 70.6220703125 688.688546751 l 1
 62.1367889383 697.173828125 l 1
 70.6220703125 705.659109499 l 1
 243.0859375 705.659109499 l 1
 329.317382812 655.890554812 l 1
 337.802664186 647.405273438 l 1
 329.317382812 638.919992064 l 1
 243.0859375 638.919992064 l 1
 208.497000124 658.885403 l 1
 208.497000124 405.717703249 l 1
281.211914062 743.694406126 m 1
 155.606445312 743.694406126 l 1
 30.0009765625 816.206124876 l 1
 21.5156951883 824.69140625 l 1
 30.0009765625 833.176687624 l 1
 155.606445312 833.176687624 l 1
 281.211914062 760.664968874 l 1
 289.697195436 752.1796875 l 1
 281.211914062 743.694406126 l 1
EndSplineSet
EndChar

StartChar: Eacute
Encoding: 201 201 116
Width: 335
GlyphClass: 1
Flags: W
HStem: -8.4843 41.9579<202.506 246.038>
VStem: 64.6739 103.16<53.6155 338.979 405.718 658.89>
LayerCount: 2
Fore
SplineSet
167.833914186 405.717703249 m 1
 186.125 405.717703249 l 1
 272.356445312 355.949148562 l 1
 280.841726686 347.463867188 l 1
 272.356445312 338.978585814 l 1
 167.833914186 338.978585814 l 1
 167.833914186 53.6155047603 l 1
 202.505859375 33.4735626242 l 1
 246.038085938 33.4735626242 l 1
 289.154296875 8.48625793674 l 1
 297.639578249 0.0009765625 l 1
 289.154296875 -8.48430481174 l 1
 159.390625 -8.48430481174 l 2
 158.528582539 -7.9832408734 198.951126038 -31.5704534787 73.1591796875 41.5752655008 c 1
 64.6738983133 50.060546875 l 1
 64.6738983133 668.354222855 l 1
 30.0009765625 688.688546751 l 1
 21.5156951883 697.173828125 l 1
 30.0009765625 705.659109499 l 1
 202.46484375 705.659109499 l 1
 288.696289062 655.890554812 l 1
 297.181570436 647.405273438 l 1
 288.696289062 638.919992064 l 1
 202.46484375 638.919992064 l 1
 167.833914186 658.890173185 l 1
 167.833914186 405.717703249 l 1
305.243164062 816.414132688 m 1
 179.637695312 743.902413938 l 1
 54.0322265625 743.902413938 l 1
 45.5469451883 752.387695312 l 1
 54.0322265625 760.872976686 l 1
 179.637695312 833.384695436 l 1
 305.243164062 833.384695436 l 1
 313.728445436 824.899414062 l 1
 305.243164062 816.414132688 l 1
EndSplineSet
EndChar

StartChar: Ecircumflex
Encoding: 202 202 117
Width: 352
GlyphClass: 1
Flags: W
HStem: -8.4843 41.9989<219.054 262.585>
VStem: 81.2208 103.202<53.6181 339.02 405.759 658.918>
LayerCount: 2
Fore
SplineSet
184.422781374 405.758718874 m 1
 202.671875 405.758718874 l 1
 288.903320312 355.990164186 l 1
 297.388601686 347.504882812 l 1
 288.903320312 339.019601438 l 1
 184.422781374 339.019601438 l 1
 184.422781374 53.6181030779 l 1
 219.053710938 33.5145782492 l 1
 262.584960938 33.5145782492 l 1
 305.701171875 8.48625793674 l 1
 314.186453249 0.0009765625 l 1
 305.701171875 -8.48430481174 l 1
 175.9375 -8.48430481174 l 2
 175.598391574 -8.28688282235 175.598391574 -8.28688282235 89.7060546875 41.5742889383 c 1
 81.2207733133 50.0595703125 l 1
 81.2207733133 668.386293601 l 1
 46.5478515625 688.687570188 l 1
 38.0625701883 697.172851562 l 1
 46.5478515625 705.658132936 l 1
 219.01171875 705.658132936 l 1
 305.243164062 655.889578249 l 1
 313.728445436 647.404296875 l 1
 305.243164062 638.919015501 l 1
 219.01171875 638.919015501 l 1
 184.422781374 658.918146495 l 1
 184.422781374 405.758718874 l 1
176.141935205 796.164395634 m 1
 159.857386342 778.78663626 144.265635113 760.716079251 127.416992188 743.902413938 c 1
 30.0009765625 743.902413938 l 1
 21.5156951883 752.387695312 l 1
 118.931710814 858.369140625 l 1
 127.416992188 866.854421999 l 1
 224.833007812 866.854421999 l 1
 233.318289186 858.369140625 l 1
 330.734304812 752.387695312 l 1
 322.249023438 743.902413938 l 1
 224.833007812 743.902413938 l 1
 207.985573137 760.705997364 192.420094833 778.791537161 176.141935205 796.164395634 c 1
EndSplineSet
EndChar

StartChar: Edieresis
Encoding: 203 203 118
Width: 340
GlyphClass: 1
Flags: W
HStem: -8.48626 42.0838<223.461 267.2> 688.069 20G<41.8878 258.115> 729.6 119.376<30 132.405 208.035 310.44>
VStem: 21.5147 119.376<738.085 840.49> 85.212 103.452<53.7875 340.184 407.131 661.254> 199.55 119.376<738.085 840.49>
LayerCount: 2
Fore
SplineSet
188.663992312 407.130789186 m 1xec
 207.079101562 407.130789186 l 1
 293.560546875 357.154226686 l 1
 302.045828249 348.668945312 l 1
 293.560546875 340.183663938 l 1
 188.663992312 340.183663938 l 1
 188.663992312 53.7875240699 l 1
 223.4609375 33.5975860617 l 1
 267.200195312 33.5975860617 l 1
 310.440429688 8.48430481174 l 1
 318.925711062 -0.0009765625 l 1
 310.440429688 -8.48625793674 l 1
 180.219726562 -8.48625793674 l 1
 169.196937106 -2.06623301019 169.196937106 -2.06623301019 93.697265625 41.7403045633 c 1
 85.2119842508 50.2255859375 l 1
 85.2119842508 670.6785934 l 1
 50.373046875 691.098703001 l 1
 41.8877655008 699.583984375 l 1
 50.373046875 708.069265749 l 1
 223.4609375 708.069265749 l 1
 309.983398438 658.134695436 l 1
 318.468679812 649.649414062 l 1
 309.983398438 641.164132688 l 1
 223.4609375 641.164132688 l 1
 188.663992312 661.253576371 l 1
 188.663992312 407.130789186 l 1xec
310.440429688 729.599679564 m 1
 208.03515625 729.599679564 l 1
 199.549874876 738.084960938 l 1
 199.549874876 840.490234375 l 1
 208.03515625 848.975515749 l 1
 310.440429688 848.975515749 l 1
 318.925711062 840.490234375 l 1
 318.925711062 738.084960938 l 1
 310.440429688 729.599679564 l 1
132.405273438 729.599679564 m 1
 30 729.599679564 l 1
 21.5147186258 738.084960938 l 1
 21.5147186258 840.490234375 l 1
 30 848.975515749 l 1
 132.405273438 848.975515749 l 1
 140.890554812 840.490234375 l 1
 140.890554812 738.084960938 l 1xf4
 132.405273438 729.599679564 l 1
EndSplineSet
EndChar

StartChar: Igrave
Encoding: 204 204 119
Width: 311
GlyphClass: 1
Flags: W
HStem: -8.4843 21G<147.119 251.652> 688.277 20G<208.196 251.403>
VStem: 147.452 104.2<0.000976562 649.691>
LayerCount: 2
Fore
SplineSet
251.403250124 699.791992188 m 1
 251.195242312 649.692382812 l 1
 251.652273562 0.0009765625 l 1
 243.166992188 -8.48430481174 l 1
 155.604492188 -8.48430481174 l 1
 147.119210814 0.000976562500002 l 1
 147.270955587 16.7020963722 147.094070309 33.7318462335 147.452218626 50.2265625 c 2
 147.452218626 649.69140625 l 1
 155.9375 658.176687624 l 1
 242.91796875 708.277273562 l 1
 251.403250124 699.791992188 l 1
155.60546875 820.953054812 m 1
 281.2109375 748.441336062 l 1
 289.696218874 739.956054688 l 1
 281.2109375 731.470773314 l 1
 155.60546875 731.470773314 l 1
 30 803.982492064 l 1
 21.5147186258 812.467773438 l 1
 30 820.953054812 l 1
 155.60546875 820.953054812 l 1
EndSplineSet
EndChar

StartChar: Iacute
Encoding: 205 205 120
Width: 311
GlyphClass: 1
Flags: W
HStem: -8.4843 21G<40.8887 145.422> 688.277 20G<101.965 145.173>
VStem: 41.2217 104.2<0.000976562 649.691>
LayerCount: 2
Fore
SplineSet
145.172781374 699.791992188 m 1
 144.964773562 649.692382812 l 1
 145.421804812 0.0009765625 l 1
 136.936523438 -8.48430481174 l 1
 49.3740234375 -8.48430481174 l 1
 40.8887420633 0.000976562500002 l 1
 41.0404868368 16.7020963722 40.8636015589 33.7318462335 41.2217498758 50.2265625 c 2
 41.2217498758 649.69140625 l 1
 49.70703125 658.176687624 l 1
 136.6875 708.277273562 l 1
 145.172781374 699.791992188 l 1
155.60546875 828.769461062 m 1
 281.2109375 828.769461062 l 1
 289.696218874 820.284179688 l 1
 281.2109375 811.798898314 l 1
 155.60546875 739.287179564 l 1
 30 739.287179564 l 1
 21.5147186258 747.772460938 l 1
 30 756.257742312 l 1
 155.60546875 828.769461062 l 1
EndSplineSet
EndChar

StartChar: Icircumflex
Encoding: 206 206 121
Width: 352
GlyphClass: 1
Flags: W
HStem: -8.48528 21G<123.712 228.245> 688.277 20G<184.76 227.996>
VStem: 124.045 103.743<0 649.732>
LayerCount: 2
Fore
SplineSet
227.996023562 699.791992188 m 1
 227.788015749 649.732421875 l 1
 228.245046999 5.37764277553e-17 l 1
 219.759765625 -8.48528137424 l 1
 132.197265625 -8.48528137424 l 1
 123.711984251 1.83013326716e-15 l 1
 123.863729025 16.7011198097 123.686843747 33.730869671 124.044992064 50.2255859375 c 2
 124.044992064 649.732421875 l 1
 132.530273438 658.217703249 l 1
 219.510742188 708.277273562 l 1
 227.996023562 699.791992188 l 1
233.318289186 853.75390625 m 1
 330.734304812 747.772460938 l 1
 322.249023438 739.287179564 l 1
 224.833007812 739.287179564 l 1
 207.985573137 756.09076299 192.420094833 774.176302787 176.141935205 791.54916126 c 1
 159.857386342 774.171401886 144.265635113 756.100844877 127.416992188 739.287179564 c 1
 30.0009765625 739.287179564 l 1
 21.5156951883 747.772460938 l 1
 118.931710814 853.75390625 l 1
 127.416992188 862.239187624 l 1
 224.833007812 862.239187624 l 1
 233.318289186 853.75390625 l 1
EndSplineSet
EndChar

StartChar: Idieresis
Encoding: 207 207 122
Width: 340
GlyphClass: 1
Flags: W
HStem: -8.48528 21G<117.892 161.098> 688.318 20G<178.993 222.217> 733.383 119.376<30.001 132.406 208.036 310.441>
VStem: 21.5157 119.376<741.868 844.273> 118.224 103.744<49.9346 649.732> 199.551 119.376<741.868 844.273>
LayerCount: 2
Fore
SplineSet
310.44140625 733.382882688 m 1xe4
 208.036132812 733.382882688 l 1
 199.550851438 741.868164062 l 1
 199.550851438 844.2734375 l 1
 208.036132812 852.758718874 l 1
 310.44140625 852.758718874 l 1
 318.926687624 844.2734375 l 1
 318.926687624 741.868164062 l 1
 310.44140625 733.382882688 l 1xe4
132.40625 733.382882688 m 1
 30.0009765625 733.382882688 l 1
 21.5156951883 741.868164062 l 1
 21.5156951883 844.2734375 l 1
 30.0009765625 852.758718874 l 1
 132.40625 852.758718874 l 1
 140.891531374 844.2734375 l 1
 140.891531374 741.868164062 l 1xf0
 132.40625 733.382882688 l 1
118.223703136 50.2255860732 m 0xe8
 118.223703136 250.061198007 118.224679564 449.896809941 118.224679564 649.732421875 c 1
 126.709960938 658.217703249 l 1
 213.731445312 708.318289186 l 1
 222.216726686 699.833007812 l 1
 221.967703249 649.732421875 l 1
 221.967703249 49.9345703125 l 1
 213.482421875 41.4492889383 l 1
 213.06640625 41.4492889383 l 1
 126.376953125 -8.48528137424 l 1
 117.891671751 1.83013326716e-15 l 1
 118.029169966 16.7150409372 117.949425185 33.6473248718 118.223703136 50.2255860732 c 0xe8
EndSplineSet
EndChar

StartChar: Ntilde
Encoding: 209 209 123
Width: 407
GlyphClass: 1
Flags: W
HStem: -8.44427 20.958G<63.9649 159.639 238.799 334.431> 688.9 20G<63.8819 107.004 153.206 281.821>
VStem: 63.9649 104.159<0.207031 646.492> 238.799 104.117<0.207031 650.106>
LayerCount: 2
Fore
SplineSet
116.569328607 683.376875607 m 1
 131.016788984 692.084693554 145.899480534 700.357280329 160.51171875 708.900320436 c 1
 247.159179688 708.900320436 l 1
 334.34765625 658.591726686 l 1
 342.832937624 650.106445312 l 1
 342.915945436 0.20703125 l 1
 334.430664062 -8.27825012424 l 1
 247.284179688 -8.48625793674 l 1
 238.798898314 -0.000976562499998 l 1
 238.676281624 687.060567205 l 1
 167.999648419 646.492121471 l 1
 168.123953249 0.20703125 l 1
 159.638671875 -8.27825012424 l 1
 72.4501953125 -8.44426574924 l 1
 63.9649139383 0.041015625 l 1
 63.8819061258 700.415039062 l 1
 72.3671875 708.900320436 l 1
 116.569328607 683.376875607 l 1
182.0078125 777.206124876 m 1
 88 749.140695188 l 1
 65.8887555205 770.272567979 43.2299117345 790.856841463 21.5137420633 812.383789062 c 1
 29.9990234375 820.869070436 l 1
 106.54296875 843.653250124 l 2
 107.712737583 843.375007406 199.75533398 821.403295025 223.501953125 815.753836062 c 1
 223.958984375 815.296804812 l 1
 318.797851562 843.611257936 l 1
 340.909733217 822.466350446 363.562174603 801.862002687 385.284109499 780.327148438 c 1
 376.798828125 771.841867064 l 1
 300.254882812 749.098703001 l 1
 300.254882812 749.098703001 268.158373981 756.709225419 268.115234375 756.666085814 c 0
 245.144304324 762.206152655 245.144304324 762.206152655 182.0078125 777.206124876 c 1
EndSplineSet
EndChar

StartChar: Ograve
Encoding: 210 210 124
Width: 356
GlyphClass: 1
Flags: W
HStem: -8.48528 21G<66.5469 274.189> 687.654 20G<118.42 239.758 239.758 334.518>
VStem: 58.0616 103.452<13.3824 645.608> 231.065 103.452<53.5228 685.782>
LayerCount: 2
Fore
SplineSet
281.211914062 737.916085814 m 1
 155.606445312 737.916085814 l 1
 30.0009765625 810.427804564 l 1
 21.5156951883 818.913085938 l 1
 30.0009765625 827.398367312 l 1
 155.606445312 827.398367312 l 1
 281.211914062 754.886648562 l 1
 289.697195436 746.401367188 l 1
 281.211914062 737.916085814 l 1
231.065499876 53.5227547386 m 1
 231.065499876 685.782448804 l 1
 161.513601686 645.608316571 l 1
 161.513601686 13.3823783224 l 1
 231.065499876 53.5227547386 l 1
239.758289956 707.446717981 m 1
 326.032226562 707.654226686 l 1
 334.517507936 699.168945312 l 1
 334.517507936 49.9345703125 l 1
 326.032226562 41.4492889383 l 1
 239.55078125 -8.48528137424 l 1
 153.028320312 -8.48528137424 l 1
 66.546875 -8.27727356174 l 1
 58.0615936258 0.2080078125 l 1
 58.0615936258 649.192382812 l 1
 66.546875 657.677664186 l 1
 153.028320312 707.654226686 l 1
 239.55078125 707.654226686 l 1
 239.758289956 707.446717981 l 1
EndSplineSet
EndChar

StartChar: Oacute
Encoding: 211 211 125
Width: 358
GlyphClass: 1
Flags: W
HStem: -8.48528 21G<30 237.658> 687.654 19.958G<81.8681 203.21 203.21 298.012>
VStem: 21.5147 103.493<13.3847 645.607> 194.519 103.493<53.5204 685.742>
LayerCount: 2
Fore
SplineSet
327.819335938 819.325265501 m 1
 202.213867188 746.813546751 l 1
 76.6083984375 746.813546751 l 1
 68.1231170633 755.298828125 l 1
 76.6083984375 763.784109499 l 1
 202.213867188 836.295828249 l 1
 327.819335938 836.295828249 l 1
 336.304617312 827.810546875 l 1
 327.819335938 819.325265501 l 1
194.518624876 53.5204321884 m 1
 194.518624876 685.742252252 l 1
 125.007742312 645.606520936 l 1
 125.007742312 13.3847008725 l 1
 194.518624876 53.5204321884 l 1
203.210343346 707.405797403 m 1
 289.526367188 707.654226686 l 1
 298.011648562 699.168945312 l 1
 298.011648562 49.9345703125 l 1
 289.526367188 41.4492889383 l 1
 203.00390625 -8.48528137424 l 1
 116.522460938 -8.48528137424 l 1
 30 -8.27727356174 l 1
 21.5147186258 0.2080078125 l 1
 21.5147186258 649.192382812 l 1
 30 657.677664186 l 1
 116.522460938 707.612234499 l 1
 203.00390625 707.612234499 l 1
 203.210343346 707.405797403 l 1
EndSplineSet
EndChar

StartChar: Ocircumflex
Encoding: 212 212 126
Width: 352
GlyphClass: 1
Flags: W
HStem: -8.4843 21G<46.3818 254.011> 687.655 20G<98.2254 219.592 219.592 314.393>
VStem: 37.8966 103.452<13.3875 645.647> 210.9 103.493<53.5616 685.787>
LayerCount: 2
Fore
SplineSet
176.141935205 794.876309697 m 1
 159.857386342 777.498550323 144.265635113 759.427993314 127.416992188 742.614328001 c 1
 30.0009765625 742.614328001 l 1
 21.5156951883 751.099609375 l 1
 118.931710814 857.081054688 l 1
 127.416992188 865.566336062 l 1
 224.833007812 865.566336062 l 1
 233.318289186 857.081054688 l 1
 330.734304812 751.099609375 l 1
 322.249023438 742.614328001 l 1
 224.833007812 742.614328001 l 1
 207.985573137 759.417911427 192.420094833 777.503451224 176.141935205 794.876309697 c 1
210.900460814 53.5616053033 m 1
 210.900460814 685.786662761 l 1
 141.348562624 645.647071364 l 1
 141.348562624 13.3874730702 l 1
 210.900460814 53.5616053033 l 1
219.59227691 707.447691964 m 1
 305.908203125 707.655203249 l 1
 314.393484499 699.169921875 l 1
 314.393484499 49.9775390625 l 1
 305.908203125 41.4922576883 l 1
 219.385742188 -8.48430481174 l 1
 132.86328125 -8.48430481174 l 1
 46.3818359375 -8.23528137424 l 1
 37.8965545633 0.25 l 1
 37.8965545633 649.234375 l 1
 46.3818359375 657.719656374 l 1
 132.86328125 707.654226686 l 1
 219.385742188 707.654226686 l 1
 219.59227691 707.447691964 l 1
EndSplineSet
EndChar

StartChar: Otilde
Encoding: 213 213 127
Width: 407
GlyphClass: 1
Flags: W
HStem: -8.48528 21G<73.7402 281.398> 687.612 20G<125.608 246.952 246.952 341.752>
VStem: 65.255 103.493<13.3847 645.607> 238.259 103.493<53.5204 685.742>
LayerCount: 2
Fore
SplineSet
182.0078125 772.382882688 m 1
 88 744.317453001 l 1
 65.8887555205 765.449325792 43.2299117345 786.033599276 21.5137420633 807.560546875 c 1
 29.9990234375 816.045828249 l 1
 106.54296875 838.830007936 l 1
 139.9296875 830.888601686 l 2
 140.010932342 830.807356849 222.666059761 811.129457773 223.501953125 810.930593874 c 2
 223.958984375 810.473562624 l 1
 318.797851562 838.788015749 l 1
 340.909733217 817.643108259 363.562174603 797.038760499 385.284109499 775.50390625 c 1
 376.798828125 767.018624876 l 1
 300.254882812 744.275460814 l 1
 300.254882812 744.275460814 268.158373981 751.885983231 268.115234375 751.842843626 c 0
 245.144304324 757.382910467 245.144304324 757.382910467 182.0078125 772.382882688 c 1
238.258859251 53.5204321885 m 1
 238.258859251 685.742252252 l 1
 168.747976686 645.606520936 l 1
 168.747976686 13.3847008725 l 1
 238.258859251 53.5204321885 l 1
246.951649568 707.404725556 m 1
 333.266601562 707.612234499 l 1
 341.751882936 699.126953125 l 1
 341.751882936 49.9345703125 l 1
 333.266601562 41.4492889383 l 1
 246.744140625 -8.48528137424 l 1
 160.262695312 -8.48528137424 l 1
 73.740234375 -8.27727356174 l 1
 65.2549530008 0.2080078125 l 1
 65.2549530008 649.192382812 l 1
 73.740234375 657.677664186 l 1
 160.262695312 707.612234499 l 1
 246.744140625 707.612234499 l 1
 246.951649568 707.404725556 l 1
EndSplineSet
EndChar

StartChar: Odieresis
Encoding: 214 214 128
Width: 340
GlyphClass: 1
Flags: W
HStem: -8.4843 21G<40.5205 248.174> 687.654 20G<92.3886 213.772 213.772 308.532> 744.402 119.376<30.001 132.406 208.036 310.441>
VStem: 21.5157 119.376<752.888 855.293> 32.0352 103.493<13.3875 645.647> 199.551 119.376<752.888 855.293> 205.08 103.452<53.5616 685.787>
LayerCount: 2
Fore
SplineSet
310.44140625 744.402413938 m 1xe4
 208.036132812 744.402413938 l 1
 199.550851438 752.887695312 l 1
 199.550851438 855.29296875 l 1
 208.036132812 863.778250124 l 1
 310.44140625 863.778250124 l 1
 318.926687624 855.29296875 l 1
 318.926687624 752.887695312 l 1
 310.44140625 744.402413938 l 1xe4
132.40625 744.402413938 m 1
 30.0009765625 744.402413938 l 1
 21.5156951883 752.887695312 l 1
 21.5156951883 855.29296875 l 1
 30.0009765625 863.778250124 l 1
 132.40625 863.778250124 l 1
 140.891531374 855.29296875 l 1
 140.891531374 752.887695312 l 1xf0
 132.40625 744.402413938 l 1
205.080148314 53.5616053033 m 1xea
 205.080148314 685.786662761 l 1
 135.528250124 645.647071364 l 1
 135.528250124 13.3874730702 l 1
 205.080148314 53.5616053033 l 1xea
127.04296875 -8.48430481174 m 1
 40.5205078125 -8.23528137424 l 1
 32.0352264383 0.25 l 1
 32.0352264383 649.234375 l 1
 40.5205078125 657.719656374 l 1
 127.04296875 707.654226686 l 1
 213.565429688 707.654226686 l 1
 213.771964175 707.447692199 l 1
 300.046875 707.655203249 l 1
 308.532156374 699.169921875 l 1
 308.532156374 49.9775390625 l 1
 300.046875 41.4922576883 l 1
 213.565429688 -8.48430481174 l 1
 127.04296875 -8.48430481174 l 1
EndSplineSet
EndChar

StartChar: Oslash
Encoding: 216 216 129
Width: 659
GlyphClass: 1
Flags: W
HStem: -8.4843 21G<21.5157 89.0029 220.925 428.583> 687.613 20G<272.793 394.136 394.136 488.936 569.59 637.036>
VStem: 212.44 103.493<13.3857 158.113 244.27 290.254 376.377 645.607> 385.443 103.493<53.5214 379.014 465.171 511.155 597.31 685.743>
LayerCount: 2
Fore
SplineSet
637.036062624 700.291015625 m 1
 488.936453249 511.155273438 l 1
 488.936453249 49.935546875 l 1
 480.451171875 41.4502655008 l 1
 393.928710938 -8.48430481174 l 1
 307.447265625 -8.48430481174 l 1
 220.924804688 -8.27629699924 l 1
 212.439523314 0.208984375 l 1
 212.439523314 158.112969573 l 1
 89.0028594992 0.5 l 1
 80.517578125 -7.98528137424 l 1
 30.0009765625 -7.98528137424 l 1
 21.5156951883 0.5 l 1
 212.439523314 244.26953125 l 1
 212.439523314 649.193359375 l 1
 220.924804688 657.678640749 l 1
 307.447265625 707.613211062 l 1
 393.928710938 707.613211062 l 1
 394.136121794 707.405800206 l 1
 480.451171875 707.654226686 l 1
 488.936453249 699.168945312 l 1
 488.936453249 597.31014818 l 1
 569.589913938 700.291015625 l 1
 578.075195312 708.776296999 l 1
 628.55078125 708.776296999 l 1
 637.036062624 700.291015625 l 1
315.932546999 376.377470834 m 1
 385.443429564 465.170898438 l 1
 385.443429564 685.743228815 l 1
 315.932546999 645.607497499 l 1
 315.932546999 376.377470834 l 1
385.443429564 379.013581943 m 1
 315.932546999 290.25390625 l 1
 315.932546999 13.385677435 l 1
 385.443429564 53.521408751 l 1
 385.443429564 379.013581943 l 1
EndSplineSet
EndChar

StartChar: Ugrave
Encoding: 217 217 130
Width: 343
GlyphClass: 1
Flags: W
HStem: -8.48528 21G<52.8643 180.013> 688.527 20G<220.921 321.92>
VStem: 52.8643 100.999<57.0068 651.646> 220.921 100.999<57.0068 700.042>
LayerCount: 2
Fore
SplineSet
281.211914062 737.708078001 m 1
 155.606445312 737.708078001 l 1
 30.0009765625 810.219796751 l 1
 21.5156951883 818.705078125 l 1
 30.0009765625 827.190359499 l 1
 155.606445312 827.190359499 l 1
 281.211914062 754.678640749 l 1
 289.697195436 746.193359375 l 1
 281.211914062 737.708078001 l 1
52.968331907 0.10400390625 m 1
 52.8643280008 0.2080078125 l 1
 52.8643280008 651.645507812 l 1
 61.349609375 660.130789186 l 1
 145.377929688 660.130789186 l 1
 153.863211062 651.645507812 l 1
 153.863211062 57.0067657492 l 1
 220.920968626 57.0067657492 l 1
 220.920968626 700.041992188 l 1
 229.40625 708.527273562 l 1
 313.434570312 708.527273562 l 1
 321.919851686 700.041992188 l 1
 321.919851686 48.521484375 l 1
 313.434570312 40.0362030008 l 1
 229.40625 40.0362030008 l 1
 145.377929688 -8.48528137424 l 1
 61.349609375 -8.48528137424 l 1
 52.8643280008 1.83013326716e-15 l 1
 52.968331907 0.10400390625 l 1
EndSplineSet
EndChar

StartChar: Uacute
Encoding: 218 218 131
Width: 354
GlyphClass: 1
Flags: W
HStem: -8.4843 21G<21.5147 148.664> 688.57 20G<189.571 290.57>
VStem: 21.5147 100.999<57.0077 651.646> 189.571 100.999<57.0077 700.085>
LayerCount: 2
Fore
SplineSet
323.662109375 810.303781126 m 1
 198.056640625 737.792062376 l 1
 72.451171875 737.792062376 l 1
 63.9658905008 746.27734375 l 1
 72.451171875 754.762625124 l 1
 198.056640625 827.274343874 l 1
 323.662109375 827.274343874 l 1
 332.147390749 818.7890625 l 1
 323.662109375 810.303781126 l 1
21.6392303445 0.12548828125 m 1
 21.5147186258 0.25 l 1
 21.5147186258 651.645507812 l 1
 30 660.130789186 l 1
 114.028320312 660.130789186 l 1
 122.513601686 651.645507812 l 1
 122.513601686 57.0077423117 l 1
 189.571359251 57.0077423117 l 1
 189.571359251 700.084960938 l 1
 198.056640625 708.570242312 l 1
 282.084960938 708.570242312 l 1
 290.570242312 700.084960938 l 1
 290.570242312 48.564453125 l 1
 282.084960938 40.0791717508 l 1
 282.084960938 40.0791717508 198.098632812 40.0791717508 198.056640625 40.0371795633 c 2
 114.028320312 -8.48430481174 l 1
 30 -8.48430481174 l 1
 21.5147186258 0.000976562500002 l 1
 21.6392303445 0.12548828125 l 1
EndSplineSet
EndChar

StartChar: Ucircumflex
Encoding: 219 219 132
Width: 352
GlyphClass: 1
Flags: W
HStem: -8.48528 21G<41.6798 168.829> 688.527 20G<209.736 310.735>
VStem: 41.6798 100.999<57.0068 651.604> 209.736 100.999<57.0068 700.042>
LayerCount: 2
Fore
SplineSet
176.141935205 787.141934697 m 1
 159.857386342 769.764175323 144.265635113 751.693618314 127.416992188 734.879953001 c 1
 30.0009765625 734.879953001 l 1
 21.5156951883 743.365234375 l 1
 118.931710814 849.346679688 l 1
 127.416992188 857.831961062 l 1
 224.833007812 857.831961062 l 1
 233.318289186 849.346679688 l 1
 330.776296999 743.365234375 l 1
 322.291015625 734.879953001 l 1
 224.833007812 734.879953001 l 1
 207.985573137 751.683536427 192.420094833 769.769076224 176.141935205 787.141934697 c 1
41.7837615945 0.10400390625 m 1
 41.6797576883 0.2080078125 l 1
 41.6797576883 651.603515625 l 1
 50.1650390625 660.088796999 l 1
 134.193359375 660.088796999 l 1
 142.678640749 651.603515625 l 1
 142.678640749 57.0067657492 l 1
 209.736398314 57.0067657492 l 1
 209.736398314 700.041992188 l 1
 218.221679688 708.527273562 l 1
 302.25 708.527273562 l 1
 310.735281374 700.041992188 l 1
 310.735281374 48.521484375 l 1
 302.25 40.0362030008 l 1
 218.221679688 40.0362030008 l 1
 134.193359375 -8.48528137424 l 1
 50.1650390625 -8.48528137424 l 1
 41.6797576883 1.83013326716e-15 l 1
 41.7837615945 0.10400390625 l 1
EndSplineSet
EndChar

StartChar: Udieresis
Encoding: 220 220 133
Width: 340
GlyphClass: 1
Flags: W
HStem: -8.48528 21G<35.6925 162.872> 688.527 20G<203.749 304.748> 736.669 119.376<30 132.405 208.035 310.44>
VStem: 21.5147 119.376<745.154 847.56> 35.6925 100.999<56.9648 651.604> 199.55 119.376<745.154 847.56> 203.749 100.999<56.9648 700.042>
LayerCount: 2
Fore
SplineSet
310.440429688 736.669015501 m 1xe4
 208.03515625 736.669015501 l 1
 199.549874876 745.154296875 l 1
 199.549874876 847.559570312 l 1
 208.03515625 856.044851686 l 1
 310.440429688 856.044851686 l 1
 318.925711062 847.559570312 l 1
 318.925711062 745.154296875 l 1
 310.440429688 736.669015501 l 1xe4
132.405273438 736.669015501 m 1
 30 736.669015501 l 1
 21.5147186258 745.154296875 l 1
 21.5147186258 847.559570312 l 1
 30 856.044851686 l 1
 132.405273438 856.044851686 l 1
 140.890554812 847.559570312 l 1
 140.890554812 745.154296875 l 1xf0
 132.405273438 736.669015501 l 1
35.796456907 0.10400390625 m 1
 35.6924530008 0.2080078125 l 1
 35.6924530008 651.603515625 l 1
 44.177734375 660.088796999 l 1
 128.206054688 660.088796999 l 1
 136.691336062 651.603515625 l 1
 136.691336062 56.9647735617 l 1
 203.749093626 56.9647735617 l 1
 203.749093626 700.041992188 l 1
 212.234375 708.527273562 l 1
 296.262695312 708.527273562 l 1
 304.747976686 700.041992188 l 1
 304.747976686 48.521484375 l 1
 296.262695312 40.0362030008 l 1
 296.262695312 40.0362030008 212.276367188 40.0362030008 212.234375 39.9942108133 c 2
 128.206054688 -8.48528137424 l 1
 44.177734375 -8.48528137424 l 1
 35.6924530008 1.83013326716e-15 l 1xea
 35.796456907 0.10400390625 l 1
EndSplineSet
EndChar

StartChar: Yacute
Encoding: 221 221 134
Width: 376
GlyphClass: 1
Flags: W
HStem: -8.48528 21G<108.329 151.411> 689.399 20G<256.216 299.344>
VStem: 21.8887 103.571<404.524 652.685> 108.329 103.493<50.0176 341.556> 194.974 103.497<364.4 650.938>
LayerCount: 2
Fore
SplineSet
346.032226562 813.544015501 m 1xc0
 220.426757812 741.032296751 l 1
 94.8212890625 741.032296751 l 1
 86.3360076883 749.517578125 l 1
 94.8212890625 758.002859499 l 1
 220.426757812 830.514578249 l 1
 346.032226562 830.514578249 l 1
 354.517507936 822.029296875 l 1
 346.032226562 813.544015501 l 1xc0
125.459816171 404.523550334 m 1xe0
 194.973578548 364.399641871 l 1
 195.808663938 650.9375 l 1
 204.293945312 659.422781374 l 1
 290.858398438 709.399343874 l 1
 299.343679812 700.9140625 l 1
 298.470632936 350.041015625 l 1xe8
 289.985351562 341.555734251 l 1
 212.711355308 341.555734251 l 1
 211.822195436 50.017578125 l 1
 203.336914062 41.5322967508 l 1
 116.814453125 -8.48528137424 l 1
 108.329171751 1.83013326716e-15 l 1xd0
 109.150839977 346.951581294 l 1
 30.3740234375 392.447335814 l 1
 21.8887420633 400.932617188 l 1
 21.5147186258 702.661132812 l 1
 30 711.146414186 l 1
 116.564453125 661.169851686 l 1
 125.049734499 652.684570312 l 1
 125.459816171 404.523550334 l 1xe0
EndSplineSet
EndChar

StartChar: agrave
Encoding: 224 224 135
Width: 427
GlyphClass: 1
Flags: W
HStem: -8.40227 21G<53.9874 146.875 221.711 327.628> 495.565 20G<230.196 265.066>
VStem: 54.0294 100.583<57.5048 221.898 222.314 238.475 362.223 455.219> 221.711 100.625<57.5048 277.15 298.779 459.1>
LayerCount: 2
Fore
SplineSet
281.211914062 559.878976438 m 1
 155.606445312 559.878976438 l 1
 30.0009765625 632.390695188 l 1
 21.5156951883 640.875976562 l 1
 30.0009765625 649.361257936 l 1
 155.606445312 649.361257936 l 1
 281.211914062 576.849539186 l 1
 289.697195436 568.364257812 l 1
 281.211914062 559.878976438 l 1
322.335867312 57.0896744566 m 1
 347.378208416 57.0896744566 372.420549521 57.0887969992 397.462890625 57.0887969992 c 1
 405.948171999 48.603515625 l 1
 397.462890625 40.1182342508 l 1
 369.644727572 23.8921264703 341.40564678 8.08693642963 313.850585938 -8.40227356174 c 1
 230.196289062 -8.40227356174 l 1
 221.711007688 0.0830078125 l 1
 221.711007688 35.4241950242 l 1
 147 -7.73723449924 l 1
 146.875 -7.73723449924 l 1
 146.126953125 -8.48528137424 l 1
 62.47265625 -8.48528137424 l 1
 53.9873748758 1.83013326716e-15 l 1
 53.9873748758 1.83013326716e-15 53.9873748758 241.856445312 54.0293670633 241.8984375 c 2
 54.0293670633 242.022460938 l 1
 62.5146484375 250.507742312 l 1
 146.168945312 298.779226686 l 1
 221.711007688 298.779226686 l 1
 221.711007688 493.697513093 l 1
 155.027273562 455.218642908 l 1
 155.027273562 362.22265625 l 1
 146.541992188 353.737374876 l 1
 62.9296875 353.737374876 l 1
 54.4444061258 362.22265625 l 1
 54.4444061258 458.807617188 l 1
 62.9296875 467.292898562 l 1
 146.541992188 515.564382936 l 1
 146.541992188 515.564382936 230.195312499 515.564382936 230.196289062 515.565359499 c 2
 313.850585938 467.584890749 l 1
 322.335867312 459.099609375 l 1
 322.335867312 57.0896744566 l 1
221.711007688 57.5048126242 m 1
 221.711007688 277.149510275 l 1
 154.72155477 238.4748159 l 1
 155.028250124 222.314453125 l 1
 154.612234499 221.8984375 l 1
 154.612234499 57.5048126242 l 1
 221.711007688 57.5048126242 l 1
EndSplineSet
EndChar

StartChar: aacute
Encoding: 225 225 136
Width: 395
GlyphClass: 1
Flags: W
HStem: -8.40325 21G<21.5128 114.358 189.236 295.154> 495.565 20G<197.723 232.594>
VStem: 21.5548 100.543<57.5048 224.436 224.893 241.98 362.222 455.218> 189.238 100.625<57.5048 277.152 298.779 459.1>
LayerCount: 2
Fore
SplineSet
314.512695312 632.347726438 m 1
 188.907226562 559.836007688 l 1
 63.3017578125 559.836007688 l 1
 54.8164764383 568.321289062 l 1
 63.3017578125 576.806570436 l 1
 188.907226562 649.318289186 l 1
 314.512695312 649.318289186 l 1
 322.997976686 640.833007812 l 1
 314.512695312 632.347726438 l 1
289.863211062 57.0895753469 m 1
 314.904901125 57.0895753469 339.946591187 57.0878204367 364.98828125 57.0878204367 c 1
 373.473562624 48.6025390625 l 1
 364.98828125 40.1172576883 l 1
 337.170118197 23.8911499078 308.931037404 8.08595986713 281.375976562 -8.40325012424 c 1
 197.721679688 -8.40325012424 l 1
 189.236398314 0.08203125 l 1
 189.236398314 35.3863860656 l 1
 114.525390625 -7.73821106174 l 1
 114.358398437 -7.73821106174 l 1
 113.610351562 -8.48625793674 l 1
 29.998046875 -8.48625793674 l 1
 21.5127655008 -0.000976562499998 l 1
 21.5127655008 -0.000976562499998 21.5127655008 241.85546875 21.5547576883 241.98046875 c 2
 30.0400390625 250.465750124 l 1
 57.8696155942 266.61175953 85.7867905492 282.670170512 113.653320312 298.779226686 c 1
 189.238351438 298.779226686 l 1
 189.238351438 493.697663553 l 1
 122.552664186 455.217666345 l 1
 122.552664186 362.221679688 l 1
 114.067382812 353.736398314 l 1
 30.455078125 353.736398314 l 1
 21.9697967508 362.221679688 l 1
 21.9697967508 458.806640625 l 1
 30.455078125 467.291921999 l 1
 114.067382812 515.563406374 l 1
 114.067382812 515.563406374 197.721679687 515.563406374 197.723632812 515.565359499 c 2
 281.377929688 467.584890749 l 1
 289.863211062 459.099609375 l 1
 289.863211062 57.0895753469 l 1
189.238351438 57.5048126242 m 1
 189.238351438 277.152241346 l 1
 166.902545775 264.255864646 144.548031715 251.378196342 122.224066807 238.469978886 c 1
 122.554617312 224.892578125 l 1
 122.097586062 224.435546875 l 1
 122.097586062 57.5048126242 l 1
 189.238351438 57.5048126242 l 1
EndSplineSet
EndChar

StartChar: acircumflex
Encoding: 226 226 137
Width: 399
GlyphClass: 1
Flags: W
HStem: -8.40227 21G<25.63 118.476 193.354 299.271> 495.565 20G<201.839 236.71>
VStem: 25.6719 100.542<57.5048 222.439 222.896 238.478 362.223 455.219> 193.355 100.625<57.5048 277.152 298.779 459.1>
LayerCount: 2
Fore
SplineSet
293.979421999 57.0896744555 m 1
 319.021437583 57.0896744555 344.063453166 57.0887969992 369.10546875 57.0887969992 c 1
 377.590750124 48.603515625 l 1
 369.10546875 40.1182342508 l 1
 341.287305697 23.8921264703 313.048224904 8.08693642963 285.493164062 -8.40227356174 c 1
 201.838867188 -8.40227356174 l 1
 193.353585814 0.0830078125 l 1
 193.353585814 35.3873626281 l 1
 118.642578125 -7.73723449924 l 1
 118.475585937 -7.73723449924 l 1
 117.727539062 -8.48528137424 l 1
 34.115234375 -8.48528137424 l 1
 25.6299530008 1.83013326716e-15 l 1
 25.6299530008 1.83013326716e-15 25.6299530008 241.856445312 25.6719451883 241.8984375 c 2
 25.6719451883 242.022460938 l 1
 34.1572265625 250.507742312 l 1
 117.76953125 298.779226686 l 1
 193.354562376 298.779226686 l 1
 193.354562376 493.698076604 l 1
 126.669851686 455.218642908 l 1
 126.669851686 362.22265625 l 1
 118.184570312 353.737374876 l 1
 34.572265625 353.737374876 l 1
 26.0869842508 362.22265625 l 1
 26.0869842508 458.807617188 l 1
 34.572265625 467.292898562 l 1
 118.184570312 515.564382936 l 1
 118.184570312 515.564382936 201.838867187 515.564382936 201.83984375 515.565359499 c 2
 285.494140625 467.584890749 l 1
 293.979421999 459.099609375 l 1
 293.979421999 57.0896744555 l 1
176.139982081 612.057950322 m 1
 159.855433217 594.680190948 144.263681987 576.609633939 127.415039062 559.795968626 c 1
 29.9990234375 559.795968626 l 1
 21.5137420633 568.28125 l 1
 118.929757688 674.262695312 l 1
 127.415039062 682.747976686 l 1
 224.831054688 682.747976686 l 1
 233.316336062 674.262695312 l 1
 330.732351686 568.28125 l 1
 322.247070312 559.795968626 l 1
 224.831054688 559.795968626 l 1
 207.983620013 576.599552052 192.418141709 594.685091849 176.139982081 612.057950322 c 1
193.354562376 57.5048126242 m 1
 193.354562376 277.152412555 l 1
 126.331909954 238.477974541 l 1
 126.670828249 222.896484375 l 1
 126.213796999 222.439453125 l 1
 126.213796999 57.5048126242 l 1
 193.354562376 57.5048126242 l 1
EndSplineSet
EndChar

StartChar: atilde
Encoding: 227 227 138
Width: 431
GlyphClass: 1
Flags: W
HStem: -8.40325 21G<57.2716 150.117 224.995 330.912> 495.565 20G<233.479 268.351>
VStem: 57.3135 100.541<57.5048 238.427 362.222 455.218> 224.995 100.625<57.5048 277.152 298.779 459.1>
LayerCount: 2
Fore
SplineSet
182.006835938 602.162179564 m 1
 87.9990234375 574.095773314 l 1
 65.8871417826 595.240680804 43.2347003968 615.845028563 21.5127655008 637.379882812 c 1
 29.998046875 645.865164186 l 1
 106.541992188 668.608328249 l 1
 106.541992188 668.608328249 139.928710938 660.666921999 139.970703125 660.666921999 c 0
 140.805383043 660.464762651 166.95528675 654.162439601 223.500976562 640.709890749 c 1
 223.958007812 640.252859499 l 1
 318.796875 668.567312624 l 1
 340.908756655 647.422405134 363.56119804 626.818057374 385.283132936 605.283203125 c 1
 376.797851562 596.797921751 l 1
 300.25390625 574.054757688 l 1
 300.25390625 574.054757688 268.157397418 581.665280107 268.114257812 581.622140501 c 0
 245.143327988 587.162207288 245.143327988 587.162207288 182.006835938 602.162179564 c 1
325.620046999 57.0895753515 m 1
 350.662388103 57.0895753515 375.704729208 57.0878204367 400.747070312 57.0878204367 c 1
 409.232351686 48.6025390625 l 1
 400.747070312 40.1172576883 l 1
 372.928907259 23.8911499078 344.689826467 8.08595986713 317.134765625 -8.40325012424 c 1
 233.48046875 -8.40325012424 l 1
 224.995187376 0.08203125 l 1
 224.995187376 35.4232184617 l 1
 150.284179688 -7.73821106174 l 1
 150.1171875 -7.73821106174 l 1
 149.369140625 -8.48625793674 l 1
 65.7568359375 -8.48625793674 l 1
 57.2715545633 -0.000976562499998 l 1
 57.2715545633 -0.000976562499998 57.2715545633 241.897460938 57.3135467508 242.022460938 c 2
 65.798828125 250.507742312 l 1
 93.6428652161 266.624968241 121.543009556 282.686086922 149.411132812 298.779226686 c 1
 224.995187376 298.779226686 l 1
 224.995187376 493.696536531 l 1
 158.311453249 455.217666345 l 1
 158.311453249 362.221679688 l 1
 149.826171875 353.736398314 l 1
 66.2138671875 353.736398314 l 1
 57.7285858133 362.221679688 l 1
 57.7285858133 458.806640625 l 1
 66.2138671875 467.291921999 l 1
 149.826171875 515.563406374 l 1
 149.826171875 515.563406374 233.478515625 515.563406374 233.48046875 515.565359499 c 2
 317.134765625 467.584890749 l 1
 325.620046999 459.099609375 l 1
 325.620046999 57.0895753515 l 1
224.995187376 57.5048126242 m 1
 224.995187376 277.151849043 l 1
 157.885510219 238.427194684 l 1
 157.854421999 228.176757812 l 1
 157.854421999 57.5048126242 l 1
 224.995187376 57.5048126242 l 1
EndSplineSet
EndChar

StartChar: adieresis
Encoding: 228 228 139
Width: 397
GlyphClass: 1
Flags: W
HStem: -8.48528 21.083G<23.9259 116.813 191.649 297.567> 495.565 20G<200.134 235.005> 556.512 119.376<29.999 132.404 208.034 310.439>
VStem: 21.5137 119.376<564.997 667.402> 23.9678 100.583<57.5048 238.412 362.223 455.219> 191.649 100.625<57.5048 277.149 298.779 459.1> 199.549 119.376<564.997 667.402>
LayerCount: 2
Fore
SplineSet
310.439453125 556.511788938 m 1xe2
 208.034179688 556.511788938 l 1
 199.548898314 564.997070312 l 1
 199.548898314 667.40234375 l 1
 208.034179688 675.887625124 l 1
 310.439453125 675.887625124 l 1
 318.924734499 667.40234375 l 1
 318.924734499 564.997070312 l 1
 310.439453125 556.511788938 l 1xe2
132.404296875 556.511788938 m 1
 29.9990234375 556.511788938 l 1
 21.5137420633 564.997070312 l 1
 21.5137420633 667.40234375 l 1
 29.9990234375 675.887625124 l 1
 132.404296875 675.887625124 l 1
 140.889578249 667.40234375 l 1
 140.889578249 564.997070312 l 1xf0
 132.404296875 556.511788938 l 1
292.274343874 57.0896744566 m 1xec
 317.316684979 57.0896744566 342.359026083 57.0887969992 367.401367188 57.0887969992 c 1
 375.886648562 48.603515625 l 1
 367.401367188 40.1182342508 l 1
 339.583204135 23.8921264703 311.344123342 8.08693642963 283.7890625 -8.40227356174 c 1
 200.134765625 -8.40227356174 l 1
 191.649484251 0.0830078125 l 1
 191.649484251 35.3873626281 l 1
 116.938476562 -7.73723449924 l 1
 116.813476563 -7.73723449924 l 1
 116.065429688 -8.48528137424 l 1
 32.4111328125 -8.48528137424 l 1
 23.9258514383 1.83013326716e-15 l 1
 23.9258514383 1.83013326716e-15 23.9258514383 241.856445312 23.9678436258 241.8984375 c 2
 23.9678436258 242.022460938 l 1
 32.453125 250.507742312 l 1
 116.065429688 298.779226686 l 1
 191.649484251 298.779226686 l 1
 191.649484251 493.697513093 l 1
 124.965750124 455.218642908 l 1
 124.965750124 362.22265625 l 1
 116.48046875 353.737374876 l 1
 32.8681640625 353.737374876 l 1
 24.3828826883 362.22265625 l 1
 24.3828826883 458.807617188 l 1
 32.8681640625 467.292898562 l 1
 116.48046875 515.564382936 l 1
 116.48046875 515.564382936 200.133789062 515.564382936 200.134765625 515.565359499 c 2
 283.7890625 467.584890749 l 1
 292.274343874 459.099609375 l 1
 292.274343874 57.0896744566 l 1xec
191.649484251 57.5048126242 m 1
 191.649484251 277.149496899 l 1
 124.550711062 238.411577974 l 1
 124.550711062 57.5048126242 l 1
 191.649484251 57.5048126242 l 1
EndSplineSet
EndChar

StartChar: aring
Encoding: 229 229 140
Width: 395
GlyphClass: 1
Flags: W
HStem: -8.44329 21G<21.5147 114.402 189.238 282.066> 495.566 20G<79.4569 114.069> 518.636 21G<154.773 214.438>
VStem: 21.5567 100.583<57.5048 238.413 362.225 455.183> 116.478 46.782<540.499 635.072> 176.141 46.7821<547.927 642.505> 189.238 100.625<57.5048 277.15 298.78 459.1>
LayerCount: 2
Fore
SplineSet
176.140695188 642.505213139 m 1xec
 163.258751108 635.072002142 l 1
 163.258751108 603.547821515 163.259578406 572.023640889 163.259578406 540.499460263 c 1
 176.140695188 547.926676214 l 1
 176.140695188 642.505213139 l 1xec
154.7734375 518.635812376 m 1
 154.7734375 518.635813753 l 1
 124.962890625 518.677804564 l 1
 116.477609251 527.163085938 l 1
 116.477609251 638.756835938 l 1
 124.962890625 647.242117312 l 1
 125.12890625 647.242117312 l 1
 154.940429688 664.455007936 l 1
 184.79296875 664.455007936 l 1
 184.834725714 664.413250973 l 1
 214.4375 664.455007936 l 1
 222.922781374 655.969726562 l 1
 222.922781374 544.333984375 l 1
 214.4375 535.848703001 l 1
 184.625976562 518.635812376 l 1
 154.7734375 518.635812376 l 1
122.554617312 455.182863226 m 1
 122.554617312 362.224609375 l 1
 114.069335938 353.739328001 l 1
 30.45703125 353.739328001 l 1
 21.9717498758 362.224609375 l 1
 21.9717498758 458.767578125 l 1
 30.45703125 467.252859499 l 1
 114.069335938 515.566336062 l 1
 114.069335938 515.566336062 197.723632812 515.566336062 197.72592283 515.564046045 c 2
 281.377929688 467.584890749 l 1
 289.863211062 459.099609375 l 1
 289.863211062 57.0897735617 l 1
 364.990234375 57.0897735617 l 1
 373.475515749 48.6044921875 l 1
 364.990234375 40.1192108133 l 1
 282.066439091 -7.75477978341 l 1
 281.377929688 -8.44328918674 l 1
 197.723632812 -8.44328918674 l 1
 189.238351438 0.0419921875 l 1
 189.238351438 35.3873626281 l 1
 114.52734375 -7.73723449924 l 1
 114.40234375 -7.73723449924 l 1
 113.654296875 -8.48528137424 l 1
 30 -8.48528137424 l 1
 21.5147186258 1.83013326716e-15 l 1
 21.5147186258 1.83013326716e-15 21.5147186258 241.856445312 21.5567108133 241.981445312 c 2
 30.0419921875 250.466726686 l 1
 113.654296875 298.780203249 l 1
 189.238351438 298.780203249 l 1
 189.238351438 493.695206838 l 1xf2
 122.554617312 455.182863226 l 1
189.238351438 57.5048126242 m 1
 189.238351438 277.150473462 l 1
 122.139578249 238.412554535 l 1
 122.139578249 57.5048126242 l 1
 189.238351438 57.5048126242 l 1
EndSplineSet
EndChar

StartChar: ae
Encoding: 230 230 141
Width: 480
GlyphClass: 1
Flags: W
HStem: -8.31927 20.834G<21.5147 114.402 189.238 281.457 281.457 399.679> 495.648 19.875G<79.4278 114.07 246.774 282.335 282.335 380.523>
VStem: 21.5567 100.583<57.5878 238.495 362.307 455.303> 189.238 101.107<13.4055 35.4704 57.5878 252.535 274.124 277.233 298.862 491.575> 358.128 100.666<274.124 455.133>
LayerCount: 2
Fore
SplineSet
189.238351438 298.862234499 m 1
 189.238351438 493.780933958 l 1
 122.555593874 455.302627282 l 1
 122.555593874 362.306640625 l 1
 114.0703125 353.821359251 l 1
 30.4580078125 353.821359251 l 1
 21.9727264383 362.306640625 l 1
 21.9727264383 458.891601562 l 1
 30.4580078125 467.376882936 l 1
 114.0703125 515.648367312 l 1
 114.0703125 515.648367312 197.723632812 515.648367312 197.725924279 515.647052409 c 0
 239.67578125 491.575125124 239.67578125 491.575125124 239.67578125 491.575125124 c 1
 281.627929688 515.648367312 l 1
 282.334960938 514.941336062 l 1
 282.916992188 515.523367312 l 1
 366.571289062 515.523367312 l 1
 394.474208368 499.423682452 422.325017783 483.271887699 450.266601562 467.210867312 c 1
 458.751861248 458.725585934 l 1
 458.793875124 216.577148438 l 1
 450.30859375 208.091867064 l 1
 366.61328125 208.091867064 l 1
 365.865234376 208.839913938 l 1
 365.740234375 208.839913938 l 1
 290.045802698 252.534847878 l 1
 290.345437112 13.4054973234 l 1
 365.032226562 56.7987579367 l 1
 448.727539062 56.7987579367 l 1
 457.212820436 48.3134765625 l 1
 448.727539062 39.8281951883 l 1
 365.032226562 -8.48528137424 l 1
 281.876953125 -8.48528137424 l 1
 281.456885189 -8.24031024865 l 1
 281.377929688 -8.31926574924 l 1
 197.723632812 -8.31926574924 l 1
 189.238351438 0.166015625 l 1
 189.238351438 35.4703704406 l 1
 114.52734375 -7.65422668674 l 1
 114.40234375 -7.65422668674 l 1
 113.654296875 -8.40227356174 l 1
 30 -8.40227356174 l 1
 21.5147186258 0.0830078125 l 1
 21.5147186258 0.0830078125 21.5147186258 241.939453125 21.5567108133 241.981445312 c 2
 21.5567108133 242.10546875 l 1
 30.0419921875 250.590750124 l 1
 113.654296875 298.862234499 l 1
 189.238351438 298.862234499 l 1
189.238351438 57.5878204367 m 1
 189.238351438 277.232504712 l 1
 122.139578249 238.494585785 l 1
 122.139578249 57.5878204367 l 1
 189.238351438 57.5878204367 l 1
358.127999876 274.123953249 m 1
 358.127999876 446.084960938 l 1
 358.097939934 455.133003159 l 1
 290.100049342 494.404321145 l 1
 289.872811945 274.123953249 l 1
 358.127999876 274.123953249 l 1
EndSplineSet
EndChar

StartChar: ccedilla
Encoding: 231 231 142
Width: 311
GlyphClass: 1
Flags: W
HStem: 494.316 20G<79.0748 114.11>
VStem: 21.5147 100.458<47.3965 457.31> 114.94 64.619<-48.9795 -9.81731>
LayerCount: 2
Fore
SplineSet
179.558523562 -9.81731262424 m 1xa0
 179.558523562 -48.9794921875 l 1
 142.637625124 -97.9990234375 l 1
 134.15234375 -106.484304812 l 1
 102.178710938 -106.484304812 l 1
 93.6934295638 -97.9990234375 l 1
 114.939523314 -48.9794921875 l 1
 114.939523314 -9.81731262424 l 1xa0
 113.487304688 -9.81731262424 l 1
 30 38.9112030008 l 1
 21.5147186258 47.396484375 l 1
 21.5147186258 457.309570312 l 1
 30 465.794851686 l 1
 113.487304688 514.316336062 l 1
 114.110351564 513.693289186 l 1
 197.017578125 513.693289186 l 1
 280.504882812 465.504812624 l 1
 288.990164186 457.01953125 l 1
 280.504882812 448.534249876 l 1
 197.017578125 448.534249876 l 1
 121.972586062 491.828087803 l 1
 121.972586062 12.0483949119 l 1xc0
 197.017578125 55.3417266867 l 1
 280.504882812 55.3417266867 l 1
 288.990164186 46.8564453125 l 1
 280.504882812 38.3711639383 l 1
 197.017578125 -9.81731262424 l 1
 179.558523562 -9.81731262424 l 1xa0
EndSplineSet
EndChar

StartChar: egrave
Encoding: 232 232 143
Width: 342
GlyphClass: 1
Flags: W
HStem: -8.48528 21G<108.911 261.683> 495.649 19.875G<108.774 144.338 144.338 242.557>
VStem: 51.2842 101.065<48.1055 252.535 274.125 459.142> 220.131 100.666<274.125 455.138>
LayerCount: 2
Fore
SplineSet
281.211914062 570.607492064 m 1
 155.606445312 570.607492064 l 1
 30.0009765625 643.119210814 l 1
 21.5156951883 651.604492188 l 1
 30.0009765625 660.089773562 l 1
 155.606445312 660.089773562 l 1
 281.211914062 587.578054812 l 1
 289.697195436 579.092773438 l 1
 281.211914062 570.607492064 l 1
320.755768002 458.725585934 m 1
 320.796804812 216.578125 l 1
 312.311523438 208.092843626 l 1
 228.616210938 208.092843626 l 1
 227.868164063 208.840890501 l 1
 227.743164062 208.840890501 l 1
 152.04970843 252.535261014 l 1
 152.349343362 13.4054973234 l 1
 227.036132812 56.7987579367 l 1
 310.731445312 56.7987579367 l 1
 319.216726686 48.3134765625 l 1
 310.731445312 39.8281951883 l 1
 227.036132812 -8.48528137424 l 1
 143.880859375 -8.48528137424 l 1
 59.76953125 39.6201873758 l 1
 51.2842498758 48.10546875 l 1
 51.2422576883 265.639648438 l 1
 51.4502655008 459.141601562 l 1
 59.935546875 467.626882936 l 1
 143.630859375 515.649343874 l 1
 144.338378906 514.941824343 l 1
 144.920898438 515.524343874 l 1
 228.616210938 515.524343874 l 1
 256.496904913 499.415780037 284.424961331 483.354578643 312.270507812 467.210867312 c 1
 320.755768002 458.725585934 l 1
220.130929564 274.124929812 m 1
 220.130929564 455.138469473 l 1
 152.102981707 494.407892888 l 1
 151.875741633 274.124929812 l 1
 220.130929564 274.124929812 l 1
EndSplineSet
EndChar

StartChar: eacute
Encoding: 233 233 144
Width: 326
GlyphClass: 1
Flags: W
HStem: -8.48626 21G<79.1838 231.955> 495.648 19.874G<79.0637 114.611 114.611 233.521>
VStem: 21.5567 101.067<48.1045 252.532 274.123 459.141> 190.445 100.625<274.123 455.127>
LayerCount: 2
Fore
SplineSet
295.514648438 643.118234251 m 1
 169.909179688 570.606515501 l 1
 44.3037109375 570.606515501 l 1
 35.8184295633 579.091796875 l 1
 44.3037109375 587.577078249 l 1
 169.909179688 660.088796999 l 1
 295.514648438 660.088796999 l 1
 303.999929812 651.603515625 l 1
 295.514648438 643.118234251 l 1
190.445382688 274.122976686 m 1
 190.445382688 449.369140625 l 1
 190.419534852 455.127196952 l 1
 122.377608097 494.404689746 l 1
 122.187796877 274.122976686 l 1
 190.445382688 274.122976686 l 1
198.182617187 208.838937376 m 1
 198.015625 208.838937376 l 1
 122.362074238 252.531684648 l 1
 122.623921098 13.4057506277 l 1
 197.30859375 56.7977813742 l 1
 281.00390625 56.7977813742 l 1
 289.489187624 48.3125 l 1
 281.00390625 39.8272186258 l 1
 197.30859375 -8.48625793674 l 1
 114.153320312 -8.48625793674 l 1
 30.0419921875 39.6192108133 l 1
 21.5567108133 48.1044921875 l 1
 21.5147186258 265.638671875 l 1
 21.7637420633 459.140625 l 1
 30.2490234375 467.625906374 l 1
 113.903320312 515.648367312 l 1
 114.611328125 514.940359499 l 1
 115.193359375 515.522390749 l 1
 198.888671875 515.522390749 l 1
 282.544200947 467.212024455 l 1
 282.544200947 467.212024455 291.028250124 458.724609375 291.070242312 458.599609375 c 2
 291.070242312 216.576171875 l 1
 282.584960938 208.090890501 l 1
 198.930664062 208.090890501 l 1
 198.182617187 208.838937376 l 1
EndSplineSet
EndChar

StartChar: ecircumflex
Encoding: 234 234 145
Width: 352
GlyphClass: 1
Flags: W
HStem: -8.48528 21G<97.1397 249.942> 495.648 19.834G<97.0495 132.614 132.614 230.801>
VStem: 39.5186 101.107<48.0635 252.531 274.124 459.141> 208.407 100.666<274.124 455.079>
LayerCount: 2
Fore
SplineSet
208.407296751 274.123953249 m 1
 208.407296751 453.819335938 l 1
 208.39642653 455.078511998 l 1
 140.378305636 494.342262755 l 1
 140.151132257 274.123953249 l 1
 208.407296751 274.123953249 l 1
216.144531251 208.839913938 m 1
 215.977539062 208.839913938 l 1
 140.32608039 252.531452951 l 1
 140.625710549 13.4054973233 l 1
 215.3125 56.7987579367 l 1
 298.966796875 56.7987579367 l 1
 307.452078249 48.3134765625 l 1
 298.966796875 39.8281951883 l 1
 215.3125 -8.48528137424 l 1
 132.157226562 -8.48528137424 l 1
 48.00390625 39.5781951883 l 1
 39.5186248758 48.0634765625 l 1
 39.4766326883 265.638671875 l 1
 39.7256561258 459.140625 l 1
 48.2109375 467.625906374 l 1
 131.90625 515.648367312 l 1
 132.613769532 514.94084778 l 1
 133.155273438 515.482351686 l 1
 216.850585938 515.482351686 l 1
 244.750599173 499.379109713 272.638919855 483.264175187 300.546875 467.168875124 c 1
 300.546875 467.168875124 309.032156374 458.68359375 309.073171999 458.55859375 c 2
 309.073171999 216.577148438 l 1
 300.587890625 208.091867064 l 1
 216.892578125 208.091867064 l 1
 216.144531251 208.839913938 l 1
176.142911768 622.827481572 m 1
 159.858362904 605.449722198 144.266611675 587.379165189 127.41796875 570.565499876 c 1
 30.001953125 570.565499876 l 1
 21.5166717508 579.05078125 l 1
 118.932687376 685.032226562 l 1
 127.41796875 693.517507936 l 1
 224.833984375 693.517507936 l 1
 233.319265749 685.032226562 l 1
 330.735281374 579.05078125 l 1
 322.25 570.565499876 l 1
 224.833984375 570.565499876 l 1
 207.9865497 587.369083302 192.421071396 605.454623099 176.142911768 622.827481572 c 1
EndSplineSet
EndChar

StartChar: igrave
Encoding: 236 236 146
Width: 311
GlyphClass: 1
Flags: W
HStem: -8.4843 21G<133.319 239.346> 496.646 20G<196.385 239.513>
VStem: 124.834 114.512<0.166992 323.973 324.056 412.242 412.449 451.823>
LayerCount: 2
Fore
SplineSet
281.2109375 560.379953001 m 1
 155.60546875 560.379953001 l 1
 30 632.891671751 l 1
 21.5147186258 641.376953125 l 1
 30 649.862234499 l 1
 155.60546875 649.862234499 l 1
 281.2109375 577.350515749 l 1
 289.696218874 568.865234375 l 1
 281.2109375 560.379953001 l 1
239.512625124 508.161132812 m 1
 239.438178207 476.262272438 239.415599017 444.311544336 239.304880832 412.448955231 c 1
 239.511648562 412.2421875 l 1
 239.345632936 372.619140625 l 1
 239.345632936 0.0009765625 l 1
 230.860351562 -8.48430481174 l 1
 133.319335938 -8.31828918674 l 1
 124.834054564 0.1669921875 l 1
 124.834054564 323.972656249 l 1
 124.747543566 324.055669861 l 1
 124.959054564 451.823242188 l 1
 133.444335938 460.308523562 l 1
 231.02734375 516.646414186 l 1
 239.512625124 508.161132812 l 1
EndSplineSet
EndChar

StartChar: iacute
Encoding: 237 237 147
Width: 311
GlyphClass: 1
Flags: W
HStem: -8.48528 21G<89.207 195.275> 496.646 20G<152.288 195.4>
VStem: 80.6798 114.596<0.400557 383.054 383.179 405.007 405.172 451.823>
LayerCount: 2
Fore
SplineSet
281.212890625 632.890695188 m 1
 155.607421875 560.378976438 l 1
 30.001953125 560.378976438 l 1
 21.5166717508 568.864257812 l 1
 30.001953125 577.349539186 l 1
 155.607421875 649.861257936 l 1
 281.212890625 649.861257936 l 1
 289.698171999 641.375976562 l 1
 281.212890625 632.890695188 l 1
89.373046875 460.308523562 m 1
 186.915039062 516.646414186 l 1
 195.400320436 508.161132812 l 1
 195.234704623 405.172451751 l 1
 195.400320436 405.006835938 l 1
 195.400320436 383.178710938 l 1
 195.275320436 383.053710938 l 1
 195.275320436 5.37764277553e-17 l 1
 186.790039062 -8.48528137424 l 1
 89.20703125 -8.31926574924 l 1
 80.7217498758 0.166015625 l 1
 80.7217498758 0.166015625 80.7217498758 323.763671875 80.6797576883 323.805664062 c 2
 80.6797576883 347.795898438 l 1
 80.8877655008 451.823242188 l 1
 89.373046875 460.308523562 l 1
EndSplineSet
EndChar

StartChar: icircumflex
Encoding: 238 238 148
Width: 352
GlyphClass: 1
Flags: W
HStem: -8.48528 21G<121.471 227.539> 496.604 20G<184.55 227.663>
VStem: 112.943 114.596<0.355202 451.782>
LayerCount: 2
Fore
SplineSet
233.317312624 674.803710938 m 1
 330.733328249 568.822265625 l 1
 322.248046875 560.336984251 l 1
 224.83203125 560.336984251 l 1
 207.984596575 577.140567677 192.419118271 595.226107474 176.140958643 612.598965947 c 1
 159.856409779 595.221206573 144.26465855 577.150649564 127.416015625 560.336984251 c 1
 30 560.336984251 l 1
 21.5147186258 568.822265625 l 1
 118.930734251 674.803710938 l 1
 127.416015625 683.288992312 l 1
 224.83203125 683.288992312 l 1
 233.317312624 674.803710938 l 1
121.63671875 460.267507936 m 1
 219.177734375 516.604421999 l 1
 227.663015749 508.119140625 l 1
 227.663015749 508.119140625 227.497145546 412.491065516 227.538992312 412.44921875 c 2
 227.538992312 5.37764277553e-17 l 1
 219.053710938 -8.48528137424 l 1
 121.470703125 -8.36028137424 l 1
 112.985421751 0.125 l 1
 112.985421751 0.125 112.985421751 317.735351563 112.943429564 317.77734375 c 0
 112.943430498 336.393470142 112.943430498 336.393470142 113.151437376 451.782226562 c 1
 121.63671875 460.267507936 l 1
EndSplineSet
EndChar

StartChar: ntilde
Encoding: 241 241 149
Width: 407
GlyphClass: 1
Flags: W
HStem: -8.48528 21G<69.1221 161.594 237.636 330.107> 497.56 20G<69.1221 112.227 144.029 280.769>
VStem: 69.1221 100.957<0.166016 456.957> 237.636 100.957<0.165039 460.595>
LayerCount: 2
Fore
SplineSet
182.008789062 614.760812376 m 1
 88.0009765625 586.695382688 l 1
 65.889732083 607.827255479 43.230888297 628.411528963 21.5147186258 649.938476562 c 1
 30 658.423757936 l 1
 106.543945312 681.207937624 l 2
 107.713714145 680.929694906 199.756310291 658.957982584 223.502929688 653.308523562 c 1
 223.959960938 652.851492312 l 1
 318.798828125 681.165945436 l 1
 340.91070978 660.021037946 363.563151166 639.416690187 385.285086062 617.881835938 c 1
 376.799804688 609.396554564 l 1
 300.255859375 586.653390501 l 1
 300.255859375 586.653390501 268.159350544 594.263912919 268.116210938 594.220773314 c 0
 245.145280832 599.760840169 245.145280832 599.760840169 182.008789062 614.760812376 c 1
162.549804688 517.560476686 m 1
 246.12109375 517.560476686 l 1
 330.107421875 469.080007936 l 1
 338.592703249 460.594726562 l 1
 338.592703249 0.1650390625 l 1
 330.107421875 -8.32024231174 l 1
 246.12109375 -8.48625793674 l 1
 237.635812376 -0.000976562499998 l 1
 237.635812376 495.721024011 l 1
 170.079031374 456.956660643 l 1
 170.079031374 0.166015625 l 1
 161.59375 -8.31926574924 l 1
 77.607421875 -8.48528137424 l 1
 69.1221405008 1.83013326716e-15 l 1
 69.1221405008 509.1171875 l 1
 77.607421875 517.602468874 l 1
 120.141601562 493.030203249 l 2
 120.295852419 493.111303955 120.454370815 493.188137122 120.556640625 493.321218874 c 0
 125.507674376 496.196254688 125.507674376 496.196254688 162.549804688 517.560476686 c 1
EndSplineSet
EndChar

StartChar: ograve
Encoding: 242 242 150
Width: 348
GlyphClass: 1
Flags: W
HStem: -8.48626 21G<150.949 269.279> 495.731 20G<116.789 235.267 235.267 326.867>
VStem: 58.7266 100.708<13.3823 455.042> 226.159 100.708<48.3535 493.57>
LayerCount: 2
Fore
SplineSet
281.211914062 568.153390501 m 1
 155.606445312 568.153390501 l 1
 30.0009765625 640.665109251 l 1
 21.5156951883 649.150390625 l 1
 30.0009765625 657.635671999 l 1
 155.606445312 657.635671999 l 1
 281.211914062 585.123953249 l 1
 289.697195436 576.638671875 l 1
 281.211914062 568.153390501 l 1
159.434500124 455.041995095 m 1
 159.434500124 13.3823032156 l 1
 181.674084178 26.2313393769 203.945003919 39.0490398503 226.159249876 51.9234141078 c 1
 226.159249876 493.570222705 l 1
 159.434500124 455.041995095 l 1
67.2119140625 -8.31926574924 m 1
 58.7266326883 0.166015625 l 1
 58.7266326883 458.891601562 l 1
 67.2119140625 467.376882936 l 1
 67.7109375 467.376882936 l 1
 151.40625 515.731375124 l 1
 235.1015625 515.731375124 l 1
 235.266962793 515.565974831 l 1
 318.381835938 515.689382936 l 1
 326.867117312 507.204101562 l 1
 326.867117312 48.353515625 l 1
 318.381835938 39.8682342508 l 1
 234.64453125 -8.48625793674 l 1
 150.94921875 -8.48625793674 l 2
 150.948240248 -8.48527943428 67.2119140625 -8.31926574924 67.2119140625 -8.31926574924 c 1
EndSplineSet
EndChar

StartChar: oacute
Encoding: 243 243 151
Width: 318
GlyphClass: 1
Flags: W
HStem: -8.48528 21G<30.001 232.051> 495.731 20G<79.5359 198.056 198.056 289.614>
VStem: 21.5157 100.666<13.3851 455.04> 188.948 100.666<51.9399 493.573>
LayerCount: 2
Fore
SplineSet
288.072265625 640.665109251 m 1
 162.466796875 568.153390501 l 1
 36.861328125 568.153390501 l 1
 28.3760467508 576.638671875 l 1
 36.861328125 585.123953249 l 1
 162.466796875 657.635671999 l 1
 288.072265625 657.635671999 l 1
 296.557546999 649.150390625 l 1
 288.072265625 640.665109251 l 1
122.181570436 455.039657661 m 1
 122.181570436 13.385146177 l 1
 188.948312376 51.939908759 l 1
 188.948312376 493.572693204 l 1
 122.181570436 455.039657661 l 1
113.696289062 -8.48528137424 m 1
 30.0009765625 -8.31926574924 l 1
 21.5156951883 0.166015625 l 1
 21.5156951883 458.891601562 l 1
 30.0009765625 467.376882936 l 1
 30.4580078125 467.376882936 l 1
 114.153320312 515.731375124 l 1
 197.890625 515.731375124 l 1
 198.055957708 515.566042416 l 1
 281.12890625 515.690359499 l 1
 289.614187624 507.205078125 l 1
 289.614187624 48.3544921875 l 1
 281.12890625 39.8692108133 l 1
 197.43359375 -8.48528137424 l 1
 113.696289062 -8.48528137424 l 1
EndSplineSet
EndChar

StartChar: ocircumflex
Encoding: 244 244 152
Width: 352
GlyphClass: 1
Flags: W
HStem: -8.48626 21G<139.224 257.609> 495.69 20G<105.035 223.585 223.585 315.143>
VStem: 47.044 100.666<13.38 455.04> 214.477 100.666<51.9021 493.573>
LayerCount: 2
Fore
SplineSet
176.141935205 620.37338001 m 1
 159.857386342 602.995620636 144.265635113 584.925063627 127.416992188 568.111398314 c 1
 30.0009765625 568.111398314 l 1
 21.5156951883 576.596679688 l 1
 118.931710814 682.578125 l 1
 127.416992188 691.063406374 l 1
 224.833007812 691.063406374 l 1
 233.318289186 682.578125 l 1
 330.734304812 576.596679688 l 1
 322.249023438 568.111398314 l 1
 224.833007812 568.111398314 l 1
 207.985573137 584.91498174 192.420094833 603.000521537 176.141935205 620.37338001 c 1
147.709890749 455.039657661 m 1
 147.709890749 13.380013413 l 1
 214.476632688 51.902072773 l 1
 214.476632688 493.572693204 l 1
 147.709890749 455.039657661 l 1
55.529296875 -8.36028137424 m 1
 47.0440155008 0.125 l 1
 47.0440155008 458.891601562 l 1
 55.529296875 467.376882936 l 1
 55.986328125 467.376882936 l 1
 139.681640625 515.690359499 l 1
 223.418945312 515.690359499 l 1
 223.585029008 515.524275803 l 1
 306.657226562 515.689382936 l 1
 315.142507936 507.204101562 l 1
 315.142507936 48.3125 l 1
 306.657226562 39.8272186258 l 1
 222.961914062 -8.48625793674 l 1
 139.224609375 -8.48625793674 l 2
 139.223631352 -8.48527991355 55.529296875 -8.36028137424 55.529296875 -8.36028137424 c 1
EndSplineSet
EndChar

StartChar: otilde
Encoding: 245 245 153
Width: 407
GlyphClass: 1
Flags: W
HStem: -8.48528 21G<77.7314 279.781> 495.69 20G<127.237 245.745 245.745 337.345>
VStem: 69.2462 100.666<13.3851 455.04> 236.679 100.666<51.9399 493.573>
LayerCount: 2
Fore
SplineSet
182.0078125 610.438546751 m 1
 88 582.373117064 l 1
 65.8881183451 603.518024554 43.2356769593 624.122372313 21.5137420633 645.657226562 c 1
 29.9990234375 654.142507936 l 1
 106.54296875 676.885671999 l 1
 139.9296875 668.944265749 l 2
 140.010932343 668.863020912 222.666059761 649.185121835 223.501953125 648.986257936 c 2
 224.000976562 648.529226686 l 1
 318.797851562 676.843679812 l 1
 340.909733217 655.698772321 363.562174603 635.094424561 385.284109499 613.559570312 c 1
 376.798828125 605.074288938 l 1
 300.254882812 582.331124876 l 1
 300.254882812 582.331124876 268.158373981 589.941647294 268.115234375 589.898507688 c 0
 245.144304559 595.438574473 245.144304559 595.438574473 182.0078125 610.438546751 c 1
169.912039186 455.039657661 m 1
 169.912039186 13.385146177 l 1
 236.678781126 51.939908759 l 1
 236.678781126 493.572693204 l 1
 169.912039186 455.039657661 l 1
161.426757812 -8.48528137424 m 1
 77.7314453125 -8.31926574924 l 1
 69.2461639383 0.166015625 l 1
 69.2461639383 458.891601562 l 1
 77.7314453125 467.376882936 l 1
 78.1884765625 467.376882936 l 1
 161.883789062 515.690359499 l 1
 245.62109375 515.690359499 l 1
 245.745472121 515.565981128 l 1
 328.859375 515.690359499 l 1
 337.344656374 507.205078125 l 1
 337.344656374 48.3544921875 l 1
 328.859375 39.8692108133 l 1
 245.1640625 -8.48528137424 l 1
 161.426757812 -8.48528137424 l 1
EndSplineSet
EndChar

StartChar: oslash
Encoding: 248 248 154
Width: 593
GlyphClass: 1
Flags: W
HStem: -8.48626 21G<306.426 382.674> 495.69 20G<230.125 348.609 348.609 440.208 500.093 571.261>
VStem: 172.109 100.707<13.3825 89.4671 160.406 195.331 266.314 455.041> 339.542 100.666<51.8996 265.503 336.486 371.37 442.344 493.569>
LayerCount: 2
Fore
SplineSet
571.260671999 509.200195312 m 1
 440.207937624 371.370117188 l 1
 440.207937624 48.3125 l 1
 431.72265625 39.8272186258 l 1
 348.02734375 -8.48625793674 l 1
 264.824332095 -8.4862578881 264.824332095 -8.4862578881 180.63671875 -8.31926574924 c 1
 172.151437376 0.166015625 l 1
 172.151437376 89.4671228717 l 1
 141.552991759 57.549183781 111.464696648 25.1210941846 80.517578125 -6.44817199924 c 1
 30.0009765625 -6.44817199924 l 1
 21.5156951883 2.037109375 l 1
 172.109445188 160.40625 l 1
 172.109445188 458.891601562 l 1
 180.594726562 467.376882936 l 1
 181.051757812 467.376882936 l 1
 264.7890625 515.690359499 l 1
 348.484375 515.690359499 l 1
 348.608549803 515.566184696 l 1
 431.72265625 515.731375124 l 1
 440.207937624 507.24609375 l 1
 440.207937624 442.344324575 l 1
 464.280984096 467.415617828 487.885239326 492.955702323 512.299804688 517.685476686 c 1
 562.775390625 517.685476686 l 1
 571.260671999 509.200195312 l 1
272.816336062 455.041018533 m 1
 272.816336062 266.314164112 l 1
 339.541085814 336.486328125 l 1
 339.541085814 493.569246142 l 1
 272.816336062 455.041018533 l 1
339.542062376 265.503218701 m 1
 272.817312624 195.331054688 l 1
 272.817312624 13.3824697215 l 1
 339.542062376 51.8996164645 l 1
 339.542062376 265.503218701 l 1
EndSplineSet
EndChar

StartChar: ugrave
Encoding: 249 249 155
Width: 353
GlyphClass: 1
Flags: W
HStem: -8.48528 21G<322.456 331.357> 495.69 20G<63.5499 106.631>
VStem: 63.5079 100.584<100.142 458.892> 230.737 100.621<61.7684 362.349>
LayerCount: 2
Fore
SplineSet
281.2109375 560.752999876 m 1
 155.60546875 560.752999876 l 1
 30 633.264718626 l 1
 21.5147186258 641.75 l 1
 30 650.235281374 l 1
 155.60546875 650.235281374 l 1
 281.2109375 577.723562624 l 1
 289.696218874 569.23828125 l 1
 281.2109375 560.752999876 l 1
239.301757812 419.147390749 m 1
 322.872070312 370.833914186 l 1
 331.357351686 362.348632812 l 1
 331.357351686 5.37764277553e-17 l 1
 322.872070312 -8.48528137424 l 1
 322.456054688 -8.23625793674 l 1
 239.217773438 -8.23625793674 l 1
 71.9931640625 88.0576873758 l 1
 63.5078826883 96.54296875 l 1
 63.5498748758 507.205078125 l 1
 72.03515625 515.690359499 l 1
 155.606445312 467.376882936 l 1
 164.091726686 458.891601562 l 1
 164.091726686 100.142424075 l 1
 230.736504997 61.7683526069 l 1
 230.816476438 410.662109375 l 1
 239.301757812 419.147390749 l 1
EndSplineSet
EndChar

StartChar: uacute
Encoding: 250 250 156
Width: 353
GlyphClass: 1
Flags: W
HStem: -8.48528 21G<280.504 289.363> 495.648 20G<21.5557 64.6665>
VStem: 21.5137 100.584<100.142 458.892> 188.783 100.58<61.7383 362.349>
LayerCount: 2
Fore
SplineSet
322.87109375 631.268624876 m 1
 197.265625 558.756906126 l 1
 71.66015625 558.756906126 l 1
 63.1748748758 567.2421875 l 1
 71.66015625 575.727468874 l 1
 197.265625 648.239187624 l 1
 322.87109375 648.239187624 l 1
 331.356375124 639.75390625 l 1
 322.87109375 631.268624876 l 1
197.30859375 419.105398562 m 1
 280.877929688 370.833914186 l 1
 289.363211062 362.348632812 l 1
 289.363211062 5.37764277553e-17 l 1
 280.877929688 -8.48528137424 l 1
 280.50390625 -8.27727356174 l 1
 197.265625 -8.27727356174 l 1
 29.9990234375 88.0576873758 l 1
 21.5137420633 96.54296875 l 1
 21.5557342508 507.163085938 l 1
 30.041015625 515.648367312 l 1
 113.612304688 467.376882936 l 1
 122.097586062 458.891601562 l 1
 122.097586062 100.14165826 l 1
 188.782853032 61.7382549233 l 1
 188.823312376 410.620117188 l 1
 197.30859375 419.105398562 l 1
EndSplineSet
EndChar

StartChar: ucircumflex
Encoding: 251 251 157
Width: 364
GlyphClass: 1
Flags: W
HStem: -8.48528 21G<280.503 289.364> 495.648 20G<21.5548 64.6656>
VStem: 21.5128 100.584<100.141 458.892> 188.782 100.582<61.7334 362.349>
LayerCount: 2
Fore
SplineSet
289.364187624 362.348632812 m 1
 289.364187624 5.37764277553e-17 l 1
 280.876953125 -8.48528137424 l 1
 280.502929688 -8.27727356174 l 1
 197.264648438 -8.27727356174 l 1
 29.998046875 88.0576873758 l 1
 21.5127655008 96.54296875 l 1
 21.5547576883 507.163085938 l 1
 30.0400390625 515.648367312 l 1
 113.611328125 467.376882936 l 1
 122.096609499 458.891601562 l 1
 122.096609499 100.141115459 l 1
 188.781875912 61.7334466086 l 1
 188.822335814 410.620117188 l 1
 197.307617188 419.105398562 l 1
 280.87890625 370.833914186 l 1
 289.364187624 362.348632812 l 1
187.741544581 613.805020634 m 1
 171.456995717 596.42726126 155.865244487 578.356704251 139.016601562 561.543038938 c 1
 41.6005859375 561.543038938 l 1
 33.1153045633 570.028320312 l 1
 130.531320188 676.009765625 l 1
 139.016601562 684.495046999 l 1
 236.432617188 684.495046999 l 1
 244.917898562 676.009765625 l 1
 342.333914186 570.028320312 l 1
 333.848632812 561.543038938 l 1
 236.432617188 561.543038938 l 1
 219.585182513 578.346622364 204.019704209 596.432162161 187.741544581 613.805020634 c 1
EndSplineSet
EndChar

StartChar: yacute
Encoding: 253 253 158
Width: 337
GlyphClass: 1
Flags: W
HStem: -8.4843 21G<106.168 149.255>
VStem: 21.8897 100.995<285.568 694.97> 106.168 100.916<48.5225 224.143> 189.764 100.973<246.953 693.266>
LayerCount: 2
Fore
SplineSet
307.447265625 904.766671751 m 1x80
 181.841796875 832.254953001 l 1
 56.1943359375 832.254953001 l 1
 47.7090545633 840.740234375 l 1
 56.1943359375 849.225515749 l 1
 181.841796875 921.737234499 l 1
 307.447265625 921.737234499 l 1
 315.932546999 913.251953125 l 1
 307.447265625 904.766671751 l 1x80
122.88463072 285.567802954 m 1xc0
 189.763772406 246.952874912 l 1
 190.612374876 693.265625 l 1
 199.09765625 701.750906374 l 1
 283.083984375 750.272390749 l 1
 291.569265749 741.787109375 l 1
 290.737234499 232.627929688 l 1xd0
 282.251953125 224.142648314 l 1
 207.519881213 224.142648314 l 1
 207.083914186 48.5224609375 l 1
 198.598632812 40.0371795633 l 1
 114.653320312 -8.48430481174 l 1
 106.168038938 0.000976562500002 l 1xa0
 106.535741392 229.554834247 l 1
 30.375 273.495187376 l 1
 21.8897186258 281.98046875 l 1
 21.5156951883 743.491210938 l 1
 30.0009765625 751.976492312 l 1
 113.946289062 703.455007936 l 1
 122.431570436 694.969726562 l 1
 122.88463072 285.567802954 l 1xc0
EndSplineSet
EndChar

StartChar: ydieresis
Encoding: 255 255 159
Width: 340
GlyphClass: 1
Flags: W
HStem: -8.48528 21G<126.081 169.215> 817.287 119.376<30 132.405 208.035 310.44>
VStem: 21.5147 119.376<825.772 928.178> 41.8038 100.995<285.57 694.97> 126.081 100.957<48.4795 224.1> 199.55 119.376<825.772 928.178> 209.72 100.931<246.95 693.264>
LayerCount: 2
Fore
SplineSet
310.440429688 817.287179564 m 1xc4
 208.03515625 817.287179564 l 1
 199.549874876 825.772460938 l 1
 199.549874876 928.177734375 l 1
 208.03515625 936.663015749 l 1
 310.440429688 936.663015749 l 1
 318.925711062 928.177734375 l 1
 318.925711062 825.772460938 l 1
 310.440429688 817.287179564 l 1xc4
132.405273438 817.287179564 m 1
 30 817.287179564 l 1
 21.5147186258 825.772460938 l 1
 21.5147186258 928.177734375 l 1
 30 936.663015749 l 1
 132.405273438 936.663015749 l 1
 140.890554812 928.177734375 l 1
 140.890554812 825.772460938 l 1xe0
 132.405273438 817.287179564 l 1
142.799047325 285.570050652 m 1xd0
 209.719737455 246.950480794 l 1
 210.565499876 693.263671875 l 1
 219.05078125 701.748953249 l 1
 302.99609375 750.270437624 l 1
 311.481375124 741.78515625 l 1
 310.650320436 232.584960938 l 1xd2
 302.165039062 224.099679564 l 1
 227.43485753 224.099679564 l 1
 227.038015749 48.4794921875 l 1
 218.552734375 39.9942108133 l 1
 134.56640625 -8.48528137424 l 1
 126.081124876 1.83013326716e-15 l 1xc8
 126.490074155 229.492543487 l 1
 50.2890625 273.494210814 l 1
 41.8037811258 281.979492188 l 1
 41.4297576883 743.44921875 l 1
 49.9150390625 751.934500124 l 1
 133.901367188 703.455007936 l 1
 142.386648562 694.969726562 l 1
 142.799047325 285.570050652 l 1xd0
EndSplineSet
EndChar

StartChar: Lslash
Encoding: 321 321 160
Width: 399
GlyphClass: 1
Flags: W
HStem: -8.48528 21G<229.946 308.012> 688.402 20G<93.6104 222.96>
VStem: 136.892 103.536<89.4746 287.215 471.116 671.142>
LayerCount: 2
Fore
SplineSet
136.891671751 58.6278594992 m 1
 136.891671751 287.214901179 l 1
 56.6923828125 219.235421751 l 1
 48.2071014383 227.720703125 l 1
 21.5147186258 284.266601562 l 1
 30 292.751882936 l 1
 136.892648314 383.350113312 l 1
 136.892648314 671.142063592 l 1
 102.095703125 691.431710814 l 1
 93.6104217508 699.916992188 l 1
 102.095703125 708.402273562 l 1
 188.66015625 708.402273562 l 1
 231.942382812 683.164968874 l 1
 240.427664186 674.6796875 l 1
 240.427664186 471.116331112 l 1
 342.497070312 557.600515749 l 1
 350.982351686 549.115234375 l 1
 377.716726686 492.569335938 l 1
 369.231445312 484.084054564 l 1
 240.427664186 374.940202984 l 1
 240.427664186 89.4746158767 l 1
 273.39453125 108.521414186 l 1
 360.083984375 58.4618438742 l 1
 368.569265749 49.9765625 l 1
 360.083984375 41.4912811258 l 1
 273.26953125 -8.48528137424 l 1
 230.1953125 -8.48528137424 l 1
 229.946289062 -8.31926574924 l 1
 145.501953125 -8.31926574924 l 1
 75.9423828125 41.6572967508 l 1
 67.4571014383 50.142578125 l 1
 75.9423828125 58.6278594992 l 1
 136.891671751 58.6278594992 l 1
EndSplineSet
EndChar

StartChar: lslash
Encoding: 322 322 161
Width: 356
GlyphClass: 1
Flags: W
HStem: -8.4843 21G<121.638 319.143> 688.319 20G<113.152 213.527>
VStem: 113.152 100.375<15.353 262.253 443.821 699.834>
LayerCount: 2
Fore
SplineSet
285.411132812 56.6317657492 m 1
 326.19921875 32.5595001242 l 1
 334.684500124 24.07421875 l 1
 326.19921875 15.5889373758 l 1
 284.497070312 -8.48430481174 l 1
 201.591796875 -8.48430481174 l 1
 121.637695312 -8.27629699924 l 1
 113.152413938 0.208984375 l 1
 113.152413938 262.25326544 l 1
 56.693359375 214.288156126 l 1
 48.2080780008 222.7734375 l 1
 21.5156951883 279.27734375 l 1
 30.0009765625 287.762625124 l 1
 113.152413938 358.463854742 l 1
 113.152413938 699.833984375 l 1
 121.637695312 708.319265749 l 1
 205.041992188 708.319265749 l 1
 213.527273562 699.833984375 l 1
 213.527273562 443.820746719 l 1
 269.529296875 491.409109499 l 1
 278.014578249 482.923828125 l 1
 304.706961062 426.377929688 l 1
 296.221679688 417.892648314 l 1
 213.527273562 347.603997335 l 1
 213.527273562 15.3530067961 l 1
 285.411132812 56.6317657492 l 1
EndSplineSet
EndChar

StartChar: OE
Encoding: 338 338 162
Width: 449
GlyphClass: 1
Flags: W
HStem: -6.48821 41.9579<332.435 376.008> 687.655 20G<81.8688 367.071>
VStem: 21.5147 103.493<13.3857 645.649> 194.519 103.493<55.4827 340.975 407.714 660.762>
LayerCount: 2
Fore
SplineSet
298.011648562 407.713796999 m 1
 316.094726562 407.713796999 l 1
 402.28515625 357.945242312 l 1
 410.770437624 349.459960938 l 1
 402.28515625 340.974679564 l 1
 298.011648562 340.974679564 l 1
 298.011648562 55.4827096793 l 1
 332.434570312 35.4696563742 l 1
 376.0078125 35.4696563742 l 1
 419.083007812 10.4823516867 l 1
 427.568289186 1.9970703125 l 1
 419.083007812 -6.48821106174 l 1
 289.319335938 -6.48821106174 l 1
 247.94921875 17.4600311258 l 1
 203.00390625 -8.48430481174 l 1
 203.00390625 -8.48430481174 116.5234375 -8.48430481174 116.522460938 -8.48528137424 c 2
 30 -8.27727356174 l 1
 21.5147186258 0.2080078125 l 1
 21.5147186258 649.234375 l 1
 30 657.719656374 l 1
 116.522460938 707.655203249 l 1
 332.434570312 707.655203249 l 1
 418.625 657.886648562 l 1
 427.110281374 649.401367188 l 1
 418.625 640.916085814 l 1
 332.434570312 640.916085814 l 1
 298.011648562 660.762265744 l 1
 298.011648562 407.713796999 l 1
194.518624876 53.5214087509 m 1
 194.518624876 685.78424444 l 1
 125.007742312 645.648513124 l 1
 125.007742312 13.385677435 l 1
 194.518624876 53.5214087509 l 1
EndSplineSet
EndChar

StartChar: oe
Encoding: 339 339 163
Width: 480
GlyphClass: 1
Flags: W
HStem: -8.48626 21G<155.892 232.088 246.413 399.181> 495.69 20G<79.5065 198.056 198.056 281.858 281.858 400.747>
VStem: 21.5157 100.666<13.3813 455.04> 188.74 100.875<51.8174 252.516 274.123 493.573> 357.671 100.625<274.123 455.127>
LayerCount: 2
Fore
SplineSet
458.25381437 458.724609371 m 1
 458.295828249 216.6171875 l 1
 449.810546875 208.131906126 l 1
 366.15625 208.131906126 l 1
 365.44921875 208.838937376 l 1
 365.241210938 208.838937376 l 1
 289.615039282 252.515872192 l 1
 289.615039282 240.064943441 289.615164186 227.614014689 289.615164186 215.163085938 c 2
 289.848671704 13.4052652972 l 1
 364.534179688 56.7977813742 l 1
 448.229492188 56.7977813742 l 1
 456.714773562 48.3125 l 1
 448.229492188 39.8272186258 l 1
 364.534179688 -8.48625793674 l 1
 281.37890625 -8.48625793674 l 1
 239.21875 15.6289764383 l 1
 197.43359375 -8.48625793674 l 1
 114.350126201 -8.48625788821 114.350126201 -8.48625788821 30.0009765625 -8.36028137424 c 1
 21.5156951883 0.125 l 1
 21.5156951883 458.891601562 l 1
 30.0009765625 467.376882936 l 1
 30.4580078125 467.376882936 l 1
 114.153320312 515.690359499 l 1
 197.890625 515.690359499 l 1
 198.055734071 515.525250428 l 1
 281.12890625 515.690359499 l 1
 281.857910156 514.961355593 l 1
 282.418945312 515.522390749 l 1
 366.114257812 515.522390749 l 1
 449.769786885 467.212024454 l 1
 458.25381437 458.724609371 l 1
289.61496703 274.122976686 m 1
 357.670968626 274.122976686 l 1
 357.670968626 449.369140625 l 1
 357.645120789 455.127196952 l 1
 289.614230449 494.398318928 l 1
 289.614230449 420.973204847 289.61496703 347.548090767 289.61496703 274.122976686 c 1
122.181570436 455.039657661 m 1
 122.181570436 13.3813107422 l 1
 188.781603759 51.8173676936 l 1
 188.740304564 265.638671875 l 1
 188.948312376 427.250976562 l 1
 188.948312376 493.572693204 l 1
 122.181570436 455.039657661 l 1
EndSplineSet
EndChar

StartChar: Scaron
Encoding: 352 352 164
Width: 362
GlyphClass: 1
Flags: W
HStem: -8.48626 21G<123.986 279.649> 688.277 20G<123.908 279.544>
VStem: 63.4249 103.951<414.882 650.064> 236.18 103.743<49.7256 258.01>
LayerCount: 2
Fore
SplineSet
224.83203125 738.205148314 m 1
 127.416015625 738.205148314 l 1
 118.930734251 746.690429688 l 1
 21.5147186258 852.671875 l 1
 30 861.157156374 l 1
 127.416015625 861.157156374 l 1
 144.262899092 844.353290553 159.852427232 826.292069405 176.140958643 808.929851528 c 1
 192.414149087 826.296120235 207.994459492 844.355268981 224.83203125 861.157156374 c 1
 322.248046875 861.157156374 l 1
 330.733328249 852.671875 l 1
 233.317312624 746.690429688 l 1
 224.83203125 738.205148314 l 1
244.665039062 -8.48625793674 m 1
 158.640625 -8.48625793674 l 1
 72.1181640625 41.4483123758 l 1
 63.6328826883 49.93359375 l 1
 72.1181640625 58.4188751242 l 1
 158.640625 58.4188751242 l 1
 236.179757688 13.4097539883 l 1
 236.179757688 258.010087212 l 1
 71.91015625 353.488351438 l 1
 63.4248748758 361.973632812 l 1
 63.4248748758 650.064453125 l 1
 71.91015625 658.549734499 l 1
 158.890625 708.277273562 l 1
 244.873046875 708.277273562 l 1
 331.4375 658.342703249 l 1
 339.922781374 649.857421875 l 1
 331.4375 641.372140501 l 1
 244.873046875 641.372140501 l 1
 167.375906374 686.378856141 l 1
 167.375906374 414.881827877 l 1
 331.4375 319.568289186 l 1
 339.922781374 311.083007812 l 1
 339.922781374 249.672851562 l 1
 340.130789186 49.7255859375 l 1
 331.645507812 41.2403045633 l 1
 244.665039062 -8.48625793674 l 1
EndSplineSet
EndChar

StartChar: scaron
Encoding: 353 353 165
Width: 352
GlyphClass: 1
Flags: W
HStem: -8.48528 21G<79.1495 231.565> 495.69 20G<120.728 273.101> 688.444 20G<21.5157 135.84 216.414 330.734>
VStem: 63.2178 100.34<317.771 458.892> 188.469 100.606<48.3135 189.615>
LayerCount: 2
Fore
SplineSet
196.934570312 -8.48528137424 m 1
 113.779296875 -8.48528137424 l 1
 30.125 39.8281951883 l 1
 21.6397186258 48.3134765625 l 1
 30.125 56.7987579367 l 1
 113.779296875 56.7987579367 l 1
 188.469190458 13.4036938123 l 1
 188.699288938 176.372070312 l 1
 188.471523726 189.614788848 l 1
 71.703125 257.195382688 l 1
 63.2178436258 265.680664062 l 1
 63.2178436258 458.891601562 l 1
 71.703125 467.376882936 l 1
 155.358398438 515.690359499 l 1
 238.470703125 515.690359499 l 1
 322.125 467.376882936 l 1
 330.610281374 458.891601562 l 1
 322.125 450.406320188 l 1
 238.470703125 450.406320188 l 1
 163.823464991 493.79851378 l 1
 163.558045806 317.771264067 l 1
 280.589482524 250.009071566 l 1
 289.075125124 241.524414062 l 1
 289.075125124 48.3134765625 l 1
 280.58984375 39.8281951883 l 1
 196.934570312 -8.48528137424 l 1
224.833007812 585.492257688 m 1
 127.416992188 585.492257688 l 1
 118.931710814 593.977539062 l 1
 21.5156951883 699.958984375 l 1
 30.0009765625 708.444265749 l 1
 127.416992188 708.444265749 l 1
 144.263875655 691.640399928 159.853403795 673.57917878 176.141935205 656.216960902 c 1
 192.415125649 673.58322961 207.995436054 691.642378356 224.833007812 708.444265749 c 1
 322.249023438 708.444265749 l 1
 330.734304812 699.958984375 l 1
 233.318289186 593.977539062 l 1
 224.833007812 585.492257688 l 1
EndSplineSet
EndChar

